M48
; DRILL file KiCad 10.0.5 date 2026-09-05T17:26:33
; FORMAT={-:-/ absolute / metric / decimal}
; #@! TF.CreationDate,2026-09-05T17:26:33-04:00
; #@! TF.GenerationSoftware,Kicad,Pcbnew,10.0.5
; #@! TF.FileFunction,Plated,1,2,PTH
FMAT,2
METRIC
; #@! TA.AperFunction,Plated,PTH,ViaDrill
T1C0.300
; #@! TA.AperFunction,Plated,PTH,ComponentDrill
T2C1.000
; #@! TA.AperFunction,Plated,PTH,ComponentDrill
T3C1.500
; #@! TA.AperFunction,Plated,PTH,ComponentDrill
T4C3.000
%
G90
G05
T1
X12.597Y-57.041
X13.828Y-29.291
X16.163Y-85.897
X16.7Y-29.9
X16.7Y-35.1
X20.164Y-89.319
X28.587Y-26.835
X28.913Y-40.688
X29.57Y-26.769
X30.74Y-41.36
X31.089Y-28.822
X32.44Y-23.412
X34.783Y-26.95
X36.626Y-28.06
X36.669Y-85.17
X38.602Y-84.759
X39.234Y-22.948
X40.0Y-31.105
X42.753Y-46.89
X42.753Y-50.853
X42.833Y-85.413
X42.833Y-91.747
X43.115Y-71.669
X43.916Y-68.225
X46.104Y-27.902
X46.14Y-47.264
X46.14Y-52.821
X46.499Y-31.803
X49.046Y-68.88
X50.093Y-62.834
X50.093Y-64.811
X51.882Y-49.83
X51.882Y-53.67
X52.559Y-25.663
X54.087Y-6.67
X58.521Y-73.565
X63.329Y-48.492
X63.329Y-51.896
T2
X10.0Y-27.0
X12.54Y-27.0
X15.08Y-27.0
X17.62Y-27.0
X20.38Y-1.59
X20.38Y-4.13
X20.38Y-6.67
X20.38Y-9.21
X20.38Y-11.75
X20.38Y-14.29
X20.38Y-16.83
X20.38Y-19.37
X20.38Y-21.91
X22.92Y-21.91
X25.46Y-21.91
X28.0Y-21.91
X30.54Y-21.91
X33.08Y-21.91
X35.62Y-1.59
X35.62Y-4.13
X35.62Y-6.67
X35.62Y-9.21
X35.62Y-11.75
X35.62Y-14.29
X35.62Y-16.83
X35.62Y-19.37
X35.62Y-21.91
X54.5Y-17.5
X54.5Y-20.0
X54.5Y-22.5
X69.0Y-17.5
X69.0Y-22.5
T4
X17.14Y-41.46
X17.14Y-60.51
X17.14Y-79.56
X23.49Y-38.92
X23.49Y-57.97
X23.49Y-77.02
X36.19Y-41.46
X36.19Y-60.51
X36.19Y-79.56
X42.54Y-38.92
X42.54Y-57.97
X42.54Y-77.02
X55.24Y-41.46
X55.24Y-60.51
X55.24Y-79.56
X61.59Y-38.92
X61.59Y-57.97
X61.59Y-77.02
T3
G00X61.35Y-14.4
M15
G01X62.65Y-14.4
M16
G05
G00X61.35Y-25.6
M15
G01X62.65Y-25.6
M16
G05
M30
