%TF.GenerationSoftware,KiCad,Pcbnew,10.0.5*%
%TF.CreationDate,2026-09-05T17:26:32-04:00*%
%TF.ProjectId,goober,676f6f62-6572-42e6-9b69-6361645f7063,A.1*%
%TF.SameCoordinates,Original*%
%TF.FileFunction,Profile,NP*%
%FSLAX46Y46*%
G04 Gerber Fmt 4.6, Leading zero omitted, Abs format (unit mm)*
G04 Created by KiCad (PCBNEW 10.0.5) date 2026-09-05 17:26:32*
%MOMM*%
%LPD*%
G01*
G04 APERTURE LIST*
%TA.AperFunction,Profile*%
%ADD10C,0.050000*%
%TD*%
%TA.AperFunction,Profile*%
%ADD11C,0.120000*%
%TD*%
G04 APERTURE END LIST*
D10*
X0Y-3000000D02*
G75*
G02*
X2999999Y0I2999998J2D01*
G01*
X0Y-93000000D02*
X0Y-3000000D01*
X3000000Y0D02*
X77000000Y0D01*
X3000000Y-96000000D02*
G75*
G02*
X0Y-93000000I0J3000000D01*
G01*
X77000000Y0D02*
G75*
G02*
X80000000Y-3000000I0J-3000000D01*
G01*
X77000000Y-96000000D02*
X3000000Y-96000000D01*
X80000000Y-3000000D02*
X80000000Y-93000000D01*
X80000000Y-93000000D02*
G75*
G02*
X77000000Y-96000000I-3000000J0D01*
G01*
%TO.C,D6*%
D11*
X57350000Y-68130000D02*
X57350000Y-67429647D01*
X57350000Y-68130000D02*
X57350000Y-68830353D01*
X59050000Y-66630000D02*
X58149647Y-66630000D01*
X59050000Y-66630000D02*
X59950353Y-66630000D01*
X59050000Y-69630000D02*
X58149647Y-69630000D01*
X59050000Y-69630000D02*
X59950353Y-69630000D01*
X60750000Y-68130000D02*
X60750000Y-67429647D01*
X60750000Y-68130000D02*
X60750000Y-68830353D01*
X57306066Y-67273345D02*
G75*
G02*
X57349976Y-67429647I-256066J-156255D01*
G01*
X57306066Y-67273345D02*
G75*
G02*
X57993345Y-66586066I426774J260505D01*
G01*
X57350000Y-68830353D02*
G75*
G02*
X57306065Y-68986654I-299680J-87D01*
G01*
X57993345Y-69673934D02*
G75*
G02*
X57306066Y-68986655I-260505J426774D01*
G01*
X57993345Y-69673934D02*
G75*
G02*
X58149647Y-69630024I156255J-256066D01*
G01*
X58149647Y-66630000D02*
G75*
G02*
X57993344Y-66586067I3J300020D01*
G01*
X59950353Y-69630000D02*
G75*
G02*
X60106655Y-69673934I3J-299992D01*
G01*
X60106655Y-66586066D02*
G75*
G02*
X59950353Y-66630000I-156299J256058D01*
G01*
X60106655Y-66586066D02*
G75*
G02*
X60793934Y-67273345I260503J-426776D01*
G01*
X60750000Y-67429647D02*
G75*
G02*
X60793934Y-67273345I299992J3D01*
G01*
X60793934Y-68986655D02*
G75*
G02*
X60106655Y-69673934I-426776J-260503D01*
G01*
X60793934Y-68986655D02*
G75*
G02*
X60750000Y-68830353I256058J156299D01*
G01*
%TO.C,D4*%
X19250000Y-68130000D02*
X19250000Y-67429647D01*
X19250000Y-68130000D02*
X19250000Y-68830353D01*
X20950000Y-66630000D02*
X20049647Y-66630000D01*
X20950000Y-66630000D02*
X21850353Y-66630000D01*
X20950000Y-69630000D02*
X20049647Y-69630000D01*
X20950000Y-69630000D02*
X21850353Y-69630000D01*
X22650000Y-68130000D02*
X22650000Y-67429647D01*
X22650000Y-68130000D02*
X22650000Y-68830353D01*
X19206066Y-67273345D02*
G75*
G02*
X19249976Y-67429647I-256066J-156255D01*
G01*
X19206066Y-67273345D02*
G75*
G02*
X19893345Y-66586066I426774J260505D01*
G01*
X19250000Y-68830353D02*
G75*
G02*
X19206065Y-68986654I-299680J-87D01*
G01*
X19893345Y-69673934D02*
G75*
G02*
X19206066Y-68986655I-260505J426774D01*
G01*
X19893345Y-69673934D02*
G75*
G02*
X20049647Y-69630024I156255J-256066D01*
G01*
X20049647Y-66630000D02*
G75*
G02*
X19893344Y-66586067I3J300020D01*
G01*
X21850353Y-69630000D02*
G75*
G02*
X22006655Y-69673934I3J-299992D01*
G01*
X22006655Y-66586066D02*
G75*
G02*
X21850353Y-66630000I-156299J256058D01*
G01*
X22006655Y-66586066D02*
G75*
G02*
X22693934Y-67273345I260503J-426776D01*
G01*
X22650000Y-67429647D02*
G75*
G02*
X22693934Y-67273345I299992J3D01*
G01*
X22693934Y-68986655D02*
G75*
G02*
X22006655Y-69673934I-426776J-260503D01*
G01*
X22693934Y-68986655D02*
G75*
G02*
X22650000Y-68830353I256058J156299D01*
G01*
%TO.C,D2*%
X38300000Y-49080000D02*
X38300000Y-48379647D01*
X38300000Y-49080000D02*
X38300000Y-49780353D01*
X40000000Y-47580000D02*
X39099647Y-47580000D01*
X40000000Y-47580000D02*
X40900353Y-47580000D01*
X40000000Y-50580000D02*
X39099647Y-50580000D01*
X40000000Y-50580000D02*
X40900353Y-50580000D01*
X41700000Y-49080000D02*
X41700000Y-48379647D01*
X41700000Y-49080000D02*
X41700000Y-49780353D01*
X38256066Y-48223345D02*
G75*
G02*
X38299976Y-48379647I-256066J-156255D01*
G01*
X38256066Y-48223345D02*
G75*
G02*
X38943345Y-47536066I426774J260505D01*
G01*
X38300000Y-49780353D02*
G75*
G02*
X38256065Y-49936654I-299680J-87D01*
G01*
X38943345Y-50623934D02*
G75*
G02*
X38256066Y-49936655I-260505J426774D01*
G01*
X38943345Y-50623934D02*
G75*
G02*
X39099647Y-50580024I156255J-256066D01*
G01*
X39099647Y-47580000D02*
G75*
G02*
X38943344Y-47536067I3J300020D01*
G01*
X40900353Y-50580000D02*
G75*
G02*
X41056655Y-50623934I3J-299992D01*
G01*
X41056655Y-47536066D02*
G75*
G02*
X40900353Y-47580000I-156299J256058D01*
G01*
X41056655Y-47536066D02*
G75*
G02*
X41743934Y-48223345I260503J-426776D01*
G01*
X41700000Y-48379647D02*
G75*
G02*
X41743934Y-48223345I299992J3D01*
G01*
X41743934Y-49936655D02*
G75*
G02*
X41056655Y-50623934I-426776J-260503D01*
G01*
X41743934Y-49936655D02*
G75*
G02*
X41700000Y-49780353I256058J156299D01*
G01*
%TO.C,D7*%
X19250000Y-87180000D02*
X19250000Y-86479647D01*
X19250000Y-87180000D02*
X19250000Y-87880353D01*
X20950000Y-85680000D02*
X20049647Y-85680000D01*
X20950000Y-85680000D02*
X21850353Y-85680000D01*
X20950000Y-88680000D02*
X20049647Y-88680000D01*
X20950000Y-88680000D02*
X21850353Y-88680000D01*
X22650000Y-87180000D02*
X22650000Y-86479647D01*
X22650000Y-87180000D02*
X22650000Y-87880353D01*
X19206066Y-86323345D02*
G75*
G02*
X19249976Y-86479647I-256066J-156255D01*
G01*
X19206066Y-86323345D02*
G75*
G02*
X19893345Y-85636066I426774J260505D01*
G01*
X19250000Y-87880353D02*
G75*
G02*
X19206065Y-88036654I-299680J-87D01*
G01*
X19893345Y-88723934D02*
G75*
G02*
X19206066Y-88036655I-260505J426774D01*
G01*
X19893345Y-88723934D02*
G75*
G02*
X20049647Y-88680024I156255J-256066D01*
G01*
X20049647Y-85680000D02*
G75*
G02*
X19893344Y-85636067I3J300020D01*
G01*
X21850353Y-88680000D02*
G75*
G02*
X22006655Y-88723934I3J-299992D01*
G01*
X22006655Y-85636066D02*
G75*
G02*
X21850353Y-85680000I-156299J256058D01*
G01*
X22006655Y-85636066D02*
G75*
G02*
X22693934Y-86323345I260503J-426776D01*
G01*
X22650000Y-86479647D02*
G75*
G02*
X22693934Y-86323345I299992J3D01*
G01*
X22693934Y-88036655D02*
G75*
G02*
X22006655Y-88723934I-426776J-260503D01*
G01*
X22693934Y-88036655D02*
G75*
G02*
X22650000Y-87880353I256058J156299D01*
G01*
%TO.C,D8*%
X38300000Y-87180000D02*
X38300000Y-86479647D01*
X38300000Y-87180000D02*
X38300000Y-87880353D01*
X40000000Y-85680000D02*
X39099647Y-85680000D01*
X40000000Y-85680000D02*
X40900353Y-85680000D01*
X40000000Y-88680000D02*
X39099647Y-88680000D01*
X40000000Y-88680000D02*
X40900353Y-88680000D01*
X41700000Y-87180000D02*
X41700000Y-86479647D01*
X41700000Y-87180000D02*
X41700000Y-87880353D01*
X38256066Y-86323345D02*
G75*
G02*
X38299976Y-86479647I-256066J-156255D01*
G01*
X38256066Y-86323345D02*
G75*
G02*
X38943345Y-85636066I426774J260505D01*
G01*
X38300000Y-87880353D02*
G75*
G02*
X38256065Y-88036654I-299680J-87D01*
G01*
X38943345Y-88723934D02*
G75*
G02*
X38256066Y-88036655I-260505J426774D01*
G01*
X38943345Y-88723934D02*
G75*
G02*
X39099647Y-88680024I156255J-256066D01*
G01*
X39099647Y-85680000D02*
G75*
G02*
X38943344Y-85636067I3J300020D01*
G01*
X40900353Y-88680000D02*
G75*
G02*
X41056655Y-88723934I3J-299992D01*
G01*
X41056655Y-85636066D02*
G75*
G02*
X40900353Y-85680000I-156299J256058D01*
G01*
X41056655Y-85636066D02*
G75*
G02*
X41743934Y-86323345I260503J-426776D01*
G01*
X41700000Y-86479647D02*
G75*
G02*
X41743934Y-86323345I299992J3D01*
G01*
X41743934Y-88036655D02*
G75*
G02*
X41056655Y-88723934I-426776J-260503D01*
G01*
X41743934Y-88036655D02*
G75*
G02*
X41700000Y-87880353I256058J156299D01*
G01*
%TO.C,D1*%
X19250000Y-49080000D02*
X19250000Y-48379647D01*
X19250000Y-49080000D02*
X19250000Y-49780353D01*
X20950000Y-47580000D02*
X20049647Y-47580000D01*
X20950000Y-47580000D02*
X21850353Y-47580000D01*
X20950000Y-50580000D02*
X20049647Y-50580000D01*
X20950000Y-50580000D02*
X21850353Y-50580000D01*
X22650000Y-49080000D02*
X22650000Y-48379647D01*
X22650000Y-49080000D02*
X22650000Y-49780353D01*
X19206066Y-48223345D02*
G75*
G02*
X19249976Y-48379647I-256066J-156255D01*
G01*
X19206066Y-48223345D02*
G75*
G02*
X19893345Y-47536066I426774J260505D01*
G01*
X19250000Y-49780353D02*
G75*
G02*
X19206065Y-49936654I-299680J-87D01*
G01*
X19893345Y-50623934D02*
G75*
G02*
X19206066Y-49936655I-260505J426774D01*
G01*
X19893345Y-50623934D02*
G75*
G02*
X20049647Y-50580024I156255J-256066D01*
G01*
X20049647Y-47580000D02*
G75*
G02*
X19893344Y-47536067I3J300020D01*
G01*
X21850353Y-50580000D02*
G75*
G02*
X22006655Y-50623934I3J-299992D01*
G01*
X22006655Y-47536066D02*
G75*
G02*
X21850353Y-47580000I-156299J256058D01*
G01*
X22006655Y-47536066D02*
G75*
G02*
X22693934Y-48223345I260503J-426776D01*
G01*
X22650000Y-48379647D02*
G75*
G02*
X22693934Y-48223345I299992J3D01*
G01*
X22693934Y-49936655D02*
G75*
G02*
X22006655Y-50623934I-426776J-260503D01*
G01*
X22693934Y-49936655D02*
G75*
G02*
X22650000Y-49780353I256058J156299D01*
G01*
%TO.C,D9*%
X57350000Y-87180000D02*
X57350000Y-86479647D01*
X57350000Y-87180000D02*
X57350000Y-87880353D01*
X59050000Y-85680000D02*
X58149647Y-85680000D01*
X59050000Y-85680000D02*
X59950353Y-85680000D01*
X59050000Y-88680000D02*
X58149647Y-88680000D01*
X59050000Y-88680000D02*
X59950353Y-88680000D01*
X60750000Y-87180000D02*
X60750000Y-86479647D01*
X60750000Y-87180000D02*
X60750000Y-87880353D01*
X57306066Y-86323345D02*
G75*
G02*
X57349976Y-86479647I-256066J-156255D01*
G01*
X57306066Y-86323345D02*
G75*
G02*
X57993345Y-85636066I426774J260505D01*
G01*
X57350000Y-87880353D02*
G75*
G02*
X57306065Y-88036654I-299680J-87D01*
G01*
X57993345Y-88723934D02*
G75*
G02*
X57306066Y-88036655I-260505J426774D01*
G01*
X57993345Y-88723934D02*
G75*
G02*
X58149647Y-88680024I156255J-256066D01*
G01*
X58149647Y-85680000D02*
G75*
G02*
X57993344Y-85636067I3J300020D01*
G01*
X59950353Y-88680000D02*
G75*
G02*
X60106655Y-88723934I3J-299992D01*
G01*
X60106655Y-85636066D02*
G75*
G02*
X59950353Y-85680000I-156299J256058D01*
G01*
X60106655Y-85636066D02*
G75*
G02*
X60793934Y-86323345I260503J-426776D01*
G01*
X60750000Y-86479647D02*
G75*
G02*
X60793934Y-86323345I299992J3D01*
G01*
X60793934Y-88036655D02*
G75*
G02*
X60106655Y-88723934I-426776J-260503D01*
G01*
X60793934Y-88036655D02*
G75*
G02*
X60750000Y-87880353I256058J156299D01*
G01*
%TO.C,D3*%
X57350000Y-49080000D02*
X57350000Y-48379647D01*
X57350000Y-49080000D02*
X57350000Y-49780353D01*
X59050000Y-47580000D02*
X58149647Y-47580000D01*
X59050000Y-47580000D02*
X59950353Y-47580000D01*
X59050000Y-50580000D02*
X58149647Y-50580000D01*
X59050000Y-50580000D02*
X59950353Y-50580000D01*
X60750000Y-49080000D02*
X60750000Y-48379647D01*
X60750000Y-49080000D02*
X60750000Y-49780353D01*
X57306066Y-48223345D02*
G75*
G02*
X57349976Y-48379647I-256066J-156255D01*
G01*
X57306066Y-48223345D02*
G75*
G02*
X57993345Y-47536066I426774J260505D01*
G01*
X57350000Y-49780353D02*
G75*
G02*
X57306065Y-49936654I-299680J-87D01*
G01*
X57993345Y-50623934D02*
G75*
G02*
X57306066Y-49936655I-260505J426774D01*
G01*
X57993345Y-50623934D02*
G75*
G02*
X58149647Y-50580024I156255J-256066D01*
G01*
X58149647Y-47580000D02*
G75*
G02*
X57993344Y-47536067I3J300020D01*
G01*
X59950353Y-50580000D02*
G75*
G02*
X60106655Y-50623934I3J-299992D01*
G01*
X60106655Y-47536066D02*
G75*
G02*
X59950353Y-47580000I-156299J256058D01*
G01*
X60106655Y-47536066D02*
G75*
G02*
X60793934Y-48223345I260503J-426776D01*
G01*
X60750000Y-48379647D02*
G75*
G02*
X60793934Y-48223345I299992J3D01*
G01*
X60793934Y-49936655D02*
G75*
G02*
X60106655Y-50623934I-426776J-260503D01*
G01*
X60793934Y-49936655D02*
G75*
G02*
X60750000Y-49780353I256058J156299D01*
G01*
%TO.C,D5*%
X38300000Y-68130000D02*
X38300000Y-67429647D01*
X38300000Y-68130000D02*
X38300000Y-68830353D01*
X40000000Y-66630000D02*
X39099647Y-66630000D01*
X40000000Y-66630000D02*
X40900353Y-66630000D01*
X40000000Y-69630000D02*
X39099647Y-69630000D01*
X40000000Y-69630000D02*
X40900353Y-69630000D01*
X41700000Y-68130000D02*
X41700000Y-67429647D01*
X41700000Y-68130000D02*
X41700000Y-68830353D01*
X38256066Y-67273345D02*
G75*
G02*
X38299976Y-67429647I-256066J-156255D01*
G01*
X38256066Y-67273345D02*
G75*
G02*
X38943345Y-66586066I426774J260505D01*
G01*
X38300000Y-68830353D02*
G75*
G02*
X38256065Y-68986654I-299680J-87D01*
G01*
X38943345Y-69673934D02*
G75*
G02*
X38256066Y-68986655I-260505J426774D01*
G01*
X38943345Y-69673934D02*
G75*
G02*
X39099647Y-69630024I156255J-256066D01*
G01*
X39099647Y-66630000D02*
G75*
G02*
X38943344Y-66586067I3J300020D01*
G01*
X40900353Y-69630000D02*
G75*
G02*
X41056655Y-69673934I3J-299992D01*
G01*
X41056655Y-66586066D02*
G75*
G02*
X40900353Y-66630000I-156299J256058D01*
G01*
X41056655Y-66586066D02*
G75*
G02*
X41743934Y-67273345I260503J-426776D01*
G01*
X41700000Y-67429647D02*
G75*
G02*
X41743934Y-67273345I299992J3D01*
G01*
X41743934Y-68986655D02*
G75*
G02*
X41056655Y-69673934I-426776J-260503D01*
G01*
X41743934Y-68986655D02*
G75*
G02*
X41700000Y-68830353I256058J156299D01*
G01*
%TD*%
M02*
