%TF.GenerationSoftware,KiCad,Pcbnew,10.0.5*%
%TF.CreationDate,2026-09-05T17:26:32-04:00*%
%TF.ProjectId,goober,676f6f62-6572-42e6-9b69-6361645f7063,A.1*%
%TF.SameCoordinates,Original*%
%TF.FileFunction,Legend,Bot*%
%TF.FilePolarity,Positive*%
%FSLAX46Y46*%
G04 Gerber Fmt 4.6, Leading zero omitted, Abs format (unit mm)*
G04 Created by KiCad (PCBNEW 10.0.5) date 2026-09-05 17:26:32*
%MOMM*%
%LPD*%
G01*
G04 APERTURE LIST*
G04 Aperture macros list*
%AMRoundRect*
0 Rectangle with rounded corners*
0 $1 Rounding radius*
0 $2 $3 $4 $5 $6 $7 $8 $9 X,Y pos of 4 corners*
0 Add a 4 corners polygon primitive as box body*
4,1,4,$2,$3,$4,$5,$6,$7,$8,$9,$2,$3,0*
0 Add four circle primitives for the rounded corners*
1,1,$1+$1,$2,$3*
1,1,$1+$1,$4,$5*
1,1,$1+$1,$6,$7*
1,1,$1+$1,$8,$9*
0 Add four rect primitives between the rounded corners*
20,1,$1+$1,$2,$3,$4,$5,0*
20,1,$1+$1,$4,$5,$6,$7,0*
20,1,$1+$1,$6,$7,$8,$9,0*
20,1,$1+$1,$8,$9,$2,$3,0*%
G04 Aperture macros list end*
%ADD10C,0.140000*%
%ADD11C,0.120000*%
%ADD12C,0.150000*%
%ADD13C,2.700000*%
%ADD14R,2.000000X2.000000*%
%ADD15C,2.000000*%
%ADD16R,3.200000X2.000000*%
%ADD17R,1.700000X1.700000*%
%ADD18C,1.700000*%
%ADD19RoundRect,0.250000X0.475000X-0.250000X0.475000X0.250000X-0.475000X0.250000X-0.475000X-0.250000X0*%
%ADD20C,1.750000*%
%ADD21C,3.987800*%
%ADD22C,3.300000*%
%ADD23RoundRect,0.250000X1.025000X1.000000X-1.025000X1.000000X-1.025000X-1.000000X1.025000X-1.000000X0*%
%ADD24RoundRect,0.205000X0.445000X0.205000X-0.445000X0.205000X-0.445000X-0.205000X0.445000X-0.205000X0*%
%ADD25C,1.800000*%
G04 APERTURE END LIST*
D10*
X18671428Y-1300910D02*
X18747618Y-1262815D01*
X18747618Y-1262815D02*
X18861904Y-1262815D01*
X18861904Y-1262815D02*
X18976190Y-1300910D01*
X18976190Y-1300910D02*
X19052380Y-1377100D01*
X19052380Y-1377100D02*
X19090475Y-1453291D01*
X19090475Y-1453291D02*
X19128571Y-1605672D01*
X19128571Y-1605672D02*
X19128571Y-1719958D01*
X19128571Y-1719958D02*
X19090475Y-1872339D01*
X19090475Y-1872339D02*
X19052380Y-1948529D01*
X19052380Y-1948529D02*
X18976190Y-2024720D01*
X18976190Y-2024720D02*
X18861904Y-2062815D01*
X18861904Y-2062815D02*
X18785713Y-2062815D01*
X18785713Y-2062815D02*
X18671428Y-2024720D01*
X18671428Y-2024720D02*
X18633332Y-1986624D01*
X18633332Y-1986624D02*
X18633332Y-1719958D01*
X18633332Y-1719958D02*
X18785713Y-1719958D01*
X18290475Y-2062815D02*
X18290475Y-1262815D01*
X18290475Y-1262815D02*
X17985713Y-1262815D01*
X17985713Y-1262815D02*
X17909523Y-1300910D01*
X17909523Y-1300910D02*
X17871428Y-1339005D01*
X17871428Y-1339005D02*
X17833332Y-1415196D01*
X17833332Y-1415196D02*
X17833332Y-1529481D01*
X17833332Y-1529481D02*
X17871428Y-1605672D01*
X17871428Y-1605672D02*
X17909523Y-1643767D01*
X17909523Y-1643767D02*
X17985713Y-1681862D01*
X17985713Y-1681862D02*
X18290475Y-1681862D01*
X17338094Y-1262815D02*
X17261904Y-1262815D01*
X17261904Y-1262815D02*
X17185713Y-1300910D01*
X17185713Y-1300910D02*
X17147618Y-1339005D01*
X17147618Y-1339005D02*
X17109523Y-1415196D01*
X17109523Y-1415196D02*
X17071428Y-1567577D01*
X17071428Y-1567577D02*
X17071428Y-1758053D01*
X17071428Y-1758053D02*
X17109523Y-1910434D01*
X17109523Y-1910434D02*
X17147618Y-1986624D01*
X17147618Y-1986624D02*
X17185713Y-2024720D01*
X17185713Y-2024720D02*
X17261904Y-2062815D01*
X17261904Y-2062815D02*
X17338094Y-2062815D01*
X17338094Y-2062815D02*
X17414285Y-2024720D01*
X17414285Y-2024720D02*
X17452380Y-1986624D01*
X17452380Y-1986624D02*
X17490475Y-1910434D01*
X17490475Y-1910434D02*
X17528571Y-1758053D01*
X17528571Y-1758053D02*
X17528571Y-1567577D01*
X17528571Y-1567577D02*
X17490475Y-1415196D01*
X17490475Y-1415196D02*
X17452380Y-1339005D01*
X17452380Y-1339005D02*
X17414285Y-1300910D01*
X17414285Y-1300910D02*
X17338094Y-1262815D01*
X38152380Y-1262815D02*
X38533332Y-1262815D01*
X38533332Y-1262815D02*
X38571428Y-1643767D01*
X38571428Y-1643767D02*
X38533332Y-1605672D01*
X38533332Y-1605672D02*
X38457142Y-1567577D01*
X38457142Y-1567577D02*
X38266666Y-1567577D01*
X38266666Y-1567577D02*
X38190475Y-1605672D01*
X38190475Y-1605672D02*
X38152380Y-1643767D01*
X38152380Y-1643767D02*
X38114285Y-1719958D01*
X38114285Y-1719958D02*
X38114285Y-1910434D01*
X38114285Y-1910434D02*
X38152380Y-1986624D01*
X38152380Y-1986624D02*
X38190475Y-2024720D01*
X38190475Y-2024720D02*
X38266666Y-2062815D01*
X38266666Y-2062815D02*
X38457142Y-2062815D01*
X38457142Y-2062815D02*
X38533332Y-2024720D01*
X38533332Y-2024720D02*
X38571428Y-1986624D01*
X37885713Y-1262815D02*
X37619046Y-2062815D01*
X37619046Y-2062815D02*
X37352380Y-1262815D01*
X51409523Y-24362815D02*
X51676190Y-23981862D01*
X51866666Y-24362815D02*
X51866666Y-23562815D01*
X51866666Y-23562815D02*
X51561904Y-23562815D01*
X51561904Y-23562815D02*
X51485714Y-23600910D01*
X51485714Y-23600910D02*
X51447619Y-23639005D01*
X51447619Y-23639005D02*
X51409523Y-23715196D01*
X51409523Y-23715196D02*
X51409523Y-23829481D01*
X51409523Y-23829481D02*
X51447619Y-23905672D01*
X51447619Y-23905672D02*
X51485714Y-23943767D01*
X51485714Y-23943767D02*
X51561904Y-23981862D01*
X51561904Y-23981862D02*
X51866666Y-23981862D01*
X51066666Y-24362815D02*
X51066666Y-23562815D01*
X51066666Y-23562815D02*
X50761904Y-23562815D01*
X50761904Y-23562815D02*
X50685714Y-23600910D01*
X50685714Y-23600910D02*
X50647619Y-23639005D01*
X50647619Y-23639005D02*
X50609523Y-23715196D01*
X50609523Y-23715196D02*
X50609523Y-23829481D01*
X50609523Y-23829481D02*
X50647619Y-23905672D01*
X50647619Y-23905672D02*
X50685714Y-23943767D01*
X50685714Y-23943767D02*
X50761904Y-23981862D01*
X50761904Y-23981862D02*
X51066666Y-23981862D01*
X50304762Y-23639005D02*
X50266666Y-23600910D01*
X50266666Y-23600910D02*
X50190476Y-23562815D01*
X50190476Y-23562815D02*
X50000000Y-23562815D01*
X50000000Y-23562815D02*
X49923809Y-23600910D01*
X49923809Y-23600910D02*
X49885714Y-23639005D01*
X49885714Y-23639005D02*
X49847619Y-23715196D01*
X49847619Y-23715196D02*
X49847619Y-23791386D01*
X49847619Y-23791386D02*
X49885714Y-23905672D01*
X49885714Y-23905672D02*
X50342857Y-24362815D01*
X50342857Y-24362815D02*
X49847619Y-24362815D01*
X49352380Y-23562815D02*
X49276190Y-23562815D01*
X49276190Y-23562815D02*
X49199999Y-23600910D01*
X49199999Y-23600910D02*
X49161904Y-23639005D01*
X49161904Y-23639005D02*
X49123809Y-23715196D01*
X49123809Y-23715196D02*
X49085714Y-23867577D01*
X49085714Y-23867577D02*
X49085714Y-24058053D01*
X49085714Y-24058053D02*
X49123809Y-24210434D01*
X49123809Y-24210434D02*
X49161904Y-24286624D01*
X49161904Y-24286624D02*
X49199999Y-24324720D01*
X49199999Y-24324720D02*
X49276190Y-24362815D01*
X49276190Y-24362815D02*
X49352380Y-24362815D01*
X49352380Y-24362815D02*
X49428571Y-24324720D01*
X49428571Y-24324720D02*
X49466666Y-24286624D01*
X49466666Y-24286624D02*
X49504761Y-24210434D01*
X49504761Y-24210434D02*
X49542857Y-24058053D01*
X49542857Y-24058053D02*
X49542857Y-23867577D01*
X49542857Y-23867577D02*
X49504761Y-23715196D01*
X49504761Y-23715196D02*
X49466666Y-23639005D01*
X49466666Y-23639005D02*
X49428571Y-23600910D01*
X49428571Y-23600910D02*
X49352380Y-23562815D01*
X48399999Y-23829481D02*
X48399999Y-24362815D01*
X48590475Y-23524720D02*
X48780952Y-24096148D01*
X48780952Y-24096148D02*
X48285713Y-24096148D01*
X47828570Y-23562815D02*
X47752380Y-23562815D01*
X47752380Y-23562815D02*
X47676189Y-23600910D01*
X47676189Y-23600910D02*
X47638094Y-23639005D01*
X47638094Y-23639005D02*
X47599999Y-23715196D01*
X47599999Y-23715196D02*
X47561904Y-23867577D01*
X47561904Y-23867577D02*
X47561904Y-24058053D01*
X47561904Y-24058053D02*
X47599999Y-24210434D01*
X47599999Y-24210434D02*
X47638094Y-24286624D01*
X47638094Y-24286624D02*
X47676189Y-24324720D01*
X47676189Y-24324720D02*
X47752380Y-24362815D01*
X47752380Y-24362815D02*
X47828570Y-24362815D01*
X47828570Y-24362815D02*
X47904761Y-24324720D01*
X47904761Y-24324720D02*
X47942856Y-24286624D01*
X47942856Y-24286624D02*
X47980951Y-24210434D01*
X47980951Y-24210434D02*
X48019047Y-24058053D01*
X48019047Y-24058053D02*
X48019047Y-23867577D01*
X48019047Y-23867577D02*
X47980951Y-23715196D01*
X47980951Y-23715196D02*
X47942856Y-23639005D01*
X47942856Y-23639005D02*
X47904761Y-23600910D01*
X47904761Y-23600910D02*
X47828570Y-23562815D01*
X47219046Y-24058053D02*
X46609523Y-24058053D01*
X46304761Y-23562815D02*
X45771427Y-23562815D01*
X45771427Y-23562815D02*
X46304761Y-24362815D01*
X46304761Y-24362815D02*
X45771427Y-24362815D01*
X45466665Y-23943767D02*
X45199999Y-23943767D01*
X45085713Y-24362815D02*
X45466665Y-24362815D01*
X45466665Y-24362815D02*
X45466665Y-23562815D01*
X45466665Y-23562815D02*
X45085713Y-23562815D01*
X44285712Y-24362815D02*
X44552379Y-23981862D01*
X44742855Y-24362815D02*
X44742855Y-23562815D01*
X44742855Y-23562815D02*
X44438093Y-23562815D01*
X44438093Y-23562815D02*
X44361903Y-23600910D01*
X44361903Y-23600910D02*
X44323808Y-23639005D01*
X44323808Y-23639005D02*
X44285712Y-23715196D01*
X44285712Y-23715196D02*
X44285712Y-23829481D01*
X44285712Y-23829481D02*
X44323808Y-23905672D01*
X44323808Y-23905672D02*
X44361903Y-23943767D01*
X44361903Y-23943767D02*
X44438093Y-23981862D01*
X44438093Y-23981862D02*
X44742855Y-23981862D01*
X43790474Y-23562815D02*
X43638093Y-23562815D01*
X43638093Y-23562815D02*
X43561903Y-23600910D01*
X43561903Y-23600910D02*
X43485712Y-23677100D01*
X43485712Y-23677100D02*
X43447617Y-23829481D01*
X43447617Y-23829481D02*
X43447617Y-24096148D01*
X43447617Y-24096148D02*
X43485712Y-24248529D01*
X43485712Y-24248529D02*
X43561903Y-24324720D01*
X43561903Y-24324720D02*
X43638093Y-24362815D01*
X43638093Y-24362815D02*
X43790474Y-24362815D01*
X43790474Y-24362815D02*
X43866665Y-24324720D01*
X43866665Y-24324720D02*
X43942855Y-24248529D01*
X43942855Y-24248529D02*
X43980951Y-24096148D01*
X43980951Y-24096148D02*
X43980951Y-23829481D01*
X43980951Y-23829481D02*
X43942855Y-23677100D01*
X43942855Y-23677100D02*
X43866665Y-23600910D01*
X43866665Y-23600910D02*
X43790474Y-23562815D01*
X43104760Y-24286624D02*
X43066665Y-24324720D01*
X43066665Y-24324720D02*
X43104760Y-24362815D01*
X43104760Y-24362815D02*
X43142856Y-24324720D01*
X43142856Y-24324720D02*
X43104760Y-24286624D01*
X43104760Y-24286624D02*
X43104760Y-24362815D01*
X43104760Y-23867577D02*
X43066665Y-23905672D01*
X43066665Y-23905672D02*
X43104760Y-23943767D01*
X43104760Y-23943767D02*
X43142856Y-23905672D01*
X43142856Y-23905672D02*
X43104760Y-23867577D01*
X43104760Y-23867577D02*
X43104760Y-23943767D01*
X41657141Y-24286624D02*
X41695237Y-24324720D01*
X41695237Y-24324720D02*
X41809522Y-24362815D01*
X41809522Y-24362815D02*
X41885713Y-24362815D01*
X41885713Y-24362815D02*
X41999999Y-24324720D01*
X41999999Y-24324720D02*
X42076189Y-24248529D01*
X42076189Y-24248529D02*
X42114284Y-24172339D01*
X42114284Y-24172339D02*
X42152380Y-24019958D01*
X42152380Y-24019958D02*
X42152380Y-23905672D01*
X42152380Y-23905672D02*
X42114284Y-23753291D01*
X42114284Y-23753291D02*
X42076189Y-23677100D01*
X42076189Y-23677100D02*
X41999999Y-23600910D01*
X41999999Y-23600910D02*
X41885713Y-23562815D01*
X41885713Y-23562815D02*
X41809522Y-23562815D01*
X41809522Y-23562815D02*
X41695237Y-23600910D01*
X41695237Y-23600910D02*
X41657141Y-23639005D01*
X41161903Y-23562815D02*
X41009522Y-23562815D01*
X41009522Y-23562815D02*
X40933332Y-23600910D01*
X40933332Y-23600910D02*
X40857141Y-23677100D01*
X40857141Y-23677100D02*
X40819046Y-23829481D01*
X40819046Y-23829481D02*
X40819046Y-24096148D01*
X40819046Y-24096148D02*
X40857141Y-24248529D01*
X40857141Y-24248529D02*
X40933332Y-24324720D01*
X40933332Y-24324720D02*
X41009522Y-24362815D01*
X41009522Y-24362815D02*
X41161903Y-24362815D01*
X41161903Y-24362815D02*
X41238094Y-24324720D01*
X41238094Y-24324720D02*
X41314284Y-24248529D01*
X41314284Y-24248529D02*
X41352380Y-24096148D01*
X41352380Y-24096148D02*
X41352380Y-23829481D01*
X41352380Y-23829481D02*
X41314284Y-23677100D01*
X41314284Y-23677100D02*
X41238094Y-23600910D01*
X41238094Y-23600910D02*
X41161903Y-23562815D01*
X40476189Y-24362815D02*
X40476189Y-23562815D01*
X40476189Y-23562815D02*
X40209523Y-24134243D01*
X40209523Y-24134243D02*
X39942856Y-23562815D01*
X39942856Y-23562815D02*
X39942856Y-24362815D01*
X39561903Y-24362815D02*
X39561903Y-23562815D01*
X39561903Y-23562815D02*
X39257141Y-23562815D01*
X39257141Y-23562815D02*
X39180951Y-23600910D01*
X39180951Y-23600910D02*
X39142856Y-23639005D01*
X39142856Y-23639005D02*
X39104760Y-23715196D01*
X39104760Y-23715196D02*
X39104760Y-23829481D01*
X39104760Y-23829481D02*
X39142856Y-23905672D01*
X39142856Y-23905672D02*
X39180951Y-23943767D01*
X39180951Y-23943767D02*
X39257141Y-23981862D01*
X39257141Y-23981862D02*
X39561903Y-23981862D01*
X38609522Y-23562815D02*
X38457141Y-23562815D01*
X38457141Y-23562815D02*
X38380951Y-23600910D01*
X38380951Y-23600910D02*
X38304760Y-23677100D01*
X38304760Y-23677100D02*
X38266665Y-23829481D01*
X38266665Y-23829481D02*
X38266665Y-24096148D01*
X38266665Y-24096148D02*
X38304760Y-24248529D01*
X38304760Y-24248529D02*
X38380951Y-24324720D01*
X38380951Y-24324720D02*
X38457141Y-24362815D01*
X38457141Y-24362815D02*
X38609522Y-24362815D01*
X38609522Y-24362815D02*
X38685713Y-24324720D01*
X38685713Y-24324720D02*
X38761903Y-24248529D01*
X38761903Y-24248529D02*
X38799999Y-24096148D01*
X38799999Y-24096148D02*
X38799999Y-23829481D01*
X38799999Y-23829481D02*
X38761903Y-23677100D01*
X38761903Y-23677100D02*
X38685713Y-23600910D01*
X38685713Y-23600910D02*
X38609522Y-23562815D01*
X37923808Y-24362815D02*
X37923808Y-23562815D01*
X37923808Y-23562815D02*
X37466665Y-24362815D01*
X37466665Y-24362815D02*
X37466665Y-23562815D01*
X37085713Y-23943767D02*
X36819047Y-23943767D01*
X36704761Y-24362815D02*
X37085713Y-24362815D01*
X37085713Y-24362815D02*
X37085713Y-23562815D01*
X37085713Y-23562815D02*
X36704761Y-23562815D01*
X36361903Y-24362815D02*
X36361903Y-23562815D01*
X36361903Y-23562815D02*
X35904760Y-24362815D01*
X35904760Y-24362815D02*
X35904760Y-23562815D01*
X35638094Y-23562815D02*
X35180951Y-23562815D01*
X35409523Y-24362815D02*
X35409523Y-23562815D01*
X34952380Y-24324720D02*
X34838094Y-24362815D01*
X34838094Y-24362815D02*
X34647618Y-24362815D01*
X34647618Y-24362815D02*
X34571427Y-24324720D01*
X34571427Y-24324720D02*
X34533332Y-24286624D01*
X34533332Y-24286624D02*
X34495237Y-24210434D01*
X34495237Y-24210434D02*
X34495237Y-24134243D01*
X34495237Y-24134243D02*
X34533332Y-24058053D01*
X34533332Y-24058053D02*
X34571427Y-24019958D01*
X34571427Y-24019958D02*
X34647618Y-23981862D01*
X34647618Y-23981862D02*
X34799999Y-23943767D01*
X34799999Y-23943767D02*
X34876189Y-23905672D01*
X34876189Y-23905672D02*
X34914284Y-23867577D01*
X34914284Y-23867577D02*
X34952380Y-23791386D01*
X34952380Y-23791386D02*
X34952380Y-23715196D01*
X34952380Y-23715196D02*
X34914284Y-23639005D01*
X34914284Y-23639005D02*
X34876189Y-23600910D01*
X34876189Y-23600910D02*
X34799999Y-23562815D01*
X34799999Y-23562815D02*
X34609522Y-23562815D01*
X34609522Y-23562815D02*
X34495237Y-23600910D01*
X33276189Y-23943767D02*
X33542855Y-23943767D01*
X33542855Y-24362815D02*
X33542855Y-23562815D01*
X33542855Y-23562815D02*
X33161903Y-23562815D01*
X32895237Y-24134243D02*
X32514284Y-24134243D01*
X32971427Y-24362815D02*
X32704760Y-23562815D01*
X32704760Y-23562815D02*
X32438094Y-24362815D01*
X31714284Y-24286624D02*
X31752380Y-24324720D01*
X31752380Y-24324720D02*
X31866665Y-24362815D01*
X31866665Y-24362815D02*
X31942856Y-24362815D01*
X31942856Y-24362815D02*
X32057142Y-24324720D01*
X32057142Y-24324720D02*
X32133332Y-24248529D01*
X32133332Y-24248529D02*
X32171427Y-24172339D01*
X32171427Y-24172339D02*
X32209523Y-24019958D01*
X32209523Y-24019958D02*
X32209523Y-23905672D01*
X32209523Y-23905672D02*
X32171427Y-23753291D01*
X32171427Y-23753291D02*
X32133332Y-23677100D01*
X32133332Y-23677100D02*
X32057142Y-23600910D01*
X32057142Y-23600910D02*
X31942856Y-23562815D01*
X31942856Y-23562815D02*
X31866665Y-23562815D01*
X31866665Y-23562815D02*
X31752380Y-23600910D01*
X31752380Y-23600910D02*
X31714284Y-23639005D01*
X31371427Y-23943767D02*
X31104761Y-23943767D01*
X30990475Y-24362815D02*
X31371427Y-24362815D01*
X31371427Y-24362815D02*
X31371427Y-23562815D01*
X31371427Y-23562815D02*
X30990475Y-23562815D01*
X29885712Y-23562815D02*
X29733331Y-23562815D01*
X29733331Y-23562815D02*
X29657141Y-23600910D01*
X29657141Y-23600910D02*
X29580950Y-23677100D01*
X29580950Y-23677100D02*
X29542855Y-23829481D01*
X29542855Y-23829481D02*
X29542855Y-24096148D01*
X29542855Y-24096148D02*
X29580950Y-24248529D01*
X29580950Y-24248529D02*
X29657141Y-24324720D01*
X29657141Y-24324720D02*
X29733331Y-24362815D01*
X29733331Y-24362815D02*
X29885712Y-24362815D01*
X29885712Y-24362815D02*
X29961903Y-24324720D01*
X29961903Y-24324720D02*
X30038093Y-24248529D01*
X30038093Y-24248529D02*
X30076189Y-24096148D01*
X30076189Y-24096148D02*
X30076189Y-23829481D01*
X30076189Y-23829481D02*
X30038093Y-23677100D01*
X30038093Y-23677100D02*
X29961903Y-23600910D01*
X29961903Y-23600910D02*
X29885712Y-23562815D01*
X29199998Y-23562815D02*
X29199998Y-24210434D01*
X29199998Y-24210434D02*
X29161903Y-24286624D01*
X29161903Y-24286624D02*
X29123808Y-24324720D01*
X29123808Y-24324720D02*
X29047617Y-24362815D01*
X29047617Y-24362815D02*
X28895236Y-24362815D01*
X28895236Y-24362815D02*
X28819046Y-24324720D01*
X28819046Y-24324720D02*
X28780951Y-24286624D01*
X28780951Y-24286624D02*
X28742855Y-24210434D01*
X28742855Y-24210434D02*
X28742855Y-23562815D01*
X28476189Y-23562815D02*
X28019046Y-23562815D01*
X28247618Y-24362815D02*
X28247618Y-23562815D01*
X54057144Y-93324720D02*
X53942858Y-93362815D01*
X53942858Y-93362815D02*
X53752382Y-93362815D01*
X53752382Y-93362815D02*
X53676191Y-93324720D01*
X53676191Y-93324720D02*
X53638096Y-93286624D01*
X53638096Y-93286624D02*
X53600001Y-93210434D01*
X53600001Y-93210434D02*
X53600001Y-93134243D01*
X53600001Y-93134243D02*
X53638096Y-93058053D01*
X53638096Y-93058053D02*
X53676191Y-93019958D01*
X53676191Y-93019958D02*
X53752382Y-92981862D01*
X53752382Y-92981862D02*
X53904763Y-92943767D01*
X53904763Y-92943767D02*
X53980953Y-92905672D01*
X53980953Y-92905672D02*
X54019048Y-92867577D01*
X54019048Y-92867577D02*
X54057144Y-92791386D01*
X54057144Y-92791386D02*
X54057144Y-92715196D01*
X54057144Y-92715196D02*
X54019048Y-92639005D01*
X54019048Y-92639005D02*
X53980953Y-92600910D01*
X53980953Y-92600910D02*
X53904763Y-92562815D01*
X53904763Y-92562815D02*
X53714286Y-92562815D01*
X53714286Y-92562815D02*
X53600001Y-92600910D01*
X53257143Y-92562815D02*
X53257143Y-93210434D01*
X53257143Y-93210434D02*
X53219048Y-93286624D01*
X53219048Y-93286624D02*
X53180953Y-93324720D01*
X53180953Y-93324720D02*
X53104762Y-93362815D01*
X53104762Y-93362815D02*
X52952381Y-93362815D01*
X52952381Y-93362815D02*
X52876191Y-93324720D01*
X52876191Y-93324720D02*
X52838096Y-93286624D01*
X52838096Y-93286624D02*
X52800000Y-93210434D01*
X52800000Y-93210434D02*
X52800000Y-92562815D01*
X52419048Y-93362815D02*
X52419048Y-92562815D01*
X52419048Y-92562815D02*
X52114286Y-92562815D01*
X52114286Y-92562815D02*
X52038096Y-92600910D01*
X52038096Y-92600910D02*
X52000001Y-92639005D01*
X52000001Y-92639005D02*
X51961905Y-92715196D01*
X51961905Y-92715196D02*
X51961905Y-92829481D01*
X51961905Y-92829481D02*
X52000001Y-92905672D01*
X52000001Y-92905672D02*
X52038096Y-92943767D01*
X52038096Y-92943767D02*
X52114286Y-92981862D01*
X52114286Y-92981862D02*
X52419048Y-92981862D01*
X51619048Y-93362815D02*
X51619048Y-92562815D01*
X51619048Y-92562815D02*
X51314286Y-92562815D01*
X51314286Y-92562815D02*
X51238096Y-92600910D01*
X51238096Y-92600910D02*
X51200001Y-92639005D01*
X51200001Y-92639005D02*
X51161905Y-92715196D01*
X51161905Y-92715196D02*
X51161905Y-92829481D01*
X51161905Y-92829481D02*
X51200001Y-92905672D01*
X51200001Y-92905672D02*
X51238096Y-92943767D01*
X51238096Y-92943767D02*
X51314286Y-92981862D01*
X51314286Y-92981862D02*
X51619048Y-92981862D01*
X50666667Y-92562815D02*
X50514286Y-92562815D01*
X50514286Y-92562815D02*
X50438096Y-92600910D01*
X50438096Y-92600910D02*
X50361905Y-92677100D01*
X50361905Y-92677100D02*
X50323810Y-92829481D01*
X50323810Y-92829481D02*
X50323810Y-93096148D01*
X50323810Y-93096148D02*
X50361905Y-93248529D01*
X50361905Y-93248529D02*
X50438096Y-93324720D01*
X50438096Y-93324720D02*
X50514286Y-93362815D01*
X50514286Y-93362815D02*
X50666667Y-93362815D01*
X50666667Y-93362815D02*
X50742858Y-93324720D01*
X50742858Y-93324720D02*
X50819048Y-93248529D01*
X50819048Y-93248529D02*
X50857144Y-93096148D01*
X50857144Y-93096148D02*
X50857144Y-92829481D01*
X50857144Y-92829481D02*
X50819048Y-92677100D01*
X50819048Y-92677100D02*
X50742858Y-92600910D01*
X50742858Y-92600910D02*
X50666667Y-92562815D01*
X49523810Y-93362815D02*
X49790477Y-92981862D01*
X49980953Y-93362815D02*
X49980953Y-92562815D01*
X49980953Y-92562815D02*
X49676191Y-92562815D01*
X49676191Y-92562815D02*
X49600001Y-92600910D01*
X49600001Y-92600910D02*
X49561906Y-92639005D01*
X49561906Y-92639005D02*
X49523810Y-92715196D01*
X49523810Y-92715196D02*
X49523810Y-92829481D01*
X49523810Y-92829481D02*
X49561906Y-92905672D01*
X49561906Y-92905672D02*
X49600001Y-92943767D01*
X49600001Y-92943767D02*
X49676191Y-92981862D01*
X49676191Y-92981862D02*
X49980953Y-92981862D01*
X49295239Y-92562815D02*
X48838096Y-92562815D01*
X49066668Y-93362815D02*
X49066668Y-92562815D01*
X48000001Y-93324720D02*
X47885715Y-93362815D01*
X47885715Y-93362815D02*
X47695239Y-93362815D01*
X47695239Y-93362815D02*
X47619048Y-93324720D01*
X47619048Y-93324720D02*
X47580953Y-93286624D01*
X47580953Y-93286624D02*
X47542858Y-93210434D01*
X47542858Y-93210434D02*
X47542858Y-93134243D01*
X47542858Y-93134243D02*
X47580953Y-93058053D01*
X47580953Y-93058053D02*
X47619048Y-93019958D01*
X47619048Y-93019958D02*
X47695239Y-92981862D01*
X47695239Y-92981862D02*
X47847620Y-92943767D01*
X47847620Y-92943767D02*
X47923810Y-92905672D01*
X47923810Y-92905672D02*
X47961905Y-92867577D01*
X47961905Y-92867577D02*
X48000001Y-92791386D01*
X48000001Y-92791386D02*
X48000001Y-92715196D01*
X48000001Y-92715196D02*
X47961905Y-92639005D01*
X47961905Y-92639005D02*
X47923810Y-92600910D01*
X47923810Y-92600910D02*
X47847620Y-92562815D01*
X47847620Y-92562815D02*
X47657143Y-92562815D01*
X47657143Y-92562815D02*
X47542858Y-92600910D01*
X47047619Y-92562815D02*
X46895238Y-92562815D01*
X46895238Y-92562815D02*
X46819048Y-92600910D01*
X46819048Y-92600910D02*
X46742857Y-92677100D01*
X46742857Y-92677100D02*
X46704762Y-92829481D01*
X46704762Y-92829481D02*
X46704762Y-93096148D01*
X46704762Y-93096148D02*
X46742857Y-93248529D01*
X46742857Y-93248529D02*
X46819048Y-93324720D01*
X46819048Y-93324720D02*
X46895238Y-93362815D01*
X46895238Y-93362815D02*
X47047619Y-93362815D01*
X47047619Y-93362815D02*
X47123810Y-93324720D01*
X47123810Y-93324720D02*
X47200000Y-93248529D01*
X47200000Y-93248529D02*
X47238096Y-93096148D01*
X47238096Y-93096148D02*
X47238096Y-92829481D01*
X47238096Y-92829481D02*
X47200000Y-92677100D01*
X47200000Y-92677100D02*
X47123810Y-92600910D01*
X47123810Y-92600910D02*
X47047619Y-92562815D01*
X45904762Y-93286624D02*
X45942858Y-93324720D01*
X45942858Y-93324720D02*
X46057143Y-93362815D01*
X46057143Y-93362815D02*
X46133334Y-93362815D01*
X46133334Y-93362815D02*
X46247620Y-93324720D01*
X46247620Y-93324720D02*
X46323810Y-93248529D01*
X46323810Y-93248529D02*
X46361905Y-93172339D01*
X46361905Y-93172339D02*
X46400001Y-93019958D01*
X46400001Y-93019958D02*
X46400001Y-92905672D01*
X46400001Y-92905672D02*
X46361905Y-92753291D01*
X46361905Y-92753291D02*
X46323810Y-92677100D01*
X46323810Y-92677100D02*
X46247620Y-92600910D01*
X46247620Y-92600910D02*
X46133334Y-92562815D01*
X46133334Y-92562815D02*
X46057143Y-92562815D01*
X46057143Y-92562815D02*
X45942858Y-92600910D01*
X45942858Y-92600910D02*
X45904762Y-92639005D01*
X45561905Y-93362815D02*
X45561905Y-92562815D01*
X45104762Y-93362815D02*
X45447620Y-92905672D01*
X45104762Y-92562815D02*
X45561905Y-93019958D01*
X44761905Y-92943767D02*
X44495239Y-92943767D01*
X44380953Y-93362815D02*
X44761905Y-93362815D01*
X44761905Y-93362815D02*
X44761905Y-92562815D01*
X44761905Y-92562815D02*
X44380953Y-92562815D01*
X44152381Y-92562815D02*
X43695238Y-92562815D01*
X43923810Y-93362815D02*
X43923810Y-92562815D01*
X43466667Y-93324720D02*
X43352381Y-93362815D01*
X43352381Y-93362815D02*
X43161905Y-93362815D01*
X43161905Y-93362815D02*
X43085714Y-93324720D01*
X43085714Y-93324720D02*
X43047619Y-93286624D01*
X43047619Y-93286624D02*
X43009524Y-93210434D01*
X43009524Y-93210434D02*
X43009524Y-93134243D01*
X43009524Y-93134243D02*
X43047619Y-93058053D01*
X43047619Y-93058053D02*
X43085714Y-93019958D01*
X43085714Y-93019958D02*
X43161905Y-92981862D01*
X43161905Y-92981862D02*
X43314286Y-92943767D01*
X43314286Y-92943767D02*
X43390476Y-92905672D01*
X43390476Y-92905672D02*
X43428571Y-92867577D01*
X43428571Y-92867577D02*
X43466667Y-92791386D01*
X43466667Y-92791386D02*
X43466667Y-92715196D01*
X43466667Y-92715196D02*
X43428571Y-92639005D01*
X43428571Y-92639005D02*
X43390476Y-92600910D01*
X43390476Y-92600910D02*
X43314286Y-92562815D01*
X43314286Y-92562815D02*
X43123809Y-92562815D01*
X43123809Y-92562815D02*
X43009524Y-92600910D01*
X42133333Y-92562815D02*
X41942857Y-93362815D01*
X41942857Y-93362815D02*
X41790476Y-92791386D01*
X41790476Y-92791386D02*
X41638095Y-93362815D01*
X41638095Y-93362815D02*
X41447619Y-92562815D01*
X41142856Y-93362815D02*
X41142856Y-92562815D01*
X41142856Y-92943767D02*
X40685713Y-92943767D01*
X40685713Y-93362815D02*
X40685713Y-92562815D01*
X40304761Y-92943767D02*
X40038095Y-92943767D01*
X39923809Y-93362815D02*
X40304761Y-93362815D01*
X40304761Y-93362815D02*
X40304761Y-92562815D01*
X40304761Y-92562815D02*
X39923809Y-92562815D01*
X39580951Y-93362815D02*
X39580951Y-92562815D01*
X39580951Y-92562815D02*
X39123808Y-93362815D01*
X39123808Y-93362815D02*
X39123808Y-92562815D01*
X38133332Y-93362815D02*
X38133332Y-92562815D01*
X37752380Y-93362815D02*
X37752380Y-92562815D01*
X37752380Y-92562815D02*
X37295237Y-93362815D01*
X37295237Y-93362815D02*
X37295237Y-92562815D01*
X36952381Y-93324720D02*
X36838095Y-93362815D01*
X36838095Y-93362815D02*
X36647619Y-93362815D01*
X36647619Y-93362815D02*
X36571428Y-93324720D01*
X36571428Y-93324720D02*
X36533333Y-93286624D01*
X36533333Y-93286624D02*
X36495238Y-93210434D01*
X36495238Y-93210434D02*
X36495238Y-93134243D01*
X36495238Y-93134243D02*
X36533333Y-93058053D01*
X36533333Y-93058053D02*
X36571428Y-93019958D01*
X36571428Y-93019958D02*
X36647619Y-92981862D01*
X36647619Y-92981862D02*
X36800000Y-92943767D01*
X36800000Y-92943767D02*
X36876190Y-92905672D01*
X36876190Y-92905672D02*
X36914285Y-92867577D01*
X36914285Y-92867577D02*
X36952381Y-92791386D01*
X36952381Y-92791386D02*
X36952381Y-92715196D01*
X36952381Y-92715196D02*
X36914285Y-92639005D01*
X36914285Y-92639005D02*
X36876190Y-92600910D01*
X36876190Y-92600910D02*
X36800000Y-92562815D01*
X36800000Y-92562815D02*
X36609523Y-92562815D01*
X36609523Y-92562815D02*
X36495238Y-92600910D01*
X36152380Y-92943767D02*
X35885714Y-92943767D01*
X35771428Y-93362815D02*
X36152380Y-93362815D01*
X36152380Y-93362815D02*
X36152380Y-92562815D01*
X36152380Y-92562815D02*
X35771428Y-92562815D01*
X34971427Y-93362815D02*
X35238094Y-92981862D01*
X35428570Y-93362815D02*
X35428570Y-92562815D01*
X35428570Y-92562815D02*
X35123808Y-92562815D01*
X35123808Y-92562815D02*
X35047618Y-92600910D01*
X35047618Y-92600910D02*
X35009523Y-92639005D01*
X35009523Y-92639005D02*
X34971427Y-92715196D01*
X34971427Y-92715196D02*
X34971427Y-92829481D01*
X34971427Y-92829481D02*
X35009523Y-92905672D01*
X35009523Y-92905672D02*
X35047618Y-92943767D01*
X35047618Y-92943767D02*
X35123808Y-92981862D01*
X35123808Y-92981862D02*
X35428570Y-92981862D01*
X34742856Y-92562815D02*
X34285713Y-92562815D01*
X34514285Y-93362815D02*
X34514285Y-92562815D01*
X34019046Y-93362815D02*
X34019046Y-92562815D01*
X33638094Y-93362815D02*
X33638094Y-92562815D01*
X33638094Y-92562815D02*
X33180951Y-93362815D01*
X33180951Y-93362815D02*
X33180951Y-92562815D01*
X32380952Y-92600910D02*
X32457142Y-92562815D01*
X32457142Y-92562815D02*
X32571428Y-92562815D01*
X32571428Y-92562815D02*
X32685714Y-92600910D01*
X32685714Y-92600910D02*
X32761904Y-92677100D01*
X32761904Y-92677100D02*
X32799999Y-92753291D01*
X32799999Y-92753291D02*
X32838095Y-92905672D01*
X32838095Y-92905672D02*
X32838095Y-93019958D01*
X32838095Y-93019958D02*
X32799999Y-93172339D01*
X32799999Y-93172339D02*
X32761904Y-93248529D01*
X32761904Y-93248529D02*
X32685714Y-93324720D01*
X32685714Y-93324720D02*
X32571428Y-93362815D01*
X32571428Y-93362815D02*
X32495237Y-93362815D01*
X32495237Y-93362815D02*
X32380952Y-93324720D01*
X32380952Y-93324720D02*
X32342856Y-93286624D01*
X32342856Y-93286624D02*
X32342856Y-93019958D01*
X32342856Y-93019958D02*
X32495237Y-93019958D01*
X31428571Y-93324720D02*
X31314285Y-93362815D01*
X31314285Y-93362815D02*
X31123809Y-93362815D01*
X31123809Y-93362815D02*
X31047618Y-93324720D01*
X31047618Y-93324720D02*
X31009523Y-93286624D01*
X31009523Y-93286624D02*
X30971428Y-93210434D01*
X30971428Y-93210434D02*
X30971428Y-93134243D01*
X30971428Y-93134243D02*
X31009523Y-93058053D01*
X31009523Y-93058053D02*
X31047618Y-93019958D01*
X31047618Y-93019958D02*
X31123809Y-92981862D01*
X31123809Y-92981862D02*
X31276190Y-92943767D01*
X31276190Y-92943767D02*
X31352380Y-92905672D01*
X31352380Y-92905672D02*
X31390475Y-92867577D01*
X31390475Y-92867577D02*
X31428571Y-92791386D01*
X31428571Y-92791386D02*
X31428571Y-92715196D01*
X31428571Y-92715196D02*
X31390475Y-92639005D01*
X31390475Y-92639005D02*
X31352380Y-92600910D01*
X31352380Y-92600910D02*
X31276190Y-92562815D01*
X31276190Y-92562815D02*
X31085713Y-92562815D01*
X31085713Y-92562815D02*
X30971428Y-92600910D01*
X30704761Y-92562815D02*
X30514285Y-93362815D01*
X30514285Y-93362815D02*
X30361904Y-92791386D01*
X30361904Y-92791386D02*
X30209523Y-93362815D01*
X30209523Y-93362815D02*
X30019047Y-92562815D01*
X29714284Y-93362815D02*
X29714284Y-92562815D01*
X29447618Y-92562815D02*
X28990475Y-92562815D01*
X29219047Y-93362815D02*
X29219047Y-92562815D01*
X28266665Y-93286624D02*
X28304761Y-93324720D01*
X28304761Y-93324720D02*
X28419046Y-93362815D01*
X28419046Y-93362815D02*
X28495237Y-93362815D01*
X28495237Y-93362815D02*
X28609523Y-93324720D01*
X28609523Y-93324720D02*
X28685713Y-93248529D01*
X28685713Y-93248529D02*
X28723808Y-93172339D01*
X28723808Y-93172339D02*
X28761904Y-93019958D01*
X28761904Y-93019958D02*
X28761904Y-92905672D01*
X28761904Y-92905672D02*
X28723808Y-92753291D01*
X28723808Y-92753291D02*
X28685713Y-92677100D01*
X28685713Y-92677100D02*
X28609523Y-92600910D01*
X28609523Y-92600910D02*
X28495237Y-92562815D01*
X28495237Y-92562815D02*
X28419046Y-92562815D01*
X28419046Y-92562815D02*
X28304761Y-92600910D01*
X28304761Y-92600910D02*
X28266665Y-92639005D01*
X27923808Y-93362815D02*
X27923808Y-92562815D01*
X27923808Y-92943767D02*
X27466665Y-92943767D01*
X27466665Y-93362815D02*
X27466665Y-92562815D01*
X27085713Y-92943767D02*
X26819047Y-92943767D01*
X26704761Y-93362815D02*
X27085713Y-93362815D01*
X27085713Y-93362815D02*
X27085713Y-92562815D01*
X27085713Y-92562815D02*
X26704761Y-92562815D01*
X26399999Y-93324720D02*
X26285713Y-93362815D01*
X26285713Y-93362815D02*
X26095237Y-93362815D01*
X26095237Y-93362815D02*
X26019046Y-93324720D01*
X26019046Y-93324720D02*
X25980951Y-93286624D01*
X25980951Y-93286624D02*
X25942856Y-93210434D01*
X25942856Y-93210434D02*
X25942856Y-93134243D01*
X25942856Y-93134243D02*
X25980951Y-93058053D01*
X25980951Y-93058053D02*
X26019046Y-93019958D01*
X26019046Y-93019958D02*
X26095237Y-92981862D01*
X26095237Y-92981862D02*
X26247618Y-92943767D01*
X26247618Y-92943767D02*
X26323808Y-92905672D01*
X26323808Y-92905672D02*
X26361903Y-92867577D01*
X26361903Y-92867577D02*
X26399999Y-92791386D01*
X26399999Y-92791386D02*
X26399999Y-92715196D01*
X26399999Y-92715196D02*
X26361903Y-92639005D01*
X26361903Y-92639005D02*
X26323808Y-92600910D01*
X26323808Y-92600910D02*
X26247618Y-92562815D01*
X26247618Y-92562815D02*
X26057141Y-92562815D01*
X26057141Y-92562815D02*
X25942856Y-92600910D01*
D11*
X28917664Y-68716667D02*
X28955760Y-68678571D01*
X28955760Y-68678571D02*
X28993855Y-68564286D01*
X28993855Y-68564286D02*
X28993855Y-68488095D01*
X28993855Y-68488095D02*
X28955760Y-68373809D01*
X28955760Y-68373809D02*
X28879569Y-68297619D01*
X28879569Y-68297619D02*
X28803379Y-68259524D01*
X28803379Y-68259524D02*
X28650998Y-68221428D01*
X28650998Y-68221428D02*
X28536712Y-68221428D01*
X28536712Y-68221428D02*
X28384331Y-68259524D01*
X28384331Y-68259524D02*
X28308140Y-68297619D01*
X28308140Y-68297619D02*
X28231950Y-68373809D01*
X28231950Y-68373809D02*
X28193855Y-68488095D01*
X28193855Y-68488095D02*
X28193855Y-68564286D01*
X28193855Y-68564286D02*
X28231950Y-68678571D01*
X28231950Y-68678571D02*
X28270045Y-68716667D01*
X28460521Y-69402381D02*
X28993855Y-69402381D01*
X28155760Y-69211905D02*
X28727188Y-69021428D01*
X28727188Y-69021428D02*
X28727188Y-69516667D01*
X64366667Y-61625760D02*
X64252381Y-61663855D01*
X64252381Y-61663855D02*
X64061905Y-61663855D01*
X64061905Y-61663855D02*
X63985714Y-61625760D01*
X63985714Y-61625760D02*
X63947619Y-61587664D01*
X63947619Y-61587664D02*
X63909524Y-61511474D01*
X63909524Y-61511474D02*
X63909524Y-61435283D01*
X63909524Y-61435283D02*
X63947619Y-61359093D01*
X63947619Y-61359093D02*
X63985714Y-61320998D01*
X63985714Y-61320998D02*
X64061905Y-61282902D01*
X64061905Y-61282902D02*
X64214286Y-61244807D01*
X64214286Y-61244807D02*
X64290476Y-61206712D01*
X64290476Y-61206712D02*
X64328571Y-61168617D01*
X64328571Y-61168617D02*
X64366667Y-61092426D01*
X64366667Y-61092426D02*
X64366667Y-61016236D01*
X64366667Y-61016236D02*
X64328571Y-60940045D01*
X64328571Y-60940045D02*
X64290476Y-60901950D01*
X64290476Y-60901950D02*
X64214286Y-60863855D01*
X64214286Y-60863855D02*
X64023809Y-60863855D01*
X64023809Y-60863855D02*
X63909524Y-60901950D01*
X63642857Y-60863855D02*
X63452381Y-61663855D01*
X63452381Y-61663855D02*
X63300000Y-61092426D01*
X63300000Y-61092426D02*
X63147619Y-61663855D01*
X63147619Y-61663855D02*
X62957143Y-60863855D01*
X62309523Y-60863855D02*
X62461904Y-60863855D01*
X62461904Y-60863855D02*
X62538095Y-60901950D01*
X62538095Y-60901950D02*
X62576190Y-60940045D01*
X62576190Y-60940045D02*
X62652380Y-61054331D01*
X62652380Y-61054331D02*
X62690476Y-61206712D01*
X62690476Y-61206712D02*
X62690476Y-61511474D01*
X62690476Y-61511474D02*
X62652380Y-61587664D01*
X62652380Y-61587664D02*
X62614285Y-61625760D01*
X62614285Y-61625760D02*
X62538095Y-61663855D01*
X62538095Y-61663855D02*
X62385714Y-61663855D01*
X62385714Y-61663855D02*
X62309523Y-61625760D01*
X62309523Y-61625760D02*
X62271428Y-61587664D01*
X62271428Y-61587664D02*
X62233333Y-61511474D01*
X62233333Y-61511474D02*
X62233333Y-61320998D01*
X62233333Y-61320998D02*
X62271428Y-61244807D01*
X62271428Y-61244807D02*
X62309523Y-61206712D01*
X62309523Y-61206712D02*
X62385714Y-61168617D01*
X62385714Y-61168617D02*
X62538095Y-61168617D01*
X62538095Y-61168617D02*
X62614285Y-61206712D01*
X62614285Y-61206712D02*
X62652380Y-61244807D01*
X62652380Y-61244807D02*
X62690476Y-61320998D01*
X59640475Y-71493855D02*
X59640475Y-70693855D01*
X59640475Y-70693855D02*
X59449999Y-70693855D01*
X59449999Y-70693855D02*
X59335713Y-70731950D01*
X59335713Y-70731950D02*
X59259523Y-70808140D01*
X59259523Y-70808140D02*
X59221428Y-70884331D01*
X59221428Y-70884331D02*
X59183332Y-71036712D01*
X59183332Y-71036712D02*
X59183332Y-71150998D01*
X59183332Y-71150998D02*
X59221428Y-71303379D01*
X59221428Y-71303379D02*
X59259523Y-71379569D01*
X59259523Y-71379569D02*
X59335713Y-71455760D01*
X59335713Y-71455760D02*
X59449999Y-71493855D01*
X59449999Y-71493855D02*
X59640475Y-71493855D01*
X58497618Y-70693855D02*
X58649999Y-70693855D01*
X58649999Y-70693855D02*
X58726190Y-70731950D01*
X58726190Y-70731950D02*
X58764285Y-70770045D01*
X58764285Y-70770045D02*
X58840475Y-70884331D01*
X58840475Y-70884331D02*
X58878571Y-71036712D01*
X58878571Y-71036712D02*
X58878571Y-71341474D01*
X58878571Y-71341474D02*
X58840475Y-71417664D01*
X58840475Y-71417664D02*
X58802380Y-71455760D01*
X58802380Y-71455760D02*
X58726190Y-71493855D01*
X58726190Y-71493855D02*
X58573809Y-71493855D01*
X58573809Y-71493855D02*
X58497618Y-71455760D01*
X58497618Y-71455760D02*
X58459523Y-71417664D01*
X58459523Y-71417664D02*
X58421428Y-71341474D01*
X58421428Y-71341474D02*
X58421428Y-71150998D01*
X58421428Y-71150998D02*
X58459523Y-71074807D01*
X58459523Y-71074807D02*
X58497618Y-71036712D01*
X58497618Y-71036712D02*
X58573809Y-70998617D01*
X58573809Y-70998617D02*
X58726190Y-70998617D01*
X58726190Y-70998617D02*
X58802380Y-71036712D01*
X58802380Y-71036712D02*
X58840475Y-71074807D01*
X58840475Y-71074807D02*
X58878571Y-71150998D01*
X28917664Y-87766667D02*
X28955760Y-87728571D01*
X28955760Y-87728571D02*
X28993855Y-87614286D01*
X28993855Y-87614286D02*
X28993855Y-87538095D01*
X28993855Y-87538095D02*
X28955760Y-87423809D01*
X28955760Y-87423809D02*
X28879569Y-87347619D01*
X28879569Y-87347619D02*
X28803379Y-87309524D01*
X28803379Y-87309524D02*
X28650998Y-87271428D01*
X28650998Y-87271428D02*
X28536712Y-87271428D01*
X28536712Y-87271428D02*
X28384331Y-87309524D01*
X28384331Y-87309524D02*
X28308140Y-87347619D01*
X28308140Y-87347619D02*
X28231950Y-87423809D01*
X28231950Y-87423809D02*
X28193855Y-87538095D01*
X28193855Y-87538095D02*
X28193855Y-87614286D01*
X28193855Y-87614286D02*
X28231950Y-87728571D01*
X28231950Y-87728571D02*
X28270045Y-87766667D01*
X28193855Y-88033333D02*
X28193855Y-88566667D01*
X28193855Y-88566667D02*
X28993855Y-88223809D01*
X47967664Y-87766667D02*
X48005760Y-87728571D01*
X48005760Y-87728571D02*
X48043855Y-87614286D01*
X48043855Y-87614286D02*
X48043855Y-87538095D01*
X48043855Y-87538095D02*
X48005760Y-87423809D01*
X48005760Y-87423809D02*
X47929569Y-87347619D01*
X47929569Y-87347619D02*
X47853379Y-87309524D01*
X47853379Y-87309524D02*
X47700998Y-87271428D01*
X47700998Y-87271428D02*
X47586712Y-87271428D01*
X47586712Y-87271428D02*
X47434331Y-87309524D01*
X47434331Y-87309524D02*
X47358140Y-87347619D01*
X47358140Y-87347619D02*
X47281950Y-87423809D01*
X47281950Y-87423809D02*
X47243855Y-87538095D01*
X47243855Y-87538095D02*
X47243855Y-87614286D01*
X47243855Y-87614286D02*
X47281950Y-87728571D01*
X47281950Y-87728571D02*
X47320045Y-87766667D01*
X47586712Y-88223809D02*
X47548617Y-88147619D01*
X47548617Y-88147619D02*
X47510521Y-88109524D01*
X47510521Y-88109524D02*
X47434331Y-88071428D01*
X47434331Y-88071428D02*
X47396236Y-88071428D01*
X47396236Y-88071428D02*
X47320045Y-88109524D01*
X47320045Y-88109524D02*
X47281950Y-88147619D01*
X47281950Y-88147619D02*
X47243855Y-88223809D01*
X47243855Y-88223809D02*
X47243855Y-88376190D01*
X47243855Y-88376190D02*
X47281950Y-88452381D01*
X47281950Y-88452381D02*
X47320045Y-88490476D01*
X47320045Y-88490476D02*
X47396236Y-88528571D01*
X47396236Y-88528571D02*
X47434331Y-88528571D01*
X47434331Y-88528571D02*
X47510521Y-88490476D01*
X47510521Y-88490476D02*
X47548617Y-88452381D01*
X47548617Y-88452381D02*
X47586712Y-88376190D01*
X47586712Y-88376190D02*
X47586712Y-88223809D01*
X47586712Y-88223809D02*
X47624807Y-88147619D01*
X47624807Y-88147619D02*
X47662902Y-88109524D01*
X47662902Y-88109524D02*
X47739093Y-88071428D01*
X47739093Y-88071428D02*
X47891474Y-88071428D01*
X47891474Y-88071428D02*
X47967664Y-88109524D01*
X47967664Y-88109524D02*
X48005760Y-88147619D01*
X48005760Y-88147619D02*
X48043855Y-88223809D01*
X48043855Y-88223809D02*
X48043855Y-88376190D01*
X48043855Y-88376190D02*
X48005760Y-88452381D01*
X48005760Y-88452381D02*
X47967664Y-88490476D01*
X47967664Y-88490476D02*
X47891474Y-88528571D01*
X47891474Y-88528571D02*
X47739093Y-88528571D01*
X47739093Y-88528571D02*
X47662902Y-88490476D01*
X47662902Y-88490476D02*
X47624807Y-88452381D01*
X47624807Y-88452381D02*
X47586712Y-88376190D01*
X21540475Y-71493855D02*
X21540475Y-70693855D01*
X21540475Y-70693855D02*
X21349999Y-70693855D01*
X21349999Y-70693855D02*
X21235713Y-70731950D01*
X21235713Y-70731950D02*
X21159523Y-70808140D01*
X21159523Y-70808140D02*
X21121428Y-70884331D01*
X21121428Y-70884331D02*
X21083332Y-71036712D01*
X21083332Y-71036712D02*
X21083332Y-71150998D01*
X21083332Y-71150998D02*
X21121428Y-71303379D01*
X21121428Y-71303379D02*
X21159523Y-71379569D01*
X21159523Y-71379569D02*
X21235713Y-71455760D01*
X21235713Y-71455760D02*
X21349999Y-71493855D01*
X21349999Y-71493855D02*
X21540475Y-71493855D01*
X20397618Y-70960521D02*
X20397618Y-71493855D01*
X20588094Y-70655760D02*
X20778571Y-71227188D01*
X20778571Y-71227188D02*
X20283332Y-71227188D01*
X26266667Y-80675760D02*
X26152381Y-80713855D01*
X26152381Y-80713855D02*
X25961905Y-80713855D01*
X25961905Y-80713855D02*
X25885714Y-80675760D01*
X25885714Y-80675760D02*
X25847619Y-80637664D01*
X25847619Y-80637664D02*
X25809524Y-80561474D01*
X25809524Y-80561474D02*
X25809524Y-80485283D01*
X25809524Y-80485283D02*
X25847619Y-80409093D01*
X25847619Y-80409093D02*
X25885714Y-80370998D01*
X25885714Y-80370998D02*
X25961905Y-80332902D01*
X25961905Y-80332902D02*
X26114286Y-80294807D01*
X26114286Y-80294807D02*
X26190476Y-80256712D01*
X26190476Y-80256712D02*
X26228571Y-80218617D01*
X26228571Y-80218617D02*
X26266667Y-80142426D01*
X26266667Y-80142426D02*
X26266667Y-80066236D01*
X26266667Y-80066236D02*
X26228571Y-79990045D01*
X26228571Y-79990045D02*
X26190476Y-79951950D01*
X26190476Y-79951950D02*
X26114286Y-79913855D01*
X26114286Y-79913855D02*
X25923809Y-79913855D01*
X25923809Y-79913855D02*
X25809524Y-79951950D01*
X25542857Y-79913855D02*
X25352381Y-80713855D01*
X25352381Y-80713855D02*
X25200000Y-80142426D01*
X25200000Y-80142426D02*
X25047619Y-80713855D01*
X25047619Y-80713855D02*
X24857143Y-79913855D01*
X24628571Y-79913855D02*
X24095237Y-79913855D01*
X24095237Y-79913855D02*
X24438095Y-80713855D01*
X40590475Y-52443855D02*
X40590475Y-51643855D01*
X40590475Y-51643855D02*
X40399999Y-51643855D01*
X40399999Y-51643855D02*
X40285713Y-51681950D01*
X40285713Y-51681950D02*
X40209523Y-51758140D01*
X40209523Y-51758140D02*
X40171428Y-51834331D01*
X40171428Y-51834331D02*
X40133332Y-51986712D01*
X40133332Y-51986712D02*
X40133332Y-52100998D01*
X40133332Y-52100998D02*
X40171428Y-52253379D01*
X40171428Y-52253379D02*
X40209523Y-52329569D01*
X40209523Y-52329569D02*
X40285713Y-52405760D01*
X40285713Y-52405760D02*
X40399999Y-52443855D01*
X40399999Y-52443855D02*
X40590475Y-52443855D01*
X39828571Y-51720045D02*
X39790475Y-51681950D01*
X39790475Y-51681950D02*
X39714285Y-51643855D01*
X39714285Y-51643855D02*
X39523809Y-51643855D01*
X39523809Y-51643855D02*
X39447618Y-51681950D01*
X39447618Y-51681950D02*
X39409523Y-51720045D01*
X39409523Y-51720045D02*
X39371428Y-51796236D01*
X39371428Y-51796236D02*
X39371428Y-51872426D01*
X39371428Y-51872426D02*
X39409523Y-51986712D01*
X39409523Y-51986712D02*
X39866666Y-52443855D01*
X39866666Y-52443855D02*
X39371428Y-52443855D01*
X21540475Y-90543855D02*
X21540475Y-89743855D01*
X21540475Y-89743855D02*
X21349999Y-89743855D01*
X21349999Y-89743855D02*
X21235713Y-89781950D01*
X21235713Y-89781950D02*
X21159523Y-89858140D01*
X21159523Y-89858140D02*
X21121428Y-89934331D01*
X21121428Y-89934331D02*
X21083332Y-90086712D01*
X21083332Y-90086712D02*
X21083332Y-90200998D01*
X21083332Y-90200998D02*
X21121428Y-90353379D01*
X21121428Y-90353379D02*
X21159523Y-90429569D01*
X21159523Y-90429569D02*
X21235713Y-90505760D01*
X21235713Y-90505760D02*
X21349999Y-90543855D01*
X21349999Y-90543855D02*
X21540475Y-90543855D01*
X20816666Y-89743855D02*
X20283332Y-89743855D01*
X20283332Y-89743855D02*
X20626190Y-90543855D01*
X26266667Y-61625760D02*
X26152381Y-61663855D01*
X26152381Y-61663855D02*
X25961905Y-61663855D01*
X25961905Y-61663855D02*
X25885714Y-61625760D01*
X25885714Y-61625760D02*
X25847619Y-61587664D01*
X25847619Y-61587664D02*
X25809524Y-61511474D01*
X25809524Y-61511474D02*
X25809524Y-61435283D01*
X25809524Y-61435283D02*
X25847619Y-61359093D01*
X25847619Y-61359093D02*
X25885714Y-61320998D01*
X25885714Y-61320998D02*
X25961905Y-61282902D01*
X25961905Y-61282902D02*
X26114286Y-61244807D01*
X26114286Y-61244807D02*
X26190476Y-61206712D01*
X26190476Y-61206712D02*
X26228571Y-61168617D01*
X26228571Y-61168617D02*
X26266667Y-61092426D01*
X26266667Y-61092426D02*
X26266667Y-61016236D01*
X26266667Y-61016236D02*
X26228571Y-60940045D01*
X26228571Y-60940045D02*
X26190476Y-60901950D01*
X26190476Y-60901950D02*
X26114286Y-60863855D01*
X26114286Y-60863855D02*
X25923809Y-60863855D01*
X25923809Y-60863855D02*
X25809524Y-60901950D01*
X25542857Y-60863855D02*
X25352381Y-61663855D01*
X25352381Y-61663855D02*
X25200000Y-61092426D01*
X25200000Y-61092426D02*
X25047619Y-61663855D01*
X25047619Y-61663855D02*
X24857143Y-60863855D01*
X24209523Y-61130521D02*
X24209523Y-61663855D01*
X24399999Y-60825760D02*
X24590476Y-61397188D01*
X24590476Y-61397188D02*
X24095237Y-61397188D01*
X47967664Y-49666667D02*
X48005760Y-49628571D01*
X48005760Y-49628571D02*
X48043855Y-49514286D01*
X48043855Y-49514286D02*
X48043855Y-49438095D01*
X48043855Y-49438095D02*
X48005760Y-49323809D01*
X48005760Y-49323809D02*
X47929569Y-49247619D01*
X47929569Y-49247619D02*
X47853379Y-49209524D01*
X47853379Y-49209524D02*
X47700998Y-49171428D01*
X47700998Y-49171428D02*
X47586712Y-49171428D01*
X47586712Y-49171428D02*
X47434331Y-49209524D01*
X47434331Y-49209524D02*
X47358140Y-49247619D01*
X47358140Y-49247619D02*
X47281950Y-49323809D01*
X47281950Y-49323809D02*
X47243855Y-49438095D01*
X47243855Y-49438095D02*
X47243855Y-49514286D01*
X47243855Y-49514286D02*
X47281950Y-49628571D01*
X47281950Y-49628571D02*
X47320045Y-49666667D01*
X47320045Y-49971428D02*
X47281950Y-50009524D01*
X47281950Y-50009524D02*
X47243855Y-50085714D01*
X47243855Y-50085714D02*
X47243855Y-50276190D01*
X47243855Y-50276190D02*
X47281950Y-50352381D01*
X47281950Y-50352381D02*
X47320045Y-50390476D01*
X47320045Y-50390476D02*
X47396236Y-50428571D01*
X47396236Y-50428571D02*
X47472426Y-50428571D01*
X47472426Y-50428571D02*
X47586712Y-50390476D01*
X47586712Y-50390476D02*
X48043855Y-49933333D01*
X48043855Y-49933333D02*
X48043855Y-50428571D01*
X40590475Y-90543855D02*
X40590475Y-89743855D01*
X40590475Y-89743855D02*
X40399999Y-89743855D01*
X40399999Y-89743855D02*
X40285713Y-89781950D01*
X40285713Y-89781950D02*
X40209523Y-89858140D01*
X40209523Y-89858140D02*
X40171428Y-89934331D01*
X40171428Y-89934331D02*
X40133332Y-90086712D01*
X40133332Y-90086712D02*
X40133332Y-90200998D01*
X40133332Y-90200998D02*
X40171428Y-90353379D01*
X40171428Y-90353379D02*
X40209523Y-90429569D01*
X40209523Y-90429569D02*
X40285713Y-90505760D01*
X40285713Y-90505760D02*
X40399999Y-90543855D01*
X40399999Y-90543855D02*
X40590475Y-90543855D01*
X39676190Y-90086712D02*
X39752380Y-90048617D01*
X39752380Y-90048617D02*
X39790475Y-90010521D01*
X39790475Y-90010521D02*
X39828571Y-89934331D01*
X39828571Y-89934331D02*
X39828571Y-89896236D01*
X39828571Y-89896236D02*
X39790475Y-89820045D01*
X39790475Y-89820045D02*
X39752380Y-89781950D01*
X39752380Y-89781950D02*
X39676190Y-89743855D01*
X39676190Y-89743855D02*
X39523809Y-89743855D01*
X39523809Y-89743855D02*
X39447618Y-89781950D01*
X39447618Y-89781950D02*
X39409523Y-89820045D01*
X39409523Y-89820045D02*
X39371428Y-89896236D01*
X39371428Y-89896236D02*
X39371428Y-89934331D01*
X39371428Y-89934331D02*
X39409523Y-90010521D01*
X39409523Y-90010521D02*
X39447618Y-90048617D01*
X39447618Y-90048617D02*
X39523809Y-90086712D01*
X39523809Y-90086712D02*
X39676190Y-90086712D01*
X39676190Y-90086712D02*
X39752380Y-90124807D01*
X39752380Y-90124807D02*
X39790475Y-90162902D01*
X39790475Y-90162902D02*
X39828571Y-90239093D01*
X39828571Y-90239093D02*
X39828571Y-90391474D01*
X39828571Y-90391474D02*
X39790475Y-90467664D01*
X39790475Y-90467664D02*
X39752380Y-90505760D01*
X39752380Y-90505760D02*
X39676190Y-90543855D01*
X39676190Y-90543855D02*
X39523809Y-90543855D01*
X39523809Y-90543855D02*
X39447618Y-90505760D01*
X39447618Y-90505760D02*
X39409523Y-90467664D01*
X39409523Y-90467664D02*
X39371428Y-90391474D01*
X39371428Y-90391474D02*
X39371428Y-90239093D01*
X39371428Y-90239093D02*
X39409523Y-90162902D01*
X39409523Y-90162902D02*
X39447618Y-90124807D01*
X39447618Y-90124807D02*
X39523809Y-90086712D01*
X47967664Y-68716667D02*
X48005760Y-68678571D01*
X48005760Y-68678571D02*
X48043855Y-68564286D01*
X48043855Y-68564286D02*
X48043855Y-68488095D01*
X48043855Y-68488095D02*
X48005760Y-68373809D01*
X48005760Y-68373809D02*
X47929569Y-68297619D01*
X47929569Y-68297619D02*
X47853379Y-68259524D01*
X47853379Y-68259524D02*
X47700998Y-68221428D01*
X47700998Y-68221428D02*
X47586712Y-68221428D01*
X47586712Y-68221428D02*
X47434331Y-68259524D01*
X47434331Y-68259524D02*
X47358140Y-68297619D01*
X47358140Y-68297619D02*
X47281950Y-68373809D01*
X47281950Y-68373809D02*
X47243855Y-68488095D01*
X47243855Y-68488095D02*
X47243855Y-68564286D01*
X47243855Y-68564286D02*
X47281950Y-68678571D01*
X47281950Y-68678571D02*
X47320045Y-68716667D01*
X47243855Y-69440476D02*
X47243855Y-69059524D01*
X47243855Y-69059524D02*
X47624807Y-69021428D01*
X47624807Y-69021428D02*
X47586712Y-69059524D01*
X47586712Y-69059524D02*
X47548617Y-69135714D01*
X47548617Y-69135714D02*
X47548617Y-69326190D01*
X47548617Y-69326190D02*
X47586712Y-69402381D01*
X47586712Y-69402381D02*
X47624807Y-69440476D01*
X47624807Y-69440476D02*
X47700998Y-69478571D01*
X47700998Y-69478571D02*
X47891474Y-69478571D01*
X47891474Y-69478571D02*
X47967664Y-69440476D01*
X47967664Y-69440476D02*
X48005760Y-69402381D01*
X48005760Y-69402381D02*
X48043855Y-69326190D01*
X48043855Y-69326190D02*
X48043855Y-69135714D01*
X48043855Y-69135714D02*
X48005760Y-69059524D01*
X48005760Y-69059524D02*
X47967664Y-69021428D01*
X21540475Y-52443855D02*
X21540475Y-51643855D01*
X21540475Y-51643855D02*
X21349999Y-51643855D01*
X21349999Y-51643855D02*
X21235713Y-51681950D01*
X21235713Y-51681950D02*
X21159523Y-51758140D01*
X21159523Y-51758140D02*
X21121428Y-51834331D01*
X21121428Y-51834331D02*
X21083332Y-51986712D01*
X21083332Y-51986712D02*
X21083332Y-52100998D01*
X21083332Y-52100998D02*
X21121428Y-52253379D01*
X21121428Y-52253379D02*
X21159523Y-52329569D01*
X21159523Y-52329569D02*
X21235713Y-52405760D01*
X21235713Y-52405760D02*
X21349999Y-52443855D01*
X21349999Y-52443855D02*
X21540475Y-52443855D01*
X20321428Y-52443855D02*
X20778571Y-52443855D01*
X20549999Y-52443855D02*
X20549999Y-51643855D01*
X20549999Y-51643855D02*
X20626190Y-51758140D01*
X20626190Y-51758140D02*
X20702380Y-51834331D01*
X20702380Y-51834331D02*
X20778571Y-51872426D01*
X67017664Y-68716667D02*
X67055760Y-68678571D01*
X67055760Y-68678571D02*
X67093855Y-68564286D01*
X67093855Y-68564286D02*
X67093855Y-68488095D01*
X67093855Y-68488095D02*
X67055760Y-68373809D01*
X67055760Y-68373809D02*
X66979569Y-68297619D01*
X66979569Y-68297619D02*
X66903379Y-68259524D01*
X66903379Y-68259524D02*
X66750998Y-68221428D01*
X66750998Y-68221428D02*
X66636712Y-68221428D01*
X66636712Y-68221428D02*
X66484331Y-68259524D01*
X66484331Y-68259524D02*
X66408140Y-68297619D01*
X66408140Y-68297619D02*
X66331950Y-68373809D01*
X66331950Y-68373809D02*
X66293855Y-68488095D01*
X66293855Y-68488095D02*
X66293855Y-68564286D01*
X66293855Y-68564286D02*
X66331950Y-68678571D01*
X66331950Y-68678571D02*
X66370045Y-68716667D01*
X66293855Y-69402381D02*
X66293855Y-69250000D01*
X66293855Y-69250000D02*
X66331950Y-69173809D01*
X66331950Y-69173809D02*
X66370045Y-69135714D01*
X66370045Y-69135714D02*
X66484331Y-69059524D01*
X66484331Y-69059524D02*
X66636712Y-69021428D01*
X66636712Y-69021428D02*
X66941474Y-69021428D01*
X66941474Y-69021428D02*
X67017664Y-69059524D01*
X67017664Y-69059524D02*
X67055760Y-69097619D01*
X67055760Y-69097619D02*
X67093855Y-69173809D01*
X67093855Y-69173809D02*
X67093855Y-69326190D01*
X67093855Y-69326190D02*
X67055760Y-69402381D01*
X67055760Y-69402381D02*
X67017664Y-69440476D01*
X67017664Y-69440476D02*
X66941474Y-69478571D01*
X66941474Y-69478571D02*
X66750998Y-69478571D01*
X66750998Y-69478571D02*
X66674807Y-69440476D01*
X66674807Y-69440476D02*
X66636712Y-69402381D01*
X66636712Y-69402381D02*
X66598617Y-69326190D01*
X66598617Y-69326190D02*
X66598617Y-69173809D01*
X66598617Y-69173809D02*
X66636712Y-69097619D01*
X66636712Y-69097619D02*
X66674807Y-69059524D01*
X66674807Y-69059524D02*
X66750998Y-69021428D01*
X59640475Y-90543855D02*
X59640475Y-89743855D01*
X59640475Y-89743855D02*
X59449999Y-89743855D01*
X59449999Y-89743855D02*
X59335713Y-89781950D01*
X59335713Y-89781950D02*
X59259523Y-89858140D01*
X59259523Y-89858140D02*
X59221428Y-89934331D01*
X59221428Y-89934331D02*
X59183332Y-90086712D01*
X59183332Y-90086712D02*
X59183332Y-90200998D01*
X59183332Y-90200998D02*
X59221428Y-90353379D01*
X59221428Y-90353379D02*
X59259523Y-90429569D01*
X59259523Y-90429569D02*
X59335713Y-90505760D01*
X59335713Y-90505760D02*
X59449999Y-90543855D01*
X59449999Y-90543855D02*
X59640475Y-90543855D01*
X58802380Y-90543855D02*
X58649999Y-90543855D01*
X58649999Y-90543855D02*
X58573809Y-90505760D01*
X58573809Y-90505760D02*
X58535713Y-90467664D01*
X58535713Y-90467664D02*
X58459523Y-90353379D01*
X58459523Y-90353379D02*
X58421428Y-90200998D01*
X58421428Y-90200998D02*
X58421428Y-89896236D01*
X58421428Y-89896236D02*
X58459523Y-89820045D01*
X58459523Y-89820045D02*
X58497618Y-89781950D01*
X58497618Y-89781950D02*
X58573809Y-89743855D01*
X58573809Y-89743855D02*
X58726190Y-89743855D01*
X58726190Y-89743855D02*
X58802380Y-89781950D01*
X58802380Y-89781950D02*
X58840475Y-89820045D01*
X58840475Y-89820045D02*
X58878571Y-89896236D01*
X58878571Y-89896236D02*
X58878571Y-90086712D01*
X58878571Y-90086712D02*
X58840475Y-90162902D01*
X58840475Y-90162902D02*
X58802380Y-90200998D01*
X58802380Y-90200998D02*
X58726190Y-90239093D01*
X58726190Y-90239093D02*
X58573809Y-90239093D01*
X58573809Y-90239093D02*
X58497618Y-90200998D01*
X58497618Y-90200998D02*
X58459523Y-90162902D01*
X58459523Y-90162902D02*
X58421428Y-90086712D01*
X45316667Y-61625760D02*
X45202381Y-61663855D01*
X45202381Y-61663855D02*
X45011905Y-61663855D01*
X45011905Y-61663855D02*
X44935714Y-61625760D01*
X44935714Y-61625760D02*
X44897619Y-61587664D01*
X44897619Y-61587664D02*
X44859524Y-61511474D01*
X44859524Y-61511474D02*
X44859524Y-61435283D01*
X44859524Y-61435283D02*
X44897619Y-61359093D01*
X44897619Y-61359093D02*
X44935714Y-61320998D01*
X44935714Y-61320998D02*
X45011905Y-61282902D01*
X45011905Y-61282902D02*
X45164286Y-61244807D01*
X45164286Y-61244807D02*
X45240476Y-61206712D01*
X45240476Y-61206712D02*
X45278571Y-61168617D01*
X45278571Y-61168617D02*
X45316667Y-61092426D01*
X45316667Y-61092426D02*
X45316667Y-61016236D01*
X45316667Y-61016236D02*
X45278571Y-60940045D01*
X45278571Y-60940045D02*
X45240476Y-60901950D01*
X45240476Y-60901950D02*
X45164286Y-60863855D01*
X45164286Y-60863855D02*
X44973809Y-60863855D01*
X44973809Y-60863855D02*
X44859524Y-60901950D01*
X44592857Y-60863855D02*
X44402381Y-61663855D01*
X44402381Y-61663855D02*
X44250000Y-61092426D01*
X44250000Y-61092426D02*
X44097619Y-61663855D01*
X44097619Y-61663855D02*
X43907143Y-60863855D01*
X43221428Y-60863855D02*
X43602380Y-60863855D01*
X43602380Y-60863855D02*
X43640476Y-61244807D01*
X43640476Y-61244807D02*
X43602380Y-61206712D01*
X43602380Y-61206712D02*
X43526190Y-61168617D01*
X43526190Y-61168617D02*
X43335714Y-61168617D01*
X43335714Y-61168617D02*
X43259523Y-61206712D01*
X43259523Y-61206712D02*
X43221428Y-61244807D01*
X43221428Y-61244807D02*
X43183333Y-61320998D01*
X43183333Y-61320998D02*
X43183333Y-61511474D01*
X43183333Y-61511474D02*
X43221428Y-61587664D01*
X43221428Y-61587664D02*
X43259523Y-61625760D01*
X43259523Y-61625760D02*
X43335714Y-61663855D01*
X43335714Y-61663855D02*
X43526190Y-61663855D01*
X43526190Y-61663855D02*
X43602380Y-61625760D01*
X43602380Y-61625760D02*
X43640476Y-61587664D01*
X59640475Y-52443855D02*
X59640475Y-51643855D01*
X59640475Y-51643855D02*
X59449999Y-51643855D01*
X59449999Y-51643855D02*
X59335713Y-51681950D01*
X59335713Y-51681950D02*
X59259523Y-51758140D01*
X59259523Y-51758140D02*
X59221428Y-51834331D01*
X59221428Y-51834331D02*
X59183332Y-51986712D01*
X59183332Y-51986712D02*
X59183332Y-52100998D01*
X59183332Y-52100998D02*
X59221428Y-52253379D01*
X59221428Y-52253379D02*
X59259523Y-52329569D01*
X59259523Y-52329569D02*
X59335713Y-52405760D01*
X59335713Y-52405760D02*
X59449999Y-52443855D01*
X59449999Y-52443855D02*
X59640475Y-52443855D01*
X58916666Y-51643855D02*
X58421428Y-51643855D01*
X58421428Y-51643855D02*
X58688094Y-51948617D01*
X58688094Y-51948617D02*
X58573809Y-51948617D01*
X58573809Y-51948617D02*
X58497618Y-51986712D01*
X58497618Y-51986712D02*
X58459523Y-52024807D01*
X58459523Y-52024807D02*
X58421428Y-52100998D01*
X58421428Y-52100998D02*
X58421428Y-52291474D01*
X58421428Y-52291474D02*
X58459523Y-52367664D01*
X58459523Y-52367664D02*
X58497618Y-52405760D01*
X58497618Y-52405760D02*
X58573809Y-52443855D01*
X58573809Y-52443855D02*
X58802380Y-52443855D01*
X58802380Y-52443855D02*
X58878571Y-52405760D01*
X58878571Y-52405760D02*
X58916666Y-52367664D01*
X64366667Y-80675760D02*
X64252381Y-80713855D01*
X64252381Y-80713855D02*
X64061905Y-80713855D01*
X64061905Y-80713855D02*
X63985714Y-80675760D01*
X63985714Y-80675760D02*
X63947619Y-80637664D01*
X63947619Y-80637664D02*
X63909524Y-80561474D01*
X63909524Y-80561474D02*
X63909524Y-80485283D01*
X63909524Y-80485283D02*
X63947619Y-80409093D01*
X63947619Y-80409093D02*
X63985714Y-80370998D01*
X63985714Y-80370998D02*
X64061905Y-80332902D01*
X64061905Y-80332902D02*
X64214286Y-80294807D01*
X64214286Y-80294807D02*
X64290476Y-80256712D01*
X64290476Y-80256712D02*
X64328571Y-80218617D01*
X64328571Y-80218617D02*
X64366667Y-80142426D01*
X64366667Y-80142426D02*
X64366667Y-80066236D01*
X64366667Y-80066236D02*
X64328571Y-79990045D01*
X64328571Y-79990045D02*
X64290476Y-79951950D01*
X64290476Y-79951950D02*
X64214286Y-79913855D01*
X64214286Y-79913855D02*
X64023809Y-79913855D01*
X64023809Y-79913855D02*
X63909524Y-79951950D01*
X63642857Y-79913855D02*
X63452381Y-80713855D01*
X63452381Y-80713855D02*
X63300000Y-80142426D01*
X63300000Y-80142426D02*
X63147619Y-80713855D01*
X63147619Y-80713855D02*
X62957143Y-79913855D01*
X62614285Y-80713855D02*
X62461904Y-80713855D01*
X62461904Y-80713855D02*
X62385714Y-80675760D01*
X62385714Y-80675760D02*
X62347618Y-80637664D01*
X62347618Y-80637664D02*
X62271428Y-80523379D01*
X62271428Y-80523379D02*
X62233333Y-80370998D01*
X62233333Y-80370998D02*
X62233333Y-80066236D01*
X62233333Y-80066236D02*
X62271428Y-79990045D01*
X62271428Y-79990045D02*
X62309523Y-79951950D01*
X62309523Y-79951950D02*
X62385714Y-79913855D01*
X62385714Y-79913855D02*
X62538095Y-79913855D01*
X62538095Y-79913855D02*
X62614285Y-79951950D01*
X62614285Y-79951950D02*
X62652380Y-79990045D01*
X62652380Y-79990045D02*
X62690476Y-80066236D01*
X62690476Y-80066236D02*
X62690476Y-80256712D01*
X62690476Y-80256712D02*
X62652380Y-80332902D01*
X62652380Y-80332902D02*
X62614285Y-80370998D01*
X62614285Y-80370998D02*
X62538095Y-80409093D01*
X62538095Y-80409093D02*
X62385714Y-80409093D01*
X62385714Y-80409093D02*
X62309523Y-80370998D01*
X62309523Y-80370998D02*
X62271428Y-80332902D01*
X62271428Y-80332902D02*
X62233333Y-80256712D01*
X67017664Y-87766667D02*
X67055760Y-87728571D01*
X67055760Y-87728571D02*
X67093855Y-87614286D01*
X67093855Y-87614286D02*
X67093855Y-87538095D01*
X67093855Y-87538095D02*
X67055760Y-87423809D01*
X67055760Y-87423809D02*
X66979569Y-87347619D01*
X66979569Y-87347619D02*
X66903379Y-87309524D01*
X66903379Y-87309524D02*
X66750998Y-87271428D01*
X66750998Y-87271428D02*
X66636712Y-87271428D01*
X66636712Y-87271428D02*
X66484331Y-87309524D01*
X66484331Y-87309524D02*
X66408140Y-87347619D01*
X66408140Y-87347619D02*
X66331950Y-87423809D01*
X66331950Y-87423809D02*
X66293855Y-87538095D01*
X66293855Y-87538095D02*
X66293855Y-87614286D01*
X66293855Y-87614286D02*
X66331950Y-87728571D01*
X66331950Y-87728571D02*
X66370045Y-87766667D01*
X67093855Y-88147619D02*
X67093855Y-88300000D01*
X67093855Y-88300000D02*
X67055760Y-88376190D01*
X67055760Y-88376190D02*
X67017664Y-88414286D01*
X67017664Y-88414286D02*
X66903379Y-88490476D01*
X66903379Y-88490476D02*
X66750998Y-88528571D01*
X66750998Y-88528571D02*
X66446236Y-88528571D01*
X66446236Y-88528571D02*
X66370045Y-88490476D01*
X66370045Y-88490476D02*
X66331950Y-88452381D01*
X66331950Y-88452381D02*
X66293855Y-88376190D01*
X66293855Y-88376190D02*
X66293855Y-88223809D01*
X66293855Y-88223809D02*
X66331950Y-88147619D01*
X66331950Y-88147619D02*
X66370045Y-88109524D01*
X66370045Y-88109524D02*
X66446236Y-88071428D01*
X66446236Y-88071428D02*
X66636712Y-88071428D01*
X66636712Y-88071428D02*
X66712902Y-88109524D01*
X66712902Y-88109524D02*
X66750998Y-88147619D01*
X66750998Y-88147619D02*
X66789093Y-88223809D01*
X66789093Y-88223809D02*
X66789093Y-88376190D01*
X66789093Y-88376190D02*
X66750998Y-88452381D01*
X66750998Y-88452381D02*
X66712902Y-88490476D01*
X66712902Y-88490476D02*
X66636712Y-88528571D01*
X67017664Y-49666667D02*
X67055760Y-49628571D01*
X67055760Y-49628571D02*
X67093855Y-49514286D01*
X67093855Y-49514286D02*
X67093855Y-49438095D01*
X67093855Y-49438095D02*
X67055760Y-49323809D01*
X67055760Y-49323809D02*
X66979569Y-49247619D01*
X66979569Y-49247619D02*
X66903379Y-49209524D01*
X66903379Y-49209524D02*
X66750998Y-49171428D01*
X66750998Y-49171428D02*
X66636712Y-49171428D01*
X66636712Y-49171428D02*
X66484331Y-49209524D01*
X66484331Y-49209524D02*
X66408140Y-49247619D01*
X66408140Y-49247619D02*
X66331950Y-49323809D01*
X66331950Y-49323809D02*
X66293855Y-49438095D01*
X66293855Y-49438095D02*
X66293855Y-49514286D01*
X66293855Y-49514286D02*
X66331950Y-49628571D01*
X66331950Y-49628571D02*
X66370045Y-49666667D01*
X66293855Y-49933333D02*
X66293855Y-50428571D01*
X66293855Y-50428571D02*
X66598617Y-50161905D01*
X66598617Y-50161905D02*
X66598617Y-50276190D01*
X66598617Y-50276190D02*
X66636712Y-50352381D01*
X66636712Y-50352381D02*
X66674807Y-50390476D01*
X66674807Y-50390476D02*
X66750998Y-50428571D01*
X66750998Y-50428571D02*
X66941474Y-50428571D01*
X66941474Y-50428571D02*
X67017664Y-50390476D01*
X67017664Y-50390476D02*
X67055760Y-50352381D01*
X67055760Y-50352381D02*
X67093855Y-50276190D01*
X67093855Y-50276190D02*
X67093855Y-50047619D01*
X67093855Y-50047619D02*
X67055760Y-49971428D01*
X67055760Y-49971428D02*
X67017664Y-49933333D01*
X26266667Y-42575760D02*
X26152381Y-42613855D01*
X26152381Y-42613855D02*
X25961905Y-42613855D01*
X25961905Y-42613855D02*
X25885714Y-42575760D01*
X25885714Y-42575760D02*
X25847619Y-42537664D01*
X25847619Y-42537664D02*
X25809524Y-42461474D01*
X25809524Y-42461474D02*
X25809524Y-42385283D01*
X25809524Y-42385283D02*
X25847619Y-42309093D01*
X25847619Y-42309093D02*
X25885714Y-42270998D01*
X25885714Y-42270998D02*
X25961905Y-42232902D01*
X25961905Y-42232902D02*
X26114286Y-42194807D01*
X26114286Y-42194807D02*
X26190476Y-42156712D01*
X26190476Y-42156712D02*
X26228571Y-42118617D01*
X26228571Y-42118617D02*
X26266667Y-42042426D01*
X26266667Y-42042426D02*
X26266667Y-41966236D01*
X26266667Y-41966236D02*
X26228571Y-41890045D01*
X26228571Y-41890045D02*
X26190476Y-41851950D01*
X26190476Y-41851950D02*
X26114286Y-41813855D01*
X26114286Y-41813855D02*
X25923809Y-41813855D01*
X25923809Y-41813855D02*
X25809524Y-41851950D01*
X25542857Y-41813855D02*
X25352381Y-42613855D01*
X25352381Y-42613855D02*
X25200000Y-42042426D01*
X25200000Y-42042426D02*
X25047619Y-42613855D01*
X25047619Y-42613855D02*
X24857143Y-41813855D01*
X24133333Y-42613855D02*
X24590476Y-42613855D01*
X24361904Y-42613855D02*
X24361904Y-41813855D01*
X24361904Y-41813855D02*
X24438095Y-41928140D01*
X24438095Y-41928140D02*
X24514285Y-42004331D01*
X24514285Y-42004331D02*
X24590476Y-42042426D01*
X45316667Y-42575760D02*
X45202381Y-42613855D01*
X45202381Y-42613855D02*
X45011905Y-42613855D01*
X45011905Y-42613855D02*
X44935714Y-42575760D01*
X44935714Y-42575760D02*
X44897619Y-42537664D01*
X44897619Y-42537664D02*
X44859524Y-42461474D01*
X44859524Y-42461474D02*
X44859524Y-42385283D01*
X44859524Y-42385283D02*
X44897619Y-42309093D01*
X44897619Y-42309093D02*
X44935714Y-42270998D01*
X44935714Y-42270998D02*
X45011905Y-42232902D01*
X45011905Y-42232902D02*
X45164286Y-42194807D01*
X45164286Y-42194807D02*
X45240476Y-42156712D01*
X45240476Y-42156712D02*
X45278571Y-42118617D01*
X45278571Y-42118617D02*
X45316667Y-42042426D01*
X45316667Y-42042426D02*
X45316667Y-41966236D01*
X45316667Y-41966236D02*
X45278571Y-41890045D01*
X45278571Y-41890045D02*
X45240476Y-41851950D01*
X45240476Y-41851950D02*
X45164286Y-41813855D01*
X45164286Y-41813855D02*
X44973809Y-41813855D01*
X44973809Y-41813855D02*
X44859524Y-41851950D01*
X44592857Y-41813855D02*
X44402381Y-42613855D01*
X44402381Y-42613855D02*
X44250000Y-42042426D01*
X44250000Y-42042426D02*
X44097619Y-42613855D01*
X44097619Y-42613855D02*
X43907143Y-41813855D01*
X43640476Y-41890045D02*
X43602380Y-41851950D01*
X43602380Y-41851950D02*
X43526190Y-41813855D01*
X43526190Y-41813855D02*
X43335714Y-41813855D01*
X43335714Y-41813855D02*
X43259523Y-41851950D01*
X43259523Y-41851950D02*
X43221428Y-41890045D01*
X43221428Y-41890045D02*
X43183333Y-41966236D01*
X43183333Y-41966236D02*
X43183333Y-42042426D01*
X43183333Y-42042426D02*
X43221428Y-42156712D01*
X43221428Y-42156712D02*
X43678571Y-42613855D01*
X43678571Y-42613855D02*
X43183333Y-42613855D01*
X40590475Y-71493855D02*
X40590475Y-70693855D01*
X40590475Y-70693855D02*
X40399999Y-70693855D01*
X40399999Y-70693855D02*
X40285713Y-70731950D01*
X40285713Y-70731950D02*
X40209523Y-70808140D01*
X40209523Y-70808140D02*
X40171428Y-70884331D01*
X40171428Y-70884331D02*
X40133332Y-71036712D01*
X40133332Y-71036712D02*
X40133332Y-71150998D01*
X40133332Y-71150998D02*
X40171428Y-71303379D01*
X40171428Y-71303379D02*
X40209523Y-71379569D01*
X40209523Y-71379569D02*
X40285713Y-71455760D01*
X40285713Y-71455760D02*
X40399999Y-71493855D01*
X40399999Y-71493855D02*
X40590475Y-71493855D01*
X39409523Y-70693855D02*
X39790475Y-70693855D01*
X39790475Y-70693855D02*
X39828571Y-71074807D01*
X39828571Y-71074807D02*
X39790475Y-71036712D01*
X39790475Y-71036712D02*
X39714285Y-70998617D01*
X39714285Y-70998617D02*
X39523809Y-70998617D01*
X39523809Y-70998617D02*
X39447618Y-71036712D01*
X39447618Y-71036712D02*
X39409523Y-71074807D01*
X39409523Y-71074807D02*
X39371428Y-71150998D01*
X39371428Y-71150998D02*
X39371428Y-71341474D01*
X39371428Y-71341474D02*
X39409523Y-71417664D01*
X39409523Y-71417664D02*
X39447618Y-71455760D01*
X39447618Y-71455760D02*
X39523809Y-71493855D01*
X39523809Y-71493855D02*
X39714285Y-71493855D01*
X39714285Y-71493855D02*
X39790475Y-71455760D01*
X39790475Y-71455760D02*
X39828571Y-71417664D01*
X28917664Y-49666667D02*
X28955760Y-49628571D01*
X28955760Y-49628571D02*
X28993855Y-49514286D01*
X28993855Y-49514286D02*
X28993855Y-49438095D01*
X28993855Y-49438095D02*
X28955760Y-49323809D01*
X28955760Y-49323809D02*
X28879569Y-49247619D01*
X28879569Y-49247619D02*
X28803379Y-49209524D01*
X28803379Y-49209524D02*
X28650998Y-49171428D01*
X28650998Y-49171428D02*
X28536712Y-49171428D01*
X28536712Y-49171428D02*
X28384331Y-49209524D01*
X28384331Y-49209524D02*
X28308140Y-49247619D01*
X28308140Y-49247619D02*
X28231950Y-49323809D01*
X28231950Y-49323809D02*
X28193855Y-49438095D01*
X28193855Y-49438095D02*
X28193855Y-49514286D01*
X28193855Y-49514286D02*
X28231950Y-49628571D01*
X28231950Y-49628571D02*
X28270045Y-49666667D01*
X28993855Y-50428571D02*
X28993855Y-49971428D01*
X28993855Y-50200000D02*
X28193855Y-50200000D01*
X28193855Y-50200000D02*
X28308140Y-50123809D01*
X28308140Y-50123809D02*
X28384331Y-50047619D01*
X28384331Y-50047619D02*
X28422426Y-49971428D01*
X64366667Y-42575760D02*
X64252381Y-42613855D01*
X64252381Y-42613855D02*
X64061905Y-42613855D01*
X64061905Y-42613855D02*
X63985714Y-42575760D01*
X63985714Y-42575760D02*
X63947619Y-42537664D01*
X63947619Y-42537664D02*
X63909524Y-42461474D01*
X63909524Y-42461474D02*
X63909524Y-42385283D01*
X63909524Y-42385283D02*
X63947619Y-42309093D01*
X63947619Y-42309093D02*
X63985714Y-42270998D01*
X63985714Y-42270998D02*
X64061905Y-42232902D01*
X64061905Y-42232902D02*
X64214286Y-42194807D01*
X64214286Y-42194807D02*
X64290476Y-42156712D01*
X64290476Y-42156712D02*
X64328571Y-42118617D01*
X64328571Y-42118617D02*
X64366667Y-42042426D01*
X64366667Y-42042426D02*
X64366667Y-41966236D01*
X64366667Y-41966236D02*
X64328571Y-41890045D01*
X64328571Y-41890045D02*
X64290476Y-41851950D01*
X64290476Y-41851950D02*
X64214286Y-41813855D01*
X64214286Y-41813855D02*
X64023809Y-41813855D01*
X64023809Y-41813855D02*
X63909524Y-41851950D01*
X63642857Y-41813855D02*
X63452381Y-42613855D01*
X63452381Y-42613855D02*
X63300000Y-42042426D01*
X63300000Y-42042426D02*
X63147619Y-42613855D01*
X63147619Y-42613855D02*
X62957143Y-41813855D01*
X62728571Y-41813855D02*
X62233333Y-41813855D01*
X62233333Y-41813855D02*
X62499999Y-42118617D01*
X62499999Y-42118617D02*
X62385714Y-42118617D01*
X62385714Y-42118617D02*
X62309523Y-42156712D01*
X62309523Y-42156712D02*
X62271428Y-42194807D01*
X62271428Y-42194807D02*
X62233333Y-42270998D01*
X62233333Y-42270998D02*
X62233333Y-42461474D01*
X62233333Y-42461474D02*
X62271428Y-42537664D01*
X62271428Y-42537664D02*
X62309523Y-42575760D01*
X62309523Y-42575760D02*
X62385714Y-42613855D01*
X62385714Y-42613855D02*
X62614285Y-42613855D01*
X62614285Y-42613855D02*
X62690476Y-42575760D01*
X62690476Y-42575760D02*
X62728571Y-42537664D01*
X45316667Y-80675760D02*
X45202381Y-80713855D01*
X45202381Y-80713855D02*
X45011905Y-80713855D01*
X45011905Y-80713855D02*
X44935714Y-80675760D01*
X44935714Y-80675760D02*
X44897619Y-80637664D01*
X44897619Y-80637664D02*
X44859524Y-80561474D01*
X44859524Y-80561474D02*
X44859524Y-80485283D01*
X44859524Y-80485283D02*
X44897619Y-80409093D01*
X44897619Y-80409093D02*
X44935714Y-80370998D01*
X44935714Y-80370998D02*
X45011905Y-80332902D01*
X45011905Y-80332902D02*
X45164286Y-80294807D01*
X45164286Y-80294807D02*
X45240476Y-80256712D01*
X45240476Y-80256712D02*
X45278571Y-80218617D01*
X45278571Y-80218617D02*
X45316667Y-80142426D01*
X45316667Y-80142426D02*
X45316667Y-80066236D01*
X45316667Y-80066236D02*
X45278571Y-79990045D01*
X45278571Y-79990045D02*
X45240476Y-79951950D01*
X45240476Y-79951950D02*
X45164286Y-79913855D01*
X45164286Y-79913855D02*
X44973809Y-79913855D01*
X44973809Y-79913855D02*
X44859524Y-79951950D01*
X44592857Y-79913855D02*
X44402381Y-80713855D01*
X44402381Y-80713855D02*
X44250000Y-80142426D01*
X44250000Y-80142426D02*
X44097619Y-80713855D01*
X44097619Y-80713855D02*
X43907143Y-79913855D01*
X43488095Y-80256712D02*
X43564285Y-80218617D01*
X43564285Y-80218617D02*
X43602380Y-80180521D01*
X43602380Y-80180521D02*
X43640476Y-80104331D01*
X43640476Y-80104331D02*
X43640476Y-80066236D01*
X43640476Y-80066236D02*
X43602380Y-79990045D01*
X43602380Y-79990045D02*
X43564285Y-79951950D01*
X43564285Y-79951950D02*
X43488095Y-79913855D01*
X43488095Y-79913855D02*
X43335714Y-79913855D01*
X43335714Y-79913855D02*
X43259523Y-79951950D01*
X43259523Y-79951950D02*
X43221428Y-79990045D01*
X43221428Y-79990045D02*
X43183333Y-80066236D01*
X43183333Y-80066236D02*
X43183333Y-80104331D01*
X43183333Y-80104331D02*
X43221428Y-80180521D01*
X43221428Y-80180521D02*
X43259523Y-80218617D01*
X43259523Y-80218617D02*
X43335714Y-80256712D01*
X43335714Y-80256712D02*
X43488095Y-80256712D01*
X43488095Y-80256712D02*
X43564285Y-80294807D01*
X43564285Y-80294807D02*
X43602380Y-80332902D01*
X43602380Y-80332902D02*
X43640476Y-80409093D01*
X43640476Y-80409093D02*
X43640476Y-80561474D01*
X43640476Y-80561474D02*
X43602380Y-80637664D01*
X43602380Y-80637664D02*
X43564285Y-80675760D01*
X43564285Y-80675760D02*
X43488095Y-80713855D01*
X43488095Y-80713855D02*
X43335714Y-80713855D01*
X43335714Y-80713855D02*
X43259523Y-80675760D01*
X43259523Y-80675760D02*
X43221428Y-80637664D01*
X43221428Y-80637664D02*
X43183333Y-80561474D01*
X43183333Y-80561474D02*
X43183333Y-80409093D01*
X43183333Y-80409093D02*
X43221428Y-80332902D01*
X43221428Y-80332902D02*
X43259523Y-80294807D01*
X43259523Y-80294807D02*
X43335714Y-80256712D01*
X28609523Y-11313855D02*
X28609523Y-11961474D01*
X28609523Y-11961474D02*
X28571428Y-12037664D01*
X28571428Y-12037664D02*
X28533333Y-12075760D01*
X28533333Y-12075760D02*
X28457142Y-12113855D01*
X28457142Y-12113855D02*
X28304761Y-12113855D01*
X28304761Y-12113855D02*
X28228571Y-12075760D01*
X28228571Y-12075760D02*
X28190476Y-12037664D01*
X28190476Y-12037664D02*
X28152380Y-11961474D01*
X28152380Y-11961474D02*
X28152380Y-11313855D01*
X27352381Y-12113855D02*
X27809524Y-12113855D01*
X27580952Y-12113855D02*
X27580952Y-11313855D01*
X27580952Y-11313855D02*
X27657143Y-11428140D01*
X27657143Y-11428140D02*
X27733333Y-11504331D01*
X27733333Y-11504331D02*
X27809524Y-11542426D01*
%TO.C,C4*%
X26215000Y-69111252D02*
X26215000Y-68588748D01*
X27685000Y-69111252D02*
X27685000Y-68588748D01*
%TO.C,SW6*%
D12*
X52964824Y-59099780D02*
X52964824Y-58299780D01*
X52964824Y-61949780D02*
X52964824Y-62189780D01*
X54964824Y-56299780D02*
X60864824Y-56299780D01*
X62364824Y-56299780D02*
X63914824Y-56299780D01*
X63414824Y-60349780D02*
X58850000Y-60349780D01*
X63914824Y-56299780D02*
X63914824Y-56529780D01*
X63914824Y-59379780D02*
X63914824Y-59849780D01*
X52964824Y-58299780D02*
G75*
G02*
X54964824Y-56299780I2000004J-4D01*
G01*
X56555678Y-62189780D02*
G75*
G02*
X58850000Y-60349780I2293456J-509332D01*
G01*
X63914824Y-59849780D02*
G75*
G02*
X63414824Y-60349780I-500001J1D01*
G01*
%TO.C,D6*%
D11*
X55400000Y-66255000D02*
X55400000Y-70005000D01*
X55400000Y-70005000D02*
X61975000Y-70005000D01*
X62700000Y-66255000D02*
X55400000Y-66255000D01*
X62700000Y-69280000D02*
X61975000Y-70005000D01*
X62700000Y-69280000D02*
X62700000Y-66255000D01*
X61775000Y-69580000D02*
X61625000Y-69780000D01*
X61925000Y-69780000D01*
X61775000Y-69580000D01*
G36*
X61925000Y-69780000D02*
G01*
X61625000Y-69780000D01*
X61775000Y-69580000D01*
X61925000Y-69780000D01*
G37*
%TO.C,C7*%
X26215000Y-88161252D02*
X26215000Y-87638748D01*
X27685000Y-88161252D02*
X27685000Y-87638748D01*
%TO.C,C8*%
X45265000Y-88161252D02*
X45265000Y-87638748D01*
X46735000Y-88161252D02*
X46735000Y-87638748D01*
%TO.C,D4*%
X17300000Y-66255000D02*
X17300000Y-70005000D01*
X17300000Y-70005000D02*
X23875000Y-70005000D01*
X24600000Y-66255000D02*
X17300000Y-66255000D01*
X24600000Y-69280000D02*
X23875000Y-70005000D01*
X24600000Y-69280000D02*
X24600000Y-66255000D01*
X23675000Y-69580000D02*
X23525000Y-69780000D01*
X23825000Y-69780000D01*
X23675000Y-69580000D01*
G36*
X23825000Y-69780000D02*
G01*
X23525000Y-69780000D01*
X23675000Y-69580000D01*
X23825000Y-69780000D01*
G37*
%TO.C,SW7*%
D12*
X14864824Y-78149780D02*
X14864824Y-77349780D01*
X14864824Y-80999780D02*
X14864824Y-81239780D01*
X16864824Y-75349780D02*
X22764824Y-75349780D01*
X24264824Y-75349780D02*
X25814824Y-75349780D01*
X25314824Y-79399780D02*
X20750000Y-79399780D01*
X25814824Y-75349780D02*
X25814824Y-75579780D01*
X25814824Y-78429780D02*
X25814824Y-78899780D01*
X14864824Y-77349780D02*
G75*
G02*
X16864824Y-75349780I2000004J-4D01*
G01*
X18455678Y-81239780D02*
G75*
G02*
X20750000Y-79399780I2293456J-509332D01*
G01*
X25814824Y-78899780D02*
G75*
G02*
X25314824Y-79399780I-500001J1D01*
G01*
%TO.C,D2*%
D11*
X36350000Y-47205000D02*
X36350000Y-50955000D01*
X36350000Y-50955000D02*
X42925000Y-50955000D01*
X43650000Y-47205000D02*
X36350000Y-47205000D01*
X43650000Y-50230000D02*
X42925000Y-50955000D01*
X43650000Y-50230000D02*
X43650000Y-47205000D01*
X42725000Y-50530000D02*
X42575000Y-50730000D01*
X42875000Y-50730000D01*
X42725000Y-50530000D01*
G36*
X42875000Y-50730000D02*
G01*
X42575000Y-50730000D01*
X42725000Y-50530000D01*
X42875000Y-50730000D01*
G37*
%TO.C,D7*%
X17300000Y-85305000D02*
X17300000Y-89055000D01*
X17300000Y-89055000D02*
X23875000Y-89055000D01*
X24600000Y-85305000D02*
X17300000Y-85305000D01*
X24600000Y-88330000D02*
X23875000Y-89055000D01*
X24600000Y-88330000D02*
X24600000Y-85305000D01*
X23675000Y-88630000D02*
X23525000Y-88830000D01*
X23825000Y-88830000D01*
X23675000Y-88630000D01*
G36*
X23825000Y-88830000D02*
G01*
X23525000Y-88830000D01*
X23675000Y-88630000D01*
X23825000Y-88830000D01*
G37*
%TO.C,SW4*%
D12*
X14864824Y-59099780D02*
X14864824Y-58299780D01*
X14864824Y-61949780D02*
X14864824Y-62189780D01*
X16864824Y-56299780D02*
X22764824Y-56299780D01*
X24264824Y-56299780D02*
X25814824Y-56299780D01*
X25314824Y-60349780D02*
X20750000Y-60349780D01*
X25814824Y-56299780D02*
X25814824Y-56529780D01*
X25814824Y-59379780D02*
X25814824Y-59849780D01*
X14864824Y-58299780D02*
G75*
G02*
X16864824Y-56299780I2000004J-4D01*
G01*
X18455678Y-62189780D02*
G75*
G02*
X20750000Y-60349780I2293456J-509332D01*
G01*
X25814824Y-59849780D02*
G75*
G02*
X25314824Y-60349780I-500001J1D01*
G01*
%TO.C,C2*%
D11*
X45265000Y-50061252D02*
X45265000Y-49538748D01*
X46735000Y-50061252D02*
X46735000Y-49538748D01*
%TO.C,D8*%
X36350000Y-85305000D02*
X36350000Y-89055000D01*
X36350000Y-89055000D02*
X42925000Y-89055000D01*
X43650000Y-85305000D02*
X36350000Y-85305000D01*
X43650000Y-88330000D02*
X42925000Y-89055000D01*
X43650000Y-88330000D02*
X43650000Y-85305000D01*
X42725000Y-88630000D02*
X42575000Y-88830000D01*
X42875000Y-88830000D01*
X42725000Y-88630000D01*
G36*
X42875000Y-88830000D02*
G01*
X42575000Y-88830000D01*
X42725000Y-88630000D01*
X42875000Y-88830000D01*
G37*
%TO.C,C5*%
X45265000Y-69111252D02*
X45265000Y-68588748D01*
X46735000Y-69111252D02*
X46735000Y-68588748D01*
%TO.C,D1*%
X17300000Y-47205000D02*
X17300000Y-50955000D01*
X17300000Y-50955000D02*
X23875000Y-50955000D01*
X24600000Y-47205000D02*
X17300000Y-47205000D01*
X24600000Y-50230000D02*
X23875000Y-50955000D01*
X24600000Y-50230000D02*
X24600000Y-47205000D01*
X23675000Y-50530000D02*
X23525000Y-50730000D01*
X23825000Y-50730000D01*
X23675000Y-50530000D01*
G36*
X23825000Y-50730000D02*
G01*
X23525000Y-50730000D01*
X23675000Y-50530000D01*
X23825000Y-50730000D01*
G37*
%TO.C,C6*%
X64315000Y-69111252D02*
X64315000Y-68588748D01*
X65785000Y-69111252D02*
X65785000Y-68588748D01*
%TO.C,D9*%
X55400000Y-85305000D02*
X55400000Y-89055000D01*
X55400000Y-89055000D02*
X61975000Y-89055000D01*
X62700000Y-85305000D02*
X55400000Y-85305000D01*
X62700000Y-88330000D02*
X61975000Y-89055000D01*
X62700000Y-88330000D02*
X62700000Y-85305000D01*
X61775000Y-88630000D02*
X61625000Y-88830000D01*
X61925000Y-88830000D01*
X61775000Y-88630000D01*
G36*
X61925000Y-88830000D02*
G01*
X61625000Y-88830000D01*
X61775000Y-88630000D01*
X61925000Y-88830000D01*
G37*
%TO.C,SW5*%
D12*
X33914824Y-59099780D02*
X33914824Y-58299780D01*
X33914824Y-61949780D02*
X33914824Y-62189780D01*
X35914824Y-56299780D02*
X41814824Y-56299780D01*
X43314824Y-56299780D02*
X44864824Y-56299780D01*
X44364824Y-60349780D02*
X39800000Y-60349780D01*
X44864824Y-56299780D02*
X44864824Y-56529780D01*
X44864824Y-59379780D02*
X44864824Y-59849780D01*
X33914824Y-58299780D02*
G75*
G02*
X35914824Y-56299780I2000004J-4D01*
G01*
X37505678Y-62189780D02*
G75*
G02*
X39800000Y-60349780I2293456J-509332D01*
G01*
X44864824Y-59849780D02*
G75*
G02*
X44364824Y-60349780I-500001J1D01*
G01*
%TO.C,D3*%
D11*
X55400000Y-47205000D02*
X55400000Y-50955000D01*
X55400000Y-50955000D02*
X61975000Y-50955000D01*
X62700000Y-47205000D02*
X55400000Y-47205000D01*
X62700000Y-50230000D02*
X61975000Y-50955000D01*
X62700000Y-50230000D02*
X62700000Y-47205000D01*
X61775000Y-50530000D02*
X61625000Y-50730000D01*
X61925000Y-50730000D01*
X61775000Y-50530000D01*
G36*
X61925000Y-50730000D02*
G01*
X61625000Y-50730000D01*
X61775000Y-50530000D01*
X61925000Y-50730000D01*
G37*
%TO.C,SW9*%
D12*
X52964824Y-78149780D02*
X52964824Y-77349780D01*
X52964824Y-80999780D02*
X52964824Y-81239780D01*
X54964824Y-75349780D02*
X60864824Y-75349780D01*
X62364824Y-75349780D02*
X63914824Y-75349780D01*
X63414824Y-79399780D02*
X58850000Y-79399780D01*
X63914824Y-75349780D02*
X63914824Y-75579780D01*
X63914824Y-78429780D02*
X63914824Y-78899780D01*
X52964824Y-77349780D02*
G75*
G02*
X54964824Y-75349780I2000004J-4D01*
G01*
X56555678Y-81239780D02*
G75*
G02*
X58850000Y-79399780I2293456J-509332D01*
G01*
X63914824Y-78899780D02*
G75*
G02*
X63414824Y-79399780I-500001J1D01*
G01*
%TO.C,C9*%
D11*
X64315000Y-88161252D02*
X64315000Y-87638748D01*
X65785000Y-88161252D02*
X65785000Y-87638748D01*
%TO.C,C3*%
X64315000Y-50061252D02*
X64315000Y-49538748D01*
X65785000Y-50061252D02*
X65785000Y-49538748D01*
%TO.C,SW1*%
D12*
X14864824Y-40049780D02*
X14864824Y-39249780D01*
X14864824Y-42899780D02*
X14864824Y-43139780D01*
X16864824Y-37249780D02*
X22764824Y-37249780D01*
X24264824Y-37249780D02*
X25814824Y-37249780D01*
X25314824Y-41299780D02*
X20750000Y-41299780D01*
X25814824Y-37249780D02*
X25814824Y-37479780D01*
X25814824Y-40329780D02*
X25814824Y-40799780D01*
X14864824Y-39249780D02*
G75*
G02*
X16864824Y-37249780I2000004J-4D01*
G01*
X18455678Y-43139780D02*
G75*
G02*
X20750000Y-41299780I2293456J-509332D01*
G01*
X25814824Y-40799780D02*
G75*
G02*
X25314824Y-41299780I-500001J1D01*
G01*
%TO.C,SW2*%
X33914824Y-40049780D02*
X33914824Y-39249780D01*
X33914824Y-42899780D02*
X33914824Y-43139780D01*
X35914824Y-37249780D02*
X41814824Y-37249780D01*
X43314824Y-37249780D02*
X44864824Y-37249780D01*
X44364824Y-41299780D02*
X39800000Y-41299780D01*
X44864824Y-37249780D02*
X44864824Y-37479780D01*
X44864824Y-40329780D02*
X44864824Y-40799780D01*
X33914824Y-39249780D02*
G75*
G02*
X35914824Y-37249780I2000004J-4D01*
G01*
X37505678Y-43139780D02*
G75*
G02*
X39800000Y-41299780I2293456J-509332D01*
G01*
X44864824Y-40799780D02*
G75*
G02*
X44364824Y-41299780I-500001J1D01*
G01*
%TO.C,D5*%
D11*
X36350000Y-66255000D02*
X36350000Y-70005000D01*
X36350000Y-70005000D02*
X42925000Y-70005000D01*
X43650000Y-66255000D02*
X36350000Y-66255000D01*
X43650000Y-69280000D02*
X42925000Y-70005000D01*
X43650000Y-69280000D02*
X43650000Y-66255000D01*
X42725000Y-69580000D02*
X42575000Y-69780000D01*
X42875000Y-69780000D01*
X42725000Y-69580000D01*
G36*
X42875000Y-69780000D02*
G01*
X42575000Y-69780000D01*
X42725000Y-69580000D01*
X42875000Y-69780000D01*
G37*
%TO.C,C1*%
X26215000Y-50061252D02*
X26215000Y-49538748D01*
X27685000Y-50061252D02*
X27685000Y-49538748D01*
%TO.C,SW3*%
D12*
X52964824Y-40049780D02*
X52964824Y-39249780D01*
X52964824Y-42899780D02*
X52964824Y-43139780D01*
X54964824Y-37249780D02*
X60864824Y-37249780D01*
X62364824Y-37249780D02*
X63914824Y-37249780D01*
X63414824Y-41299780D02*
X58850000Y-41299780D01*
X63914824Y-37249780D02*
X63914824Y-37479780D01*
X63914824Y-40329780D02*
X63914824Y-40799780D01*
X52964824Y-39249780D02*
G75*
G02*
X54964824Y-37249780I2000004J-4D01*
G01*
X56555678Y-43139780D02*
G75*
G02*
X58850000Y-41299780I2293456J-509332D01*
G01*
X63914824Y-40799780D02*
G75*
G02*
X63414824Y-41299780I-500001J1D01*
G01*
%TO.C,SW8*%
X33914824Y-78149780D02*
X33914824Y-77349780D01*
X33914824Y-80999780D02*
X33914824Y-81239780D01*
X35914824Y-75349780D02*
X41814824Y-75349780D01*
X43314824Y-75349780D02*
X44864824Y-75349780D01*
X44364824Y-79399780D02*
X39800000Y-79399780D01*
X44864824Y-75349780D02*
X44864824Y-75579780D01*
X44864824Y-78429780D02*
X44864824Y-78899780D01*
X33914824Y-77349780D02*
G75*
G02*
X35914824Y-75349780I2000004J-4D01*
G01*
X37505678Y-81239780D02*
G75*
G02*
X39800000Y-79399780I2293456J-509332D01*
G01*
X44864824Y-78899780D02*
G75*
G02*
X44364824Y-79399780I-500001J1D01*
G01*
%TD*%
%LPC*%
D13*
%TO.C,H1*%
X4000000Y-4000000D03*
%TD*%
D14*
%TO.C,ENC1*%
X54500000Y-17500000D03*
D15*
X54500000Y-22500000D03*
X54500000Y-20000000D03*
D16*
X62000000Y-14400000D03*
X62000000Y-25600000D03*
D15*
X69000000Y-22500000D03*
X69000000Y-17500000D03*
%TD*%
D17*
%TO.C,J1*%
X10000000Y-27000000D03*
D18*
X12540000Y-27000000D03*
X15080000Y-27000000D03*
X17620000Y-27000000D03*
%TD*%
D13*
%TO.C,H4*%
X76000000Y-92000000D03*
%TD*%
%TO.C,H2*%
X76000000Y-4000000D03*
%TD*%
%TO.C,H3*%
X4000000Y-92000000D03*
%TD*%
D19*
%TO.C,C4*%
X26950000Y-69800000D03*
X26950000Y-67900000D03*
%TD*%
D20*
%TO.C,SW6*%
X64130000Y-63050000D03*
D21*
X59050000Y-63050000D03*
D20*
X53970000Y-63050000D03*
D22*
X55240000Y-60510000D03*
D23*
X51690000Y-60510000D03*
X65140000Y-57970000D03*
D22*
X61590000Y-57970000D03*
%TD*%
D24*
%TO.C,D6*%
X61775000Y-68880000D03*
X61775000Y-67380000D03*
X56325000Y-67380000D03*
X56325000Y-68880000D03*
%TD*%
D19*
%TO.C,C7*%
X26950000Y-88850000D03*
X26950000Y-86950000D03*
%TD*%
%TO.C,C8*%
X46000000Y-88850000D03*
X46000000Y-86950000D03*
%TD*%
D24*
%TO.C,D4*%
X23675000Y-68880000D03*
X23675000Y-67380000D03*
X18225000Y-67380000D03*
X18225000Y-68880000D03*
%TD*%
D20*
%TO.C,SW7*%
X26030000Y-82100000D03*
D21*
X20950000Y-82100000D03*
D20*
X15870000Y-82100000D03*
D22*
X17140000Y-79560000D03*
D23*
X13590000Y-79560000D03*
X27040000Y-77020000D03*
D22*
X23490000Y-77020000D03*
%TD*%
D24*
%TO.C,D2*%
X42725000Y-49830000D03*
X42725000Y-48330000D03*
X37275000Y-48330000D03*
X37275000Y-49830000D03*
%TD*%
%TO.C,D7*%
X23675000Y-87930000D03*
X23675000Y-86430000D03*
X18225000Y-86430000D03*
X18225000Y-87930000D03*
%TD*%
D20*
%TO.C,SW4*%
X26030000Y-63050000D03*
D21*
X20950000Y-63050000D03*
D20*
X15870000Y-63050000D03*
D22*
X17140000Y-60510000D03*
D23*
X13590000Y-60510000D03*
X27040000Y-57970000D03*
D22*
X23490000Y-57970000D03*
%TD*%
D19*
%TO.C,C2*%
X46000000Y-50750000D03*
X46000000Y-48850000D03*
%TD*%
D24*
%TO.C,D8*%
X42725000Y-87930000D03*
X42725000Y-86430000D03*
X37275000Y-86430000D03*
X37275000Y-87930000D03*
%TD*%
D19*
%TO.C,C5*%
X46000000Y-69800000D03*
X46000000Y-67900000D03*
%TD*%
D24*
%TO.C,D1*%
X23675000Y-49830000D03*
X23675000Y-48330000D03*
X18225000Y-48330000D03*
X18225000Y-49830000D03*
%TD*%
D19*
%TO.C,C6*%
X65050000Y-69800000D03*
X65050000Y-67900000D03*
%TD*%
D24*
%TO.C,D9*%
X61775000Y-87930000D03*
X61775000Y-86430000D03*
X56325000Y-86430000D03*
X56325000Y-87930000D03*
%TD*%
D20*
%TO.C,SW5*%
X45080000Y-63050000D03*
D21*
X40000000Y-63050000D03*
D20*
X34920000Y-63050000D03*
D22*
X36190000Y-60510000D03*
D23*
X32640000Y-60510000D03*
X46090000Y-57970000D03*
D22*
X42540000Y-57970000D03*
%TD*%
D24*
%TO.C,D3*%
X61775000Y-49830000D03*
X61775000Y-48330000D03*
X56325000Y-48330000D03*
X56325000Y-49830000D03*
%TD*%
D20*
%TO.C,SW9*%
X64130000Y-82100000D03*
D21*
X59050000Y-82100000D03*
D20*
X53970000Y-82100000D03*
D22*
X55240000Y-79560000D03*
D23*
X51690000Y-79560000D03*
X65140000Y-77020000D03*
D22*
X61590000Y-77020000D03*
%TD*%
D19*
%TO.C,C9*%
X65050000Y-88850000D03*
X65050000Y-86950000D03*
%TD*%
%TO.C,C3*%
X65050000Y-50750000D03*
X65050000Y-48850000D03*
%TD*%
D20*
%TO.C,SW1*%
X26030000Y-44000000D03*
D21*
X20950000Y-44000000D03*
D20*
X15870000Y-44000000D03*
D22*
X17140000Y-41460000D03*
D23*
X13590000Y-41460000D03*
X27040000Y-38920000D03*
D22*
X23490000Y-38920000D03*
%TD*%
D20*
%TO.C,SW2*%
X45080000Y-44000000D03*
D21*
X40000000Y-44000000D03*
D20*
X34920000Y-44000000D03*
D22*
X36190000Y-41460000D03*
D23*
X32640000Y-41460000D03*
X46090000Y-38920000D03*
D22*
X42540000Y-38920000D03*
%TD*%
D24*
%TO.C,D5*%
X42725000Y-68880000D03*
X42725000Y-67380000D03*
X37275000Y-67380000D03*
X37275000Y-68880000D03*
%TD*%
D19*
%TO.C,C1*%
X26950000Y-50750000D03*
X26950000Y-48850000D03*
%TD*%
D20*
%TO.C,SW3*%
X64130000Y-44000000D03*
D21*
X59050000Y-44000000D03*
D20*
X53970000Y-44000000D03*
D22*
X55240000Y-41460000D03*
D23*
X51690000Y-41460000D03*
X65140000Y-38920000D03*
D22*
X61590000Y-38920000D03*
%TD*%
D20*
%TO.C,SW8*%
X45080000Y-82100000D03*
D21*
X40000000Y-82100000D03*
D20*
X34920000Y-82100000D03*
D22*
X36190000Y-79560000D03*
D23*
X32640000Y-79560000D03*
X46090000Y-77020000D03*
D22*
X42540000Y-77020000D03*
%TD*%
D25*
%TO.C,U1*%
X20380000Y-1590000D03*
X20380000Y-4130000D03*
X20380000Y-6670000D03*
X20380000Y-9210000D03*
X20380000Y-11750000D03*
X20380000Y-14289999D03*
X20380000Y-16830000D03*
X20380000Y-19370000D03*
X20380000Y-21910000D03*
X22920000Y-21910000D03*
X25460000Y-21910000D03*
X28000000Y-21910000D03*
X30540000Y-21910000D03*
X33080000Y-21910000D03*
X35620000Y-21910000D03*
X35620000Y-19370000D03*
X35620000Y-16830000D03*
X35620000Y-14290000D03*
X35620000Y-11750000D03*
X35620000Y-9210001D03*
X35620000Y-6670000D03*
X35620000Y-4130000D03*
X35620000Y-1590000D03*
%TD*%
%LPD*%
M02*
