%TF.GenerationSoftware,KiCad,Pcbnew,10.0.5*%
%TF.CreationDate,2026-09-05T17:26:32-04:00*%
%TF.ProjectId,goober,676f6f62-6572-42e6-9b69-6361645f7063,A.1*%
%TF.SameCoordinates,Original*%
%TF.FileFunction,Copper,L2,Bot*%
%TF.FilePolarity,Positive*%
%FSLAX46Y46*%
G04 Gerber Fmt 4.6, Leading zero omitted, Abs format (unit mm)*
G04 Created by KiCad (PCBNEW 10.0.5) date 2026-09-05 17:26:32*
%MOMM*%
%LPD*%
G01*
G04 APERTURE LIST*
G04 Aperture macros list*
%AMRoundRect*
0 Rectangle with rounded corners*
0 $1 Rounding radius*
0 $2 $3 $4 $5 $6 $7 $8 $9 X,Y pos of 4 corners*
0 Add a 4 corners polygon primitive as box body*
4,1,4,$2,$3,$4,$5,$6,$7,$8,$9,$2,$3,0*
0 Add four circle primitives for the rounded corners*
1,1,$1+$1,$2,$3*
1,1,$1+$1,$4,$5*
1,1,$1+$1,$6,$7*
1,1,$1+$1,$8,$9*
0 Add four rect primitives between the rounded corners*
20,1,$1+$1,$2,$3,$4,$5,0*
20,1,$1+$1,$4,$5,$6,$7,0*
20,1,$1+$1,$6,$7,$8,$9,0*
20,1,$1+$1,$8,$9,$2,$3,0*%
G04 Aperture macros list end*
%TA.AperFunction,ComponentPad*%
%ADD10R,2.000000X2.000000*%
%TD*%
%TA.AperFunction,ComponentPad*%
%ADD11C,2.000000*%
%TD*%
%TA.AperFunction,ComponentPad*%
%ADD12R,3.200000X2.000000*%
%TD*%
%TA.AperFunction,ComponentPad*%
%ADD13R,1.700000X1.700000*%
%TD*%
%TA.AperFunction,ComponentPad*%
%ADD14C,1.700000*%
%TD*%
%TA.AperFunction,SMDPad,CuDef*%
%ADD15RoundRect,0.250000X0.475000X-0.250000X0.475000X0.250000X-0.475000X0.250000X-0.475000X-0.250000X0*%
%TD*%
%TA.AperFunction,ComponentPad*%
%ADD16C,3.300000*%
%TD*%
%TA.AperFunction,SMDPad,CuDef*%
%ADD17R,1.650000X2.500000*%
%TD*%
%TA.AperFunction,SMDPad,CuDef*%
%ADD18RoundRect,0.250000X1.025000X1.000000X-1.025000X1.000000X-1.025000X-1.000000X1.025000X-1.000000X0*%
%TD*%
%TA.AperFunction,SMDPad,CuDef*%
%ADD19RoundRect,0.205000X0.445000X0.205000X-0.445000X0.205000X-0.445000X-0.205000X0.445000X-0.205000X0*%
%TD*%
%TA.AperFunction,ComponentPad*%
%ADD20C,1.800000*%
%TD*%
%TA.AperFunction,ViaPad*%
%ADD21C,0.600000*%
%TD*%
%TA.AperFunction,Conductor*%
%ADD22C,0.400000*%
%TD*%
%TA.AperFunction,Conductor*%
%ADD23C,0.200000*%
%TD*%
G04 APERTURE END LIST*
D10*
%TO.P,ENC1,A*%
%TO.N,/ENC_A*%
X54500000Y-17500000D03*
D11*
%TO.P,ENC1,B*%
%TO.N,/ENC_B*%
X54500000Y-22500000D03*
%TO.P,ENC1,C*%
%TO.N,/GND*%
X54500000Y-20000000D03*
D12*
%TO.P,ENC1,MP*%
X62000000Y-14400000D03*
X62000000Y-25600000D03*
D11*
%TO.P,ENC1,S1*%
%TO.N,/ENC_SW*%
X69000000Y-22500000D03*
%TO.P,ENC1,S2*%
%TO.N,/GND*%
X69000000Y-17500000D03*
%TD*%
D13*
%TO.P,J1,1*%
%TO.N,/GND*%
X10000000Y-27000000D03*
D14*
%TO.P,J1,2*%
%TO.N,/+3V3*%
X12540000Y-27000000D03*
%TO.P,J1,3*%
%TO.N,/OLED_SCL*%
X15080000Y-27000000D03*
%TO.P,J1,4*%
%TO.N,/OLED_SDA*%
X17620000Y-27000000D03*
%TD*%
D15*
%TO.P,C4,1*%
%TO.N,/+5V_LED*%
X26950000Y-69800000D03*
%TO.P,C4,2*%
%TO.N,/GND*%
X26950000Y-67900000D03*
%TD*%
D16*
%TO.P,SW6,1*%
%TO.N,/GND*%
X55240000Y-60510000D03*
D17*
X53415000Y-60510000D03*
D18*
X51690000Y-60510000D03*
%TO.P,SW6,2*%
%TO.N,/KEY6*%
X65140000Y-57970000D03*
D17*
X63390000Y-57970000D03*
D16*
X61590000Y-57970000D03*
%TD*%
D19*
%TO.P,D6,1*%
%TO.N,/GND*%
X61775000Y-68880000D03*
%TO.P,D6,2*%
%TO.N,/LED_DIN6*%
X61775000Y-67380000D03*
%TO.P,D6,3*%
%TO.N,/+5V_LED*%
X56325000Y-67380000D03*
%TO.P,D6,4*%
%TO.N,/LED_DIN7*%
X56325000Y-68880000D03*
%TD*%
D15*
%TO.P,C7,1*%
%TO.N,/+5V_LED*%
X26950000Y-88850000D03*
%TO.P,C7,2*%
%TO.N,/GND*%
X26950000Y-86950000D03*
%TD*%
%TO.P,C8,1*%
%TO.N,/+5V_LED*%
X46000000Y-88850000D03*
%TO.P,C8,2*%
%TO.N,/GND*%
X46000000Y-86950000D03*
%TD*%
D19*
%TO.P,D4,1*%
%TO.N,/GND*%
X23675000Y-68880000D03*
%TO.P,D4,2*%
%TO.N,/LED_DIN4*%
X23675000Y-67380000D03*
%TO.P,D4,3*%
%TO.N,/+5V_LED*%
X18225000Y-67380000D03*
%TO.P,D4,4*%
%TO.N,/LED_DIN5*%
X18225000Y-68880000D03*
%TD*%
D16*
%TO.P,SW7,1*%
%TO.N,/GND*%
X17140000Y-79560000D03*
D17*
X15315000Y-79560000D03*
D18*
X13590000Y-79560000D03*
%TO.P,SW7,2*%
%TO.N,/KEY7*%
X27040000Y-77020000D03*
D17*
X25290000Y-77020000D03*
D16*
X23490000Y-77020000D03*
%TD*%
D19*
%TO.P,D2,1*%
%TO.N,/GND*%
X42725000Y-49830000D03*
%TO.P,D2,2*%
%TO.N,/LED_DIN2*%
X42725000Y-48330000D03*
%TO.P,D2,3*%
%TO.N,/+5V_LED*%
X37275000Y-48330000D03*
%TO.P,D2,4*%
%TO.N,/LED_DIN3*%
X37275000Y-49830000D03*
%TD*%
%TO.P,D7,1*%
%TO.N,/GND*%
X23675000Y-87930000D03*
%TO.P,D7,2*%
%TO.N,/LED_DIN7*%
X23675000Y-86430000D03*
%TO.P,D7,3*%
%TO.N,/+5V_LED*%
X18225000Y-86430000D03*
%TO.P,D7,4*%
%TO.N,/LED_DIN8*%
X18225000Y-87930000D03*
%TD*%
D16*
%TO.P,SW4,1*%
%TO.N,/GND*%
X17140000Y-60510000D03*
D17*
X15315000Y-60510000D03*
D18*
X13590000Y-60510000D03*
%TO.P,SW4,2*%
%TO.N,/KEY4*%
X27040000Y-57970000D03*
D17*
X25290000Y-57970000D03*
D16*
X23490000Y-57970000D03*
%TD*%
D15*
%TO.P,C2,1*%
%TO.N,/+5V_LED*%
X46000000Y-50750000D03*
%TO.P,C2,2*%
%TO.N,/GND*%
X46000000Y-48850000D03*
%TD*%
D19*
%TO.P,D8,1*%
%TO.N,/GND*%
X42725000Y-87930000D03*
%TO.P,D8,2*%
%TO.N,/LED_DIN8*%
X42725000Y-86430000D03*
%TO.P,D8,3*%
%TO.N,/+5V_LED*%
X37275000Y-86430000D03*
%TO.P,D8,4*%
%TO.N,/LED_DIN9*%
X37275000Y-87930000D03*
%TD*%
D15*
%TO.P,C5,1*%
%TO.N,/+5V_LED*%
X46000000Y-69800000D03*
%TO.P,C5,2*%
%TO.N,/GND*%
X46000000Y-67900000D03*
%TD*%
D19*
%TO.P,D1,1*%
%TO.N,/GND*%
X23675000Y-49830000D03*
%TO.P,D1,2*%
%TO.N,/LED_DIN1*%
X23675000Y-48330000D03*
%TO.P,D1,3*%
%TO.N,/+5V_LED*%
X18225000Y-48330000D03*
%TO.P,D1,4*%
%TO.N,/LED_DIN2*%
X18225000Y-49830000D03*
%TD*%
D15*
%TO.P,C6,1*%
%TO.N,/+5V_LED*%
X65050000Y-69800000D03*
%TO.P,C6,2*%
%TO.N,/GND*%
X65050000Y-67900000D03*
%TD*%
D19*
%TO.P,D9,1*%
%TO.N,/GND*%
X61775000Y-87930000D03*
%TO.P,D9,2*%
%TO.N,/LED_DIN9*%
X61775000Y-86430000D03*
%TO.P,D9,3*%
%TO.N,/+5V_LED*%
X56325000Y-86430000D03*
%TO.P,D9,4*%
%TO.N,unconnected-(D9-DOUT-Pad4)*%
X56325000Y-87930000D03*
%TD*%
D16*
%TO.P,SW5,1*%
%TO.N,/GND*%
X36190000Y-60510000D03*
D17*
X34365000Y-60510000D03*
D18*
X32640000Y-60510000D03*
%TO.P,SW5,2*%
%TO.N,/KEY5*%
X46090000Y-57970000D03*
D17*
X44340000Y-57970000D03*
D16*
X42540000Y-57970000D03*
%TD*%
D19*
%TO.P,D3,1*%
%TO.N,/GND*%
X61775000Y-49830000D03*
%TO.P,D3,2*%
%TO.N,/LED_DIN3*%
X61775000Y-48330000D03*
%TO.P,D3,3*%
%TO.N,/+5V_LED*%
X56325000Y-48330000D03*
%TO.P,D3,4*%
%TO.N,/LED_DIN4*%
X56325000Y-49830000D03*
%TD*%
D16*
%TO.P,SW9,1*%
%TO.N,/GND*%
X55240000Y-79560000D03*
D17*
X53415000Y-79560000D03*
D18*
X51690000Y-79560000D03*
%TO.P,SW9,2*%
%TO.N,/KEY9*%
X65140000Y-77020000D03*
D17*
X63390000Y-77020000D03*
D16*
X61590000Y-77020000D03*
%TD*%
D15*
%TO.P,C9,1*%
%TO.N,/+5V_LED*%
X65050000Y-88850000D03*
%TO.P,C9,2*%
%TO.N,/GND*%
X65050000Y-86950000D03*
%TD*%
%TO.P,C3,1*%
%TO.N,/+5V_LED*%
X65050000Y-50750000D03*
%TO.P,C3,2*%
%TO.N,/GND*%
X65050000Y-48850000D03*
%TD*%
D16*
%TO.P,SW1,1*%
%TO.N,/GND*%
X17140000Y-41460000D03*
D17*
X15315000Y-41460000D03*
D18*
X13590000Y-41460000D03*
%TO.P,SW1,2*%
%TO.N,/KEY1*%
X27040000Y-38920000D03*
D17*
X25290000Y-38920000D03*
D16*
X23490000Y-38920000D03*
%TD*%
%TO.P,SW2,1*%
%TO.N,/GND*%
X36190000Y-41460000D03*
D17*
X34365000Y-41460000D03*
D18*
X32640000Y-41460000D03*
%TO.P,SW2,2*%
%TO.N,/KEY2*%
X46090000Y-38920000D03*
D17*
X44340000Y-38920000D03*
D16*
X42540000Y-38920000D03*
%TD*%
D19*
%TO.P,D5,1*%
%TO.N,/GND*%
X42725000Y-68880000D03*
%TO.P,D5,2*%
%TO.N,/LED_DIN5*%
X42725000Y-67380000D03*
%TO.P,D5,3*%
%TO.N,/+5V_LED*%
X37275000Y-67380000D03*
%TO.P,D5,4*%
%TO.N,/LED_DIN6*%
X37275000Y-68880000D03*
%TD*%
D15*
%TO.P,C1,1*%
%TO.N,/+5V_LED*%
X26950000Y-50750000D03*
%TO.P,C1,2*%
%TO.N,/GND*%
X26950000Y-48850000D03*
%TD*%
D16*
%TO.P,SW3,1*%
%TO.N,/GND*%
X55240000Y-41460000D03*
D17*
X53415000Y-41460000D03*
D18*
X51690000Y-41460000D03*
%TO.P,SW3,2*%
%TO.N,/KEY3*%
X65140000Y-38920000D03*
D17*
X63390000Y-38920000D03*
D16*
X61590000Y-38920000D03*
%TD*%
%TO.P,SW8,1*%
%TO.N,/GND*%
X36190000Y-79560000D03*
D17*
X34365000Y-79560000D03*
D18*
X32640000Y-79560000D03*
%TO.P,SW8,2*%
%TO.N,/KEY8*%
X46090000Y-77020000D03*
D17*
X44340000Y-77020000D03*
D16*
X42540000Y-77020000D03*
%TD*%
D20*
%TO.P,U1,1*%
%TO.N,/KEY1*%
X20380000Y-1590000D03*
%TO.P,U1,2*%
%TO.N,/KEY2*%
X20380000Y-4130000D03*
%TO.P,U1,3*%
%TO.N,/KEY3*%
X20380000Y-6670000D03*
%TO.P,U1,4*%
%TO.N,/KEY4*%
X20380000Y-9210000D03*
%TO.P,U1,5*%
%TO.N,/KEY5*%
X20380000Y-11750000D03*
%TO.P,U1,6*%
%TO.N,/KEY6*%
X20380000Y-14289999D03*
%TO.P,U1,7*%
%TO.N,/KEY7*%
X20380000Y-16830000D03*
%TO.P,U1,8*%
%TO.N,/KEY8*%
X20380000Y-19370000D03*
%TO.P,U1,9*%
%TO.N,/KEY9*%
X20380000Y-21910000D03*
%TO.P,U1,10*%
%TO.N,/LED_EN*%
X22920000Y-21910000D03*
%TO.P,U1,11*%
%TO.N,/ENC_A*%
X25460000Y-21910000D03*
%TO.P,U1,12*%
%TO.N,/ENC_B*%
X28000000Y-21910000D03*
%TO.P,U1,13*%
%TO.N,/ENC_SW*%
X30540000Y-21910000D03*
%TO.P,U1,14*%
%TO.N,/RGB_DATA*%
X33080000Y-21910000D03*
%TO.P,U1,15*%
%TO.N,/OLED_SDA*%
X35620000Y-21910000D03*
%TO.P,U1,16*%
%TO.N,/OLED_SCL*%
X35620000Y-19370000D03*
%TO.P,U1,17*%
%TO.N,unconnected-(U1-GP26-Pad17)*%
X35620000Y-16830000D03*
%TO.P,U1,18*%
%TO.N,unconnected-(U1-GP27-Pad18)*%
X35620000Y-14290000D03*
%TO.P,U1,19*%
%TO.N,unconnected-(U1-GP28-Pad19)*%
X35620000Y-11750000D03*
%TO.P,U1,20*%
%TO.N,unconnected-(U1-GP29-Pad20)*%
X35620000Y-9210001D03*
%TO.P,U1,21*%
%TO.N,/+3V3*%
X35620000Y-6670000D03*
%TO.P,U1,22*%
%TO.N,/GND*%
X35620000Y-4130000D03*
%TO.P,U1,23*%
%TO.N,/+5V_USB*%
X35620000Y-1590000D03*
%TD*%
D21*
%TO.N,/+5V_LED*%
X40000000Y-31104700D03*
X42752800Y-50852900D03*
X42752800Y-46890000D03*
X50093200Y-64810600D03*
X16163100Y-85896800D03*
X58521300Y-73565100D03*
X50093200Y-62834400D03*
X20164200Y-89318800D03*
X36626200Y-28059600D03*
%TO.N,/GND*%
X36668800Y-85169900D03*
%TO.N,/+3V3*%
X54087500Y-6670000D03*
X52559100Y-25663100D03*
%TO.N,/RGB_DATA*%
X39234100Y-22948100D03*
%TO.N,/RGB_5V*%
X46103600Y-27902400D03*
X46499300Y-31802800D03*
%TO.N,/OLED_SDA*%
X34783000Y-26949700D03*
%TO.N,/OLED_SCL*%
X32439600Y-23412000D03*
X29570100Y-26768800D03*
%TO.N,/LED_DIN1*%
X30739800Y-41359600D03*
%TO.N,/LED_DIN7*%
X49046200Y-68880000D03*
X38601500Y-84758700D03*
%TO.N,/LED_DIN4*%
X51882000Y-53669800D03*
X51882000Y-49830000D03*
%TO.N,/LED_DIN5*%
X43115300Y-71668900D03*
X43915900Y-68225100D03*
%TO.N,/KEY7*%
X16700000Y-29900000D03*
X16700000Y-35100000D03*
%TO.N,/LED_DIN2*%
X46140300Y-47263900D03*
X46140300Y-52821200D03*
%TO.N,/LED_DIN3*%
X63328800Y-51896400D03*
X63328800Y-48492500D03*
%TO.N,/LED_DIN8*%
X42833300Y-91747300D03*
X42833300Y-85412800D03*
%TO.N,/KEY4*%
X12597400Y-57040900D03*
%TO.N,/KEY5*%
X13828300Y-29290700D03*
X28912800Y-40687600D03*
%TO.N,/KEY2*%
X31089200Y-28821600D03*
X28587300Y-26835500D03*
%TD*%
%TO.N,/+5V_LED*%
D22*
X48420000Y-86430000D02*
X56325000Y-86430000D01*
X47908900Y-43497300D02*
X44516200Y-46890000D01*
X37275000Y-48330000D02*
X29370000Y-48330000D01*
X38427000Y-65801900D02*
X37275000Y-66953900D01*
X44516200Y-46890000D02*
X42752800Y-46890000D01*
X60200500Y-84851900D02*
X61798200Y-83254200D01*
X29370000Y-86430000D02*
X26950000Y-88850000D01*
X16999000Y-69376300D02*
X18809000Y-71186200D01*
X56325000Y-86430000D02*
X56325000Y-86003900D01*
X37275000Y-66953900D02*
X37275000Y-67380000D01*
X47908900Y-37605000D02*
X47908900Y-43497300D01*
X41408600Y-31104700D02*
X47908900Y-37605000D01*
X17368800Y-67380000D02*
X18225000Y-67380000D01*
X37275000Y-67380000D02*
X29370000Y-67380000D01*
X16163100Y-85896800D02*
X11812300Y-81546000D01*
X61798200Y-83254200D02*
X61798200Y-80855300D01*
X65050000Y-88850000D02*
X64567000Y-89333000D01*
X55172500Y-87370700D02*
X56113200Y-86430000D01*
X56113200Y-86430000D02*
X56325000Y-86430000D01*
X36954900Y-28059600D02*
X40000000Y-31104700D01*
X57477000Y-84851900D02*
X60200500Y-84851900D01*
X46000000Y-50750000D02*
X42855700Y-50750000D01*
X11773000Y-54502500D02*
X17945500Y-48330000D01*
X58521300Y-73565100D02*
X59903100Y-74946900D01*
X50093200Y-67380000D02*
X50093200Y-64810600D01*
X17945500Y-48330000D02*
X18225000Y-48330000D01*
X46000000Y-88850000D02*
X48420000Y-86430000D01*
X61798200Y-80855300D02*
X59434300Y-78491400D01*
X42855700Y-50750000D02*
X42752800Y-50852900D01*
X37275000Y-48330000D02*
X37275000Y-47833600D01*
X65050000Y-50750000D02*
X63341500Y-50750000D01*
X59434300Y-78491400D02*
X59434300Y-75415700D01*
X16163100Y-85896800D02*
X17691800Y-85896800D01*
X63341500Y-50750000D02*
X62872100Y-51219400D01*
X17691800Y-85896800D02*
X18225000Y-86430000D01*
X50093200Y-62834400D02*
X47125700Y-65801900D01*
X59434300Y-75415700D02*
X59903100Y-74946900D01*
X48420000Y-67380000D02*
X46000000Y-69800000D01*
X17368800Y-67380000D02*
X11773000Y-61784200D01*
X46469400Y-51219400D02*
X46000000Y-50750000D01*
X56325000Y-67380000D02*
X50093200Y-67380000D01*
X11773000Y-61784200D02*
X11773000Y-54502500D01*
X11812300Y-81546000D02*
X11812300Y-78182900D01*
X18809000Y-71186200D02*
X21187800Y-73565100D01*
X40000000Y-31104700D02*
X41408600Y-31104700D01*
X56325000Y-86003900D02*
X57477000Y-84851900D01*
X29370000Y-67380000D02*
X26950000Y-69800000D01*
X36626200Y-28059600D02*
X36954900Y-28059600D01*
X17368800Y-67380000D02*
X16999000Y-67749800D01*
X11812300Y-78182900D02*
X18809000Y-71186200D01*
X26481200Y-89318800D02*
X20164200Y-89318800D01*
X21187800Y-73565100D02*
X58521300Y-73565100D01*
X37275000Y-47833600D02*
X38218600Y-46890000D01*
X29370000Y-48330000D02*
X26950000Y-50750000D01*
X26950000Y-88850000D02*
X26481200Y-89318800D01*
X37275000Y-86430000D02*
X29370000Y-86430000D01*
X64567000Y-89333000D02*
X56071300Y-89333000D01*
X47125700Y-65801900D02*
X38427000Y-65801900D01*
X16999000Y-67749800D02*
X16999000Y-69376300D01*
X55172500Y-88434200D02*
X55172500Y-87370700D01*
X62872100Y-51219400D02*
X46469400Y-51219400D01*
X48420000Y-48330000D02*
X46000000Y-50750000D01*
X38218600Y-46890000D02*
X42752800Y-46890000D01*
X56071300Y-89333000D02*
X55172500Y-88434200D01*
X50093200Y-67380000D02*
X48420000Y-67380000D01*
X59903100Y-74946900D02*
X65050000Y-69800000D01*
X56325000Y-48330000D02*
X48420000Y-48330000D01*
%TO.N,/GND*%
D23*
X51397300Y-63125100D02*
X51397300Y-61010100D01*
X25970000Y-49830000D02*
X26950000Y-48850000D01*
X62942200Y-65792200D02*
X65050000Y-67900000D01*
X62000000Y-14400000D02*
X59998300Y-14400000D01*
X63053300Y-46853300D02*
X65050000Y-48850000D01*
X35620000Y-4130000D02*
X52542200Y-4130000D01*
X66189700Y-88265300D02*
X66189700Y-89429400D01*
X26950000Y-86950000D02*
X28730100Y-85169900D01*
X51690000Y-81260000D02*
X51690000Y-79560000D01*
X60161800Y-70748400D02*
X61775000Y-69135200D01*
X51690000Y-41460000D02*
X53415000Y-41460000D01*
X13590000Y-41460000D02*
X15315000Y-41460000D01*
X54064400Y-65792200D02*
X62942200Y-65792200D01*
X42771800Y-68926800D02*
X44797700Y-68926800D01*
X66189700Y-89429400D02*
X65636000Y-89983100D01*
X61775000Y-69135200D02*
X61775000Y-68880000D01*
X46000000Y-86950000D02*
X51690000Y-81260000D01*
X44839400Y-89353600D02*
X44839400Y-87930000D01*
X61775000Y-87930000D02*
X64560000Y-87930000D01*
X50986300Y-63536100D02*
X51397300Y-63125100D01*
X65050000Y-87440000D02*
X65050000Y-86950000D01*
X44973200Y-68926800D02*
X46000000Y-67900000D01*
X45020000Y-87930000D02*
X46000000Y-86950000D01*
X15315000Y-41460000D02*
X17140000Y-41460000D01*
X44797700Y-70258100D02*
X45288000Y-70748400D01*
X51690000Y-41460000D02*
X51690000Y-46853300D01*
X51690000Y-79560000D02*
X53415000Y-79560000D01*
X32640000Y-62210000D02*
X32640000Y-60510000D01*
X51516600Y-79386600D02*
X36363400Y-79386600D01*
X26950000Y-47150000D02*
X32640000Y-41460000D01*
X17262400Y-41337600D02*
X28570500Y-41337600D01*
X44797700Y-68926800D02*
X44797700Y-70258100D01*
X13590000Y-79560000D02*
X15315000Y-79560000D01*
X51397300Y-61010100D02*
X51293600Y-60906400D01*
X36190000Y-60510000D02*
X36295600Y-60404400D01*
X34365000Y-41460000D02*
X36190000Y-41460000D01*
X65900000Y-14400000D02*
X62000000Y-14400000D01*
X34365000Y-60510000D02*
X36190000Y-60510000D01*
X52542200Y-4130000D02*
X59998300Y-11586100D01*
X36295600Y-60404400D02*
X50791600Y-60404400D01*
X65364400Y-87440000D02*
X66189700Y-88265300D01*
X51397300Y-63125100D02*
X54064400Y-65792200D01*
X36190000Y-79560000D02*
X34365000Y-79560000D01*
X25970000Y-68880000D02*
X26950000Y-67900000D01*
X64070000Y-49830000D02*
X65050000Y-48850000D01*
X42725000Y-87930000D02*
X44839400Y-87930000D01*
X53415000Y-60510000D02*
X55240000Y-60510000D01*
X17140000Y-79560000D02*
X17262100Y-79437900D01*
X31777500Y-40597500D02*
X32640000Y-41460000D01*
X45288000Y-70748400D02*
X60161800Y-70748400D01*
X45468900Y-89983100D02*
X44839400Y-89353600D01*
X46000000Y-67900000D02*
X50363900Y-63536100D01*
X65636000Y-89983100D02*
X45468900Y-89983100D01*
X51690000Y-79560000D02*
X51516600Y-79386600D01*
X26950000Y-86950000D02*
X25970000Y-87930000D01*
X61775000Y-49830000D02*
X64070000Y-49830000D01*
X50791600Y-60404400D02*
X51293600Y-60906400D01*
X15315000Y-60510000D02*
X17140000Y-60510000D01*
X59998300Y-11586100D02*
X59998300Y-14400000D01*
X15315000Y-79560000D02*
X17140000Y-79560000D01*
X26950000Y-67900000D02*
X32640000Y-62210000D01*
X23675000Y-49830000D02*
X25970000Y-49830000D01*
X30013200Y-40597500D02*
X31777500Y-40597500D01*
X28730100Y-85169900D02*
X36668800Y-85169900D01*
X26950000Y-48850000D02*
X26950000Y-47150000D01*
X69000000Y-17500000D02*
X65900000Y-14400000D01*
X50363900Y-63536100D02*
X50986300Y-63536100D01*
X17262100Y-79437900D02*
X32517900Y-79437900D01*
X28622200Y-41389300D02*
X29221400Y-41389300D01*
X51690000Y-60510000D02*
X53415000Y-60510000D01*
X44839400Y-87930000D02*
X45020000Y-87930000D01*
X51690000Y-46853300D02*
X63053300Y-46853300D01*
X42725000Y-49830000D02*
X45020000Y-49830000D01*
X42725000Y-68880000D02*
X42771800Y-68926800D01*
X46000000Y-48850000D02*
X47996700Y-46853300D01*
X32640000Y-41460000D02*
X34365000Y-41460000D01*
X51690000Y-60510000D02*
X51293600Y-60906400D01*
X47996700Y-46853300D02*
X51690000Y-46853300D01*
X13590000Y-60510000D02*
X15315000Y-60510000D01*
X53415000Y-41460000D02*
X55240000Y-41460000D01*
X45020000Y-49830000D02*
X46000000Y-48850000D01*
X29221400Y-41389300D02*
X30013200Y-40597500D01*
X25970000Y-87930000D02*
X23675000Y-87930000D01*
X44797700Y-68926800D02*
X44973200Y-68926800D01*
X65050000Y-87440000D02*
X65364400Y-87440000D01*
X23675000Y-68880000D02*
X25970000Y-68880000D01*
X64560000Y-87930000D02*
X65050000Y-87440000D01*
X28570500Y-41337600D02*
X28622200Y-41389300D01*
X34365000Y-79560000D02*
X32640000Y-79560000D01*
X32517900Y-79437900D02*
X32640000Y-79560000D01*
X17140000Y-41460000D02*
X17262400Y-41337600D01*
X32640000Y-60510000D02*
X34365000Y-60510000D01*
X36363400Y-79386600D02*
X36190000Y-79560000D01*
X53415000Y-79560000D02*
X55240000Y-79560000D01*
%TO.N,/+3V3*%
D22*
X30103300Y-28673800D02*
X31025700Y-27751400D01*
X35115100Y-27751400D02*
X35816900Y-27049600D01*
X35816900Y-27049600D02*
X51172600Y-27049600D01*
X12540000Y-27000000D02*
X13932800Y-28392800D01*
X51172600Y-27049600D02*
X52559100Y-25663100D01*
X35620000Y-6670000D02*
X54087500Y-6670000D01*
X20823200Y-28392800D02*
X21104200Y-28673800D01*
X31025700Y-27751400D02*
X35115100Y-27751400D01*
X13932800Y-28392800D02*
X20823200Y-28392800D01*
X21104200Y-28673800D02*
X30103300Y-28673800D01*
%TO.N,/ENC_B*%
D23*
X32068600Y-24742800D02*
X40164000Y-24742800D01*
X31566900Y-24241100D02*
X32068600Y-24742800D01*
X30331100Y-24241100D02*
X31566900Y-24241100D01*
X28000000Y-21910000D02*
X30331100Y-24241100D01*
X42406800Y-22500000D02*
X54500000Y-22500000D01*
X40164000Y-24742800D02*
X42406800Y-22500000D01*
%TO.N,/RGB_DATA*%
X34407100Y-23237100D02*
X33080000Y-21910000D01*
X38945100Y-23237100D02*
X34407100Y-23237100D01*
X39234100Y-22948100D02*
X38945100Y-23237100D01*
%TO.N,/RGB_5V*%
X46499300Y-31802800D02*
X46499300Y-28298100D01*
X46499300Y-28298100D02*
X46103600Y-27902400D01*
%TO.N,/ENC_A*%
X55951100Y-23093100D02*
X55951100Y-18951100D01*
X50566400Y-25244500D02*
X51852900Y-23958000D01*
X31860800Y-25244500D02*
X50566400Y-25244500D01*
X25460000Y-21910000D02*
X28299000Y-24749000D01*
X31365300Y-24749000D02*
X31860800Y-25244500D01*
X55951100Y-18951100D02*
X54500000Y-17500000D01*
X55086200Y-23958000D02*
X55951100Y-23093100D01*
X28299000Y-24749000D02*
X31365300Y-24749000D01*
X51852900Y-23958000D02*
X55086200Y-23958000D01*
%TO.N,/ENC_SW*%
X32276400Y-24241100D02*
X39956100Y-24241100D01*
X39956100Y-24241100D02*
X48098900Y-16098300D01*
X48098900Y-16098300D02*
X62598300Y-16098300D01*
X62598300Y-16098300D02*
X69000000Y-22500000D01*
X30540000Y-22504700D02*
X32276400Y-24241100D01*
X30540000Y-21910000D02*
X30540000Y-22504700D01*
%TO.N,/OLED_SDA*%
X17620000Y-27000000D02*
X20281300Y-27000000D01*
X30381700Y-26949700D02*
X34783000Y-26949700D01*
X21353400Y-28072100D02*
X29259300Y-28072100D01*
X20281300Y-27000000D02*
X21353400Y-28072100D01*
X29259300Y-28072100D02*
X30381700Y-26949700D01*
%TO.N,/OLED_SCL*%
X32767000Y-23739400D02*
X32439600Y-23412000D01*
X35620000Y-19370000D02*
X36712200Y-19370000D01*
X29570100Y-26768800D02*
X29570100Y-26856700D01*
X36712200Y-19370000D02*
X39980300Y-22638100D01*
X39980300Y-22638100D02*
X39980300Y-23208600D01*
X21811400Y-27570400D02*
X19969400Y-25728400D01*
X28856400Y-27570400D02*
X21811400Y-27570400D01*
X19969400Y-25728400D02*
X16351600Y-25728400D01*
X39980300Y-23208600D02*
X39449500Y-23739400D01*
X39449500Y-23739400D02*
X32767000Y-23739400D01*
X29570100Y-26856700D02*
X28856400Y-27570400D01*
X16351600Y-25728400D02*
X15080000Y-27000000D01*
%TO.N,/LED_DIN1*%
X23886900Y-48330000D02*
X30739700Y-41477200D01*
X30739700Y-41477200D02*
X30739700Y-41359600D01*
X23675000Y-48330000D02*
X23886900Y-48330000D01*
X30739700Y-41359600D02*
X30739800Y-41359600D01*
%TO.N,/KEY6*%
X61590000Y-57970000D02*
X61590000Y-57040900D01*
X31158100Y-25251300D02*
X31653000Y-25746200D01*
X20380000Y-14290000D02*
X19020400Y-15649600D01*
X53676700Y-24459700D02*
X66862900Y-37645900D01*
X52060700Y-24459700D02*
X53676700Y-24459700D01*
X31653000Y-25746200D02*
X50774200Y-25746200D01*
X63390000Y-57144100D02*
X64314100Y-57144100D01*
X66862900Y-37645900D02*
X66862900Y-51950500D01*
X61590000Y-57040900D02*
X62312600Y-56318300D01*
X64314100Y-57144100D02*
X65140000Y-57970000D01*
X63390000Y-56731200D02*
X63390000Y-56318300D01*
X65655200Y-56903000D02*
X65596800Y-56961400D01*
X19020400Y-22424800D02*
X21846900Y-25251300D01*
X63390000Y-57144100D02*
X63390000Y-56731200D01*
X63620200Y-56961400D02*
X63390000Y-56731200D01*
X65596800Y-56961400D02*
X63620200Y-56961400D01*
X66862900Y-51950500D02*
X65655200Y-53158200D01*
X21846900Y-25251300D02*
X31158100Y-25251300D01*
X50774200Y-25746200D02*
X52060700Y-24459700D01*
X62312600Y-56318300D02*
X63390000Y-56318300D01*
X65655200Y-53158200D02*
X65655200Y-56903000D01*
X19020400Y-15649600D02*
X19020400Y-22424800D01*
X63390000Y-57970000D02*
X63390000Y-57144100D01*
%TO.N,/LED_DIN6*%
X62855100Y-68328400D02*
X61906700Y-67380000D01*
X62855100Y-69345400D02*
X62855100Y-68328400D01*
X44066200Y-70952700D02*
X44363600Y-71250100D01*
X44363600Y-71250100D02*
X60950400Y-71250100D01*
X39106100Y-70952700D02*
X44066200Y-70952700D01*
X60950400Y-71250100D02*
X62855100Y-69345400D01*
X61906700Y-67380000D02*
X61775000Y-67380000D01*
X37275000Y-69121600D02*
X39106100Y-70952700D01*
X37275000Y-68880000D02*
X37275000Y-69121600D01*
%TO.N,/LED_DIN7*%
X56325000Y-68880000D02*
X49046200Y-68880000D01*
X38311000Y-84468200D02*
X38601500Y-84758700D01*
X23675000Y-86430000D02*
X25636800Y-84468200D01*
X25636800Y-84468200D02*
X38311000Y-84468200D01*
%TO.N,/LED_DIN4*%
X28629100Y-62646600D02*
X23895700Y-67380000D01*
X28629100Y-61502200D02*
X28629100Y-62646600D01*
X23895700Y-67380000D02*
X23675000Y-67380000D01*
X56325000Y-49830000D02*
X51882000Y-49830000D01*
X51882000Y-53669800D02*
X36461500Y-53669800D01*
X36461500Y-53669800D02*
X28629100Y-61502200D01*
%TO.N,/LED_DIN5*%
X20705500Y-71668900D02*
X43115300Y-71668900D01*
X18225000Y-68880000D02*
X18225000Y-69188400D01*
X42725000Y-67380000D02*
X43070800Y-67380000D01*
X18225000Y-69188400D02*
X20705500Y-71668900D01*
X43070800Y-67380000D02*
X43915900Y-68225100D01*
%TO.N,/KEY7*%
X25290000Y-76194100D02*
X25290000Y-75368300D01*
X25290000Y-76194100D02*
X26214100Y-76194100D01*
X16700000Y-29900000D02*
X16700000Y-35100000D01*
X24212600Y-75368300D02*
X25290000Y-75368300D01*
X25290000Y-77020000D02*
X25290000Y-76194100D01*
X23490000Y-76090900D02*
X24212600Y-75368300D01*
X23490000Y-77020000D02*
X23490000Y-76090900D01*
X26214100Y-76194100D02*
X27040000Y-77020000D01*
%TO.N,/LED_DIN2*%
X42725000Y-48330000D02*
X44238000Y-48330000D01*
X20940100Y-52821200D02*
X18225000Y-50106100D01*
X46140300Y-52821200D02*
X20940100Y-52821200D01*
X18225000Y-50106100D02*
X18225000Y-49830000D01*
X44238000Y-48330000D02*
X45304100Y-47263900D01*
X45304100Y-47263900D02*
X46140300Y-47263900D01*
%TO.N,/LED_DIN3*%
X61775000Y-48330000D02*
X61937500Y-48492500D01*
X37275000Y-49830000D02*
X37275000Y-50070800D01*
X61937500Y-48492500D02*
X63328800Y-48492500D01*
X37275000Y-50070800D02*
X39100600Y-51896400D01*
X39100600Y-51896400D02*
X63328800Y-51896400D01*
%TO.N,/LED_DIN8*%
X19873600Y-90020500D02*
X20011800Y-90020500D01*
X42725000Y-86430000D02*
X42725000Y-85521100D01*
X19462500Y-89609400D02*
X19873600Y-90020500D01*
X18225000Y-88233700D02*
X19462500Y-89471200D01*
X19462500Y-89471200D02*
X19462500Y-89609400D01*
X42725000Y-85521100D02*
X42833300Y-85412800D01*
X21738600Y-91747300D02*
X42833300Y-91747300D01*
X20011800Y-90020500D02*
X21738600Y-91747300D01*
X18225000Y-87930000D02*
X18225000Y-88233700D01*
%TO.N,/KEY4*%
X26214100Y-57144100D02*
X27040000Y-57970000D01*
X23490000Y-57040900D02*
X12597400Y-57040900D01*
X25290000Y-57144100D02*
X25290000Y-56318300D01*
X25290000Y-57970000D02*
X25290000Y-57144100D01*
X23490000Y-57970000D02*
X23490000Y-57040900D01*
X23490000Y-57040900D02*
X24212600Y-56318300D01*
X25290000Y-57144100D02*
X26214100Y-57144100D01*
X24212600Y-56318300D02*
X25290000Y-56318300D01*
%TO.N,/LED_DIN9*%
X66691400Y-89637200D02*
X65843800Y-90484800D01*
X61775000Y-86430000D02*
X62186100Y-86018900D01*
X65785700Y-86018900D02*
X66691400Y-86924600D01*
X39528100Y-90484800D02*
X37275000Y-88231700D01*
X62186100Y-86018900D02*
X65785700Y-86018900D01*
X66691400Y-86924600D02*
X66691400Y-89637200D01*
X65843800Y-90484800D02*
X39528100Y-90484800D01*
X37275000Y-88231700D02*
X37275000Y-87930000D01*
%TO.N,/KEY5*%
X44340000Y-57144100D02*
X44340000Y-56318300D01*
X20386200Y-29290700D02*
X13828300Y-29290700D01*
X44340000Y-56318300D02*
X43304600Y-56318300D01*
X42540000Y-57082900D02*
X42540000Y-57970000D01*
X45264100Y-57144100D02*
X46090000Y-57970000D01*
X28912800Y-37817300D02*
X20386200Y-29290700D01*
X44340000Y-57144100D02*
X45264100Y-57144100D01*
X28912800Y-40687600D02*
X28912800Y-37817300D01*
X44340000Y-57970000D02*
X44340000Y-57144100D01*
X43304600Y-56318300D02*
X42540000Y-57082900D01*
%TO.N,/KEY9*%
X63390000Y-76194100D02*
X64314100Y-76194100D01*
X61590000Y-77020000D02*
X61590000Y-76090900D01*
X64314100Y-76194100D02*
X65140000Y-77020000D01*
X63390000Y-77020000D02*
X63390000Y-76194100D01*
X62312600Y-75368300D02*
X63390000Y-75368300D01*
X63390000Y-76194100D02*
X63390000Y-75368300D01*
X61590000Y-76090900D02*
X62312600Y-75368300D01*
%TO.N,/KEY1*%
X25290000Y-38920000D02*
X25290000Y-38094100D01*
X8746600Y-28021700D02*
X18715800Y-37990900D01*
X23490000Y-37990900D02*
X24212600Y-37268300D01*
X20380000Y-1590000D02*
X8746600Y-13223400D01*
X26214100Y-38094100D02*
X27040000Y-38920000D01*
X25290000Y-38094100D02*
X26214100Y-38094100D01*
X8746600Y-13223400D02*
X8746600Y-28021700D01*
X25290000Y-38094100D02*
X25290000Y-37268300D01*
X24212600Y-37268300D02*
X25290000Y-37268300D01*
X23490000Y-38920000D02*
X23490000Y-37990900D01*
X18715800Y-37990900D02*
X23490000Y-37990900D01*
%TO.N,/KEY2*%
X33370700Y-28821600D02*
X31089200Y-28821600D01*
X17936900Y-6573100D02*
X17936900Y-22773500D01*
X21998900Y-26835500D02*
X28587300Y-26835500D01*
X44340000Y-38920000D02*
X44340000Y-38094100D01*
X45264100Y-38094100D02*
X46090000Y-38920000D01*
X42540000Y-37990900D02*
X43262600Y-37268300D01*
X43262600Y-37268300D02*
X44340000Y-37268300D01*
X20380000Y-4130000D02*
X17936900Y-6573100D01*
X44340000Y-38094100D02*
X44340000Y-37268300D01*
X17936900Y-22773500D02*
X21998900Y-26835500D01*
X42540000Y-38920000D02*
X42540000Y-37990900D01*
X42540000Y-37990900D02*
X33370700Y-28821600D01*
X44340000Y-38094100D02*
X45264100Y-38094100D01*
%TO.N,/KEY3*%
X30962000Y-25764700D02*
X31445200Y-26247900D01*
X63390000Y-38094100D02*
X63390000Y-37268300D01*
X64417400Y-37268300D02*
X65140000Y-37990900D01*
X62415900Y-38094100D02*
X61590000Y-38920000D01*
X63390000Y-38094100D02*
X62415900Y-38094100D01*
X18487200Y-22610800D02*
X21641100Y-25764700D01*
X20380000Y-6670000D02*
X18487200Y-8562800D01*
X63390000Y-35421100D02*
X63390000Y-37268300D01*
X65140000Y-37990900D02*
X65140000Y-38920000D01*
X50982000Y-26247900D02*
X52268500Y-24961400D01*
X18487200Y-8562800D02*
X18487200Y-22610800D01*
X63390000Y-38920000D02*
X63390000Y-38094100D01*
X52268500Y-24961400D02*
X52930300Y-24961400D01*
X63390000Y-37268300D02*
X64417400Y-37268300D01*
X52930300Y-24961400D02*
X63390000Y-35421100D01*
X21641100Y-25764700D02*
X30962000Y-25764700D01*
X31445200Y-26247900D02*
X50982000Y-26247900D01*
%TO.N,/KEY8*%
X43262600Y-75368300D02*
X44340000Y-75368300D01*
X44340000Y-77020000D02*
X44340000Y-76194100D01*
X44340000Y-76194100D02*
X44340000Y-75368300D01*
X44340000Y-76194100D02*
X45264100Y-76194100D01*
X42540000Y-76090900D02*
X43262600Y-75368300D01*
X42540000Y-77020000D02*
X42540000Y-76090900D01*
X45264100Y-76194100D02*
X46090000Y-77020000D01*
%TD*%
M02*
