%TF.GenerationSoftware,KiCad,Pcbnew,10.0.5*%
%TF.CreationDate,2026-09-05T17:26:32-04:00*%
%TF.ProjectId,goober,676f6f62-6572-42e6-9b69-6361645f7063,A.1*%
%TF.SameCoordinates,Original*%
%TF.FileFunction,Copper,L1,Top*%
%TF.FilePolarity,Positive*%
%FSLAX46Y46*%
G04 Gerber Fmt 4.6, Leading zero omitted, Abs format (unit mm)*
G04 Created by KiCad (PCBNEW 10.0.5) date 2026-09-05 17:26:32*
%MOMM*%
%LPD*%
G01*
G04 APERTURE LIST*
G04 Aperture macros list*
%AMRoundRect*
0 Rectangle with rounded corners*
0 $1 Rounding radius*
0 $2 $3 $4 $5 $6 $7 $8 $9 X,Y pos of 4 corners*
0 Add a 4 corners polygon primitive as box body*
4,1,4,$2,$3,$4,$5,$6,$7,$8,$9,$2,$3,0*
0 Add four circle primitives for the rounded corners*
1,1,$1+$1,$2,$3*
1,1,$1+$1,$4,$5*
1,1,$1+$1,$6,$7*
1,1,$1+$1,$8,$9*
0 Add four rect primitives between the rounded corners*
20,1,$1+$1,$2,$3,$4,$5,0*
20,1,$1+$1,$4,$5,$6,$7,0*
20,1,$1+$1,$6,$7,$8,$9,0*
20,1,$1+$1,$8,$9,$2,$3,0*%
G04 Aperture macros list end*
%TA.AperFunction,SMDPad,CuDef*%
%ADD10RoundRect,0.250000X-0.262500X-0.450000X0.262500X-0.450000X0.262500X0.450000X-0.262500X0.450000X0*%
%TD*%
%TA.AperFunction,SMDPad,CuDef*%
%ADD11RoundRect,0.250000X-0.375000X-0.625000X0.375000X-0.625000X0.375000X0.625000X-0.375000X0.625000X0*%
%TD*%
%TA.AperFunction,SMDPad,CuDef*%
%ADD12RoundRect,0.250000X0.475000X-0.250000X0.475000X0.250000X-0.475000X0.250000X-0.475000X-0.250000X0*%
%TD*%
%TA.AperFunction,SMDPad,CuDef*%
%ADD13RoundRect,0.250000X-0.250000X-0.475000X0.250000X-0.475000X0.250000X0.475000X-0.250000X0.475000X0*%
%TD*%
%TA.AperFunction,SMDPad,CuDef*%
%ADD14RoundRect,0.150000X-0.587500X-0.150000X0.587500X-0.150000X0.587500X0.150000X-0.587500X0.150000X0*%
%TD*%
%TA.AperFunction,SMDPad,CuDef*%
%ADD15RoundRect,0.150000X-0.825000X-0.150000X0.825000X-0.150000X0.825000X0.150000X-0.825000X0.150000X0*%
%TD*%
%TA.AperFunction,ComponentPad*%
%ADD16R,2.000000X2.000000*%
%TD*%
%TA.AperFunction,ComponentPad*%
%ADD17C,2.000000*%
%TD*%
%TA.AperFunction,ComponentPad*%
%ADD18R,3.200000X2.000000*%
%TD*%
%TA.AperFunction,ComponentPad*%
%ADD19R,1.700000X1.700000*%
%TD*%
%TA.AperFunction,ComponentPad*%
%ADD20C,1.700000*%
%TD*%
%TA.AperFunction,SMDPad,CuDef*%
%ADD21RoundRect,0.250000X0.450000X-0.262500X0.450000X0.262500X-0.450000X0.262500X-0.450000X-0.262500X0*%
%TD*%
%TA.AperFunction,ComponentPad*%
%ADD22C,3.300000*%
%TD*%
%TA.AperFunction,ComponentPad*%
%ADD23C,1.800000*%
%TD*%
%TA.AperFunction,ViaPad*%
%ADD24C,0.600000*%
%TD*%
%TA.AperFunction,Conductor*%
%ADD25C,0.400000*%
%TD*%
%TA.AperFunction,Conductor*%
%ADD26C,0.200000*%
%TD*%
G04 APERTURE END LIST*
D10*
%TO.P,R1,1*%
%TO.N,/+5V_FUSED*%
X34087500Y-33000000D03*
%TO.P,R1,2*%
%TO.N,/LED_GATE_N*%
X35912500Y-33000000D03*
%TD*%
D11*
%TO.P,F1,1*%
%TO.N,/+5V_USB*%
X40600000Y-7000000D03*
%TO.P,F1,2*%
%TO.N,/+5V_FUSED*%
X43400000Y-7000000D03*
%TD*%
D12*
%TO.P,C11,1*%
%TO.N,/+5V_LED*%
X40000000Y-29950000D03*
%TO.P,C11,2*%
%TO.N,/GND*%
X40000000Y-28050000D03*
%TD*%
D13*
%TO.P,C10,1*%
%TO.N,/+5V_USB*%
X41050000Y-23000000D03*
%TO.P,C10,2*%
%TO.N,/GND*%
X42950000Y-23000000D03*
%TD*%
D10*
%TO.P,R8,1*%
%TO.N,/+3V3*%
X60087500Y-10000000D03*
%TO.P,R8,2*%
%TO.N,/ENC_B*%
X61912500Y-10000000D03*
%TD*%
D14*
%TO.P,Q2,1*%
%TO.N,/LED_BASE*%
X25062500Y-29050000D03*
%TO.P,Q2,2*%
%TO.N,/GND*%
X25062500Y-30950000D03*
%TO.P,Q2,3*%
%TO.N,/LED_GATE_N*%
X26937500Y-30000000D03*
%TD*%
D15*
%TO.P,U2,1*%
%TO.N,/LED_GATE_N*%
X44525000Y-25190000D03*
%TO.P,U2,2*%
%TO.N,/RGB_DATA*%
X44525000Y-26460000D03*
%TO.P,U2,3*%
%TO.N,/RGB_5V*%
X44525000Y-27730000D03*
%TO.P,U2,4*%
%TO.N,/+5V_USB*%
X44525000Y-29000000D03*
%TO.P,U2,5*%
%TO.N,/GND*%
X44525000Y-30270000D03*
%TO.P,U2,6*%
%TO.N,unconnected-(U2-Y2-Pad6)*%
X44525000Y-31540000D03*
%TO.P,U2,7*%
%TO.N,/GND*%
X44525000Y-32810000D03*
%TO.P,U2,8*%
%TO.N,unconnected-(U2-Y3-Pad8)*%
X49475000Y-32810000D03*
%TO.P,U2,9*%
%TO.N,/GND*%
X49475000Y-31540000D03*
%TO.P,U2,10*%
%TO.N,/+5V_USB*%
X49475000Y-30270000D03*
%TO.P,U2,11*%
%TO.N,unconnected-(U2-Y4-Pad11)*%
X49475000Y-29000000D03*
%TO.P,U2,12*%
%TO.N,/GND*%
X49475000Y-27730000D03*
%TO.P,U2,13*%
%TO.N,/+5V_USB*%
X49475000Y-26460000D03*
%TO.P,U2,14*%
X49475000Y-25190000D03*
%TD*%
D16*
%TO.P,ENC1,A*%
%TO.N,/ENC_A*%
X54500000Y-17500000D03*
D17*
%TO.P,ENC1,B*%
%TO.N,/ENC_B*%
X54500000Y-22500000D03*
%TO.P,ENC1,C*%
%TO.N,/GND*%
X54500000Y-20000000D03*
D18*
%TO.P,ENC1,MP*%
X62000000Y-14400000D03*
X62000000Y-25600000D03*
D17*
%TO.P,ENC1,S1*%
%TO.N,/ENC_SW*%
X69000000Y-22500000D03*
%TO.P,ENC1,S2*%
%TO.N,/GND*%
X69000000Y-17500000D03*
%TD*%
D10*
%TO.P,R5,1*%
%TO.N,/+3V3*%
X9087500Y-31000000D03*
%TO.P,R5,2*%
%TO.N,/OLED_SDA*%
X10912500Y-31000000D03*
%TD*%
D19*
%TO.P,J1,1*%
%TO.N,/GND*%
X10000000Y-27000000D03*
D20*
%TO.P,J1,2*%
%TO.N,/+3V3*%
X12540000Y-27000000D03*
%TO.P,J1,3*%
%TO.N,/OLED_SCL*%
X15080000Y-27000000D03*
%TO.P,J1,4*%
%TO.N,/OLED_SDA*%
X17620000Y-27000000D03*
%TD*%
D10*
%TO.P,R9,1*%
%TO.N,/+3V3*%
X67087500Y-10000000D03*
%TO.P,R9,2*%
%TO.N,/ENC_SW*%
X68912500Y-10000000D03*
%TD*%
D21*
%TO.P,R2,1*%
%TO.N,/LED_EN*%
X22000000Y-30912500D03*
%TO.P,R2,2*%
%TO.N,/LED_BASE*%
X22000000Y-29087500D03*
%TD*%
D10*
%TO.P,R6,1*%
%TO.N,/+3V3*%
X14087500Y-31000000D03*
%TO.P,R6,2*%
%TO.N,/OLED_SCL*%
X15912500Y-31000000D03*
%TD*%
%TO.P,R7,1*%
%TO.N,/+3V3*%
X54087500Y-10000000D03*
%TO.P,R7,2*%
%TO.N,/ENC_A*%
X55912500Y-10000000D03*
%TD*%
%TO.P,R3,1*%
%TO.N,/LED_BASE*%
X26087500Y-34000000D03*
%TO.P,R3,2*%
%TO.N,/GND*%
X27912500Y-34000000D03*
%TD*%
D14*
%TO.P,Q1,1*%
%TO.N,/LED_GATE_N*%
X34062500Y-28050000D03*
%TO.P,Q1,2*%
%TO.N,/+5V_FUSED*%
X34062500Y-29950000D03*
%TO.P,Q1,3*%
%TO.N,/+5V_LED*%
X35937500Y-29000000D03*
%TD*%
D10*
%TO.P,R4,1*%
%TO.N,/RGB_5V*%
X46087500Y-36000000D03*
%TO.P,R4,2*%
%TO.N,/LED_DIN1*%
X47912500Y-36000000D03*
%TD*%
D22*
%TO.P,SW6,1*%
%TO.N,/GND*%
X55240000Y-60510000D03*
%TO.P,SW6,2*%
%TO.N,/KEY6*%
X61590000Y-57970000D03*
%TD*%
%TO.P,SW7,1*%
%TO.N,/GND*%
X17140000Y-79560000D03*
%TO.P,SW7,2*%
%TO.N,/KEY7*%
X23490000Y-77020000D03*
%TD*%
%TO.P,SW4,1*%
%TO.N,/GND*%
X17140000Y-60510000D03*
%TO.P,SW4,2*%
%TO.N,/KEY4*%
X23490000Y-57970000D03*
%TD*%
%TO.P,SW5,1*%
%TO.N,/GND*%
X36190000Y-60510000D03*
%TO.P,SW5,2*%
%TO.N,/KEY5*%
X42540000Y-57970000D03*
%TD*%
%TO.P,SW9,1*%
%TO.N,/GND*%
X55240000Y-79560000D03*
%TO.P,SW9,2*%
%TO.N,/KEY9*%
X61590000Y-77020000D03*
%TD*%
%TO.P,SW1,1*%
%TO.N,/GND*%
X17140000Y-41460000D03*
%TO.P,SW1,2*%
%TO.N,/KEY1*%
X23490000Y-38920000D03*
%TD*%
%TO.P,SW2,1*%
%TO.N,/GND*%
X36190000Y-41460000D03*
%TO.P,SW2,2*%
%TO.N,/KEY2*%
X42540000Y-38920000D03*
%TD*%
%TO.P,SW3,1*%
%TO.N,/GND*%
X55240000Y-41460000D03*
%TO.P,SW3,2*%
%TO.N,/KEY3*%
X61590000Y-38920000D03*
%TD*%
%TO.P,SW8,1*%
%TO.N,/GND*%
X36190000Y-79560000D03*
%TO.P,SW8,2*%
%TO.N,/KEY8*%
X42540000Y-77020000D03*
%TD*%
D23*
%TO.P,U1,1*%
%TO.N,/KEY1*%
X20380000Y-1590000D03*
%TO.P,U1,2*%
%TO.N,/KEY2*%
X20380000Y-4130000D03*
%TO.P,U1,3*%
%TO.N,/KEY3*%
X20380000Y-6670000D03*
%TO.P,U1,4*%
%TO.N,/KEY4*%
X20380000Y-9210000D03*
%TO.P,U1,5*%
%TO.N,/KEY5*%
X20380000Y-11750000D03*
%TO.P,U1,6*%
%TO.N,/KEY6*%
X20380000Y-14289999D03*
%TO.P,U1,7*%
%TO.N,/KEY7*%
X20380000Y-16830000D03*
%TO.P,U1,8*%
%TO.N,/KEY8*%
X20380000Y-19370000D03*
%TO.P,U1,9*%
%TO.N,/KEY9*%
X20380000Y-21910000D03*
%TO.P,U1,10*%
%TO.N,/LED_EN*%
X22920000Y-21910000D03*
%TO.P,U1,11*%
%TO.N,/ENC_A*%
X25460000Y-21910000D03*
%TO.P,U1,12*%
%TO.N,/ENC_B*%
X28000000Y-21910000D03*
%TO.P,U1,13*%
%TO.N,/ENC_SW*%
X30540000Y-21910000D03*
%TO.P,U1,14*%
%TO.N,/RGB_DATA*%
X33080000Y-21910000D03*
%TO.P,U1,15*%
%TO.N,/OLED_SDA*%
X35620000Y-21910000D03*
%TO.P,U1,16*%
%TO.N,/OLED_SCL*%
X35620000Y-19370000D03*
%TO.P,U1,17*%
%TO.N,unconnected-(U1-GP26-Pad17)*%
X35620000Y-16830000D03*
%TO.P,U1,18*%
%TO.N,unconnected-(U1-GP27-Pad18)*%
X35620000Y-14290000D03*
%TO.P,U1,19*%
%TO.N,unconnected-(U1-GP28-Pad19)*%
X35620000Y-11750000D03*
%TO.P,U1,20*%
%TO.N,unconnected-(U1-GP29-Pad20)*%
X35620000Y-9210001D03*
%TO.P,U1,21*%
%TO.N,/+3V3*%
X35620000Y-6670000D03*
%TO.P,U1,22*%
%TO.N,/GND*%
X35620000Y-4130000D03*
%TO.P,U1,23*%
%TO.N,/+5V_USB*%
X35620000Y-1590000D03*
%TD*%
D24*
%TO.N,/+5V_LED*%
X40000000Y-31104700D03*
X42752800Y-50852900D03*
X42752800Y-46890000D03*
X50093200Y-64810600D03*
X16163100Y-85896800D03*
X58521300Y-73565100D03*
X50093200Y-62834400D03*
X20164200Y-89318800D03*
X36626200Y-28059600D03*
%TO.N,/GND*%
X36668800Y-85169900D03*
%TO.N,/+3V3*%
X54087500Y-6670000D03*
X52559100Y-25663100D03*
%TO.N,/RGB_DATA*%
X39234100Y-22948100D03*
%TO.N,/RGB_5V*%
X46103600Y-27902400D03*
X46499300Y-31802800D03*
%TO.N,/OLED_SDA*%
X34783000Y-26949700D03*
%TO.N,/OLED_SCL*%
X32439600Y-23412000D03*
X29570100Y-26768800D03*
%TO.N,/LED_DIN1*%
X30739800Y-41359600D03*
%TO.N,/LED_DIN7*%
X49046200Y-68880000D03*
X38601500Y-84758700D03*
%TO.N,/LED_DIN4*%
X51882000Y-53669800D03*
X51882000Y-49830000D03*
%TO.N,/LED_DIN5*%
X43115300Y-71668900D03*
X43915900Y-68225100D03*
%TO.N,/KEY7*%
X16700000Y-29900000D03*
X16700000Y-35100000D03*
%TO.N,/LED_DIN2*%
X46140300Y-47263900D03*
X46140300Y-52821200D03*
%TO.N,/LED_DIN3*%
X63328800Y-51896400D03*
X63328800Y-48492500D03*
%TO.N,/LED_DIN8*%
X42833300Y-91747300D03*
X42833300Y-85412800D03*
%TO.N,/KEY4*%
X12597400Y-57040900D03*
%TO.N,/KEY5*%
X13828300Y-29290700D03*
X28912800Y-40687600D03*
%TO.N,/KEY2*%
X31089200Y-28821600D03*
X28587300Y-26835500D03*
%TD*%
%TO.N,/+5V_FUSED*%
D25*
X43400000Y-7000000D02*
X37456200Y-12943800D01*
X37456200Y-12943800D02*
X37456200Y-29141300D01*
X36622500Y-29975000D02*
X34087500Y-29975000D01*
X37456200Y-29141300D02*
X36622500Y-29975000D01*
X34087500Y-29975000D02*
X34062500Y-29950000D01*
X34087500Y-33000000D02*
X34087500Y-29975000D01*
%TO.N,/LED_GATE_N*%
D26*
X32823600Y-30000000D02*
X32823600Y-33403800D01*
X44525000Y-22196300D02*
X44525000Y-25190000D01*
X38227300Y-22649800D02*
X40076500Y-20800600D01*
X32823600Y-33403800D02*
X33527700Y-34107900D01*
X43129300Y-20800600D02*
X44525000Y-22196300D01*
X35912500Y-33000000D02*
X38227300Y-30685200D01*
X32823600Y-29288900D02*
X34062500Y-28050000D01*
X40076500Y-20800600D02*
X43129300Y-20800600D01*
X38227300Y-30685200D02*
X38227300Y-22649800D01*
X33527700Y-34107900D02*
X34804600Y-34107900D01*
X32823600Y-30000000D02*
X26937500Y-30000000D01*
X34804600Y-34107900D02*
X35912500Y-33000000D01*
X32823600Y-30000000D02*
X32823600Y-29288900D01*
%TO.N,/+5V_USB*%
D25*
X35620000Y-1590000D02*
X39602000Y-5572000D01*
X49475000Y-25190000D02*
X49475000Y-26460000D01*
X40600000Y-5572000D02*
X44107300Y-5572000D01*
X43820800Y-29000000D02*
X41050000Y-26229200D01*
X41050000Y-26229200D02*
X41050000Y-23000000D01*
X44107300Y-5572000D02*
X49475000Y-10939700D01*
X44525000Y-29000000D02*
X47991700Y-29000000D01*
X48774900Y-26460000D02*
X49475000Y-26460000D01*
X39602000Y-5572000D02*
X40600000Y-5572000D01*
X47991700Y-27243200D02*
X48774900Y-26460000D01*
X40600000Y-5572000D02*
X40600000Y-7000000D01*
X49475000Y-10939700D02*
X49475000Y-25190000D01*
X44525000Y-29000000D02*
X43820800Y-29000000D01*
X47991700Y-29000000D02*
X47991700Y-27243200D01*
X48839800Y-30270000D02*
X47991700Y-29421900D01*
X47991700Y-29421900D02*
X47991700Y-29000000D01*
X49475000Y-30270000D02*
X48839800Y-30270000D01*
%TO.N,/+5V_LED*%
X35937500Y-29000000D02*
X36626200Y-28311300D01*
X36626200Y-28311300D02*
X36626200Y-28059600D01*
X42752800Y-46890000D02*
X42752800Y-50852900D01*
X50093200Y-62834400D02*
X50093200Y-58193300D01*
X19221900Y-89318800D02*
X16163100Y-86260000D01*
X20164200Y-89318800D02*
X19221900Y-89318800D01*
X50093200Y-64810600D02*
X58521300Y-73238700D01*
X16163100Y-86260000D02*
X16163100Y-85896800D01*
X40000000Y-29950000D02*
X40000000Y-31104700D01*
X50093200Y-64810600D02*
X50093200Y-62834400D01*
X50093200Y-58193300D02*
X42752800Y-50852900D01*
X58521300Y-73238700D02*
X58521300Y-73565100D01*
%TO.N,/GND*%
D26*
X36489200Y-81075200D02*
X36668800Y-81254800D01*
X36489200Y-75157500D02*
X36489200Y-81075200D01*
X36668800Y-81254800D02*
X36668800Y-85169900D01*
X64001700Y-25600000D02*
X64001700Y-14400000D01*
X49475000Y-31540000D02*
X49036100Y-31101100D01*
X40000000Y-22336200D02*
X40492800Y-21843400D01*
X45200000Y-30270000D02*
X44525000Y-30270000D01*
X55539200Y-60210800D02*
X55539200Y-41759200D01*
X55539200Y-41759200D02*
X55240000Y-41460000D01*
X28730000Y-34000000D02*
X36190000Y-41460000D01*
X59998300Y-25600000D02*
X53260800Y-25600000D01*
X36489200Y-60809200D02*
X36190000Y-60510000D01*
X55240000Y-41460000D02*
X55240000Y-36803900D01*
X50889500Y-27730000D02*
X50889500Y-30626600D01*
X53260800Y-25372400D02*
X53096900Y-25208500D01*
X40492800Y-21843400D02*
X41793400Y-21843400D01*
X36489200Y-79260800D02*
X36489200Y-75157500D01*
X46031100Y-31101100D02*
X45200000Y-30270000D01*
X62000000Y-14400000D02*
X64001700Y-14400000D01*
X8155900Y-51525900D02*
X8155900Y-30095800D01*
X44525000Y-32810000D02*
X44038900Y-32810000D01*
X17140000Y-60510000D02*
X8155900Y-51525900D01*
X40000000Y-28050000D02*
X40000000Y-22336200D01*
X50889500Y-30626600D02*
X49976100Y-31540000D01*
X10000000Y-27000000D02*
X10000000Y-28251700D01*
X36489200Y-75157500D02*
X36489200Y-60809200D01*
X40036500Y-28050000D02*
X40000000Y-28050000D01*
X55240000Y-60510000D02*
X55539200Y-60210800D01*
X63000900Y-25600000D02*
X64001700Y-25600000D01*
X27912500Y-34000000D02*
X28730000Y-34000000D01*
X53260800Y-25953800D02*
X53260800Y-25600000D01*
X51484600Y-27730000D02*
X53260800Y-25953800D01*
X36190000Y-41460000D02*
X38870400Y-38779600D01*
X38870400Y-29179600D02*
X40000000Y-28050000D01*
X50889500Y-27730000D02*
X49475000Y-27730000D01*
X8155900Y-30095800D02*
X10000000Y-28251700D01*
X63000900Y-25600000D02*
X62000000Y-25600000D01*
X43147700Y-31918800D02*
X43147700Y-31161200D01*
X17140000Y-60510000D02*
X17410900Y-60780900D01*
X62000000Y-25600000D02*
X59998300Y-25600000D01*
X38870400Y-38779600D02*
X38870400Y-29179600D01*
X55240000Y-36803900D02*
X49976100Y-31540000D01*
X50889500Y-27730000D02*
X51484600Y-27730000D01*
X44038900Y-32810000D02*
X43147700Y-31918800D01*
X17410900Y-79289100D02*
X17140000Y-79560000D01*
X27912500Y-33800000D02*
X27912500Y-34000000D01*
X43147700Y-31161200D02*
X44038900Y-30270000D01*
X44038900Y-30270000D02*
X44525000Y-30270000D01*
X17410900Y-60780900D02*
X17410900Y-79289100D01*
X43147700Y-31161200D02*
X40036500Y-28050000D01*
X53260800Y-25600000D02*
X53260800Y-25372400D01*
X53096900Y-25208500D02*
X53096900Y-21403100D01*
X53096900Y-21403100D02*
X54500000Y-20000000D01*
X36190000Y-79560000D02*
X36489200Y-79260800D01*
X41793400Y-21843400D02*
X42950000Y-23000000D01*
X49036100Y-31101100D02*
X46031100Y-31101100D01*
X25062500Y-30950000D02*
X27912500Y-33800000D01*
X49976100Y-31540000D02*
X49475000Y-31540000D01*
%TO.N,/+3V3*%
D25*
X52440600Y-25544600D02*
X52559100Y-25663100D01*
X9087500Y-31000000D02*
X10635000Y-29452500D01*
X10635000Y-29452500D02*
X12540000Y-29452500D01*
X14087500Y-31000000D02*
X12540000Y-29452500D01*
X54087500Y-10000000D02*
X52440600Y-11646900D01*
X52440600Y-11646900D02*
X52440600Y-25544600D01*
X61293200Y-8794300D02*
X65881800Y-8794300D01*
X58881000Y-8793500D02*
X60087500Y-10000000D01*
X54087500Y-8793500D02*
X54087500Y-6670000D01*
X60087500Y-10000000D02*
X61293200Y-8794300D01*
X54087500Y-10000000D02*
X54087500Y-8793500D01*
X54087500Y-8793500D02*
X58881000Y-8793500D01*
X12540000Y-29452500D02*
X12540000Y-27000000D01*
X65881800Y-8794300D02*
X67087500Y-10000000D01*
%TO.N,/ENC_B*%
D26*
X59787800Y-12124700D02*
X61912500Y-10000000D01*
X54500000Y-22500000D02*
X59787800Y-17212200D01*
X59787800Y-17212200D02*
X59787800Y-12124700D01*
%TO.N,/LED_BASE*%
X23835600Y-31884500D02*
X23903800Y-31816300D01*
X21336600Y-31884500D02*
X23835600Y-31884500D01*
X23903800Y-31816300D02*
X26087500Y-34000000D01*
X22000000Y-29087500D02*
X20888300Y-30199200D01*
X20888300Y-31436200D02*
X21336600Y-31884500D01*
X25062500Y-29050000D02*
X23903800Y-30208700D01*
X23903800Y-30208700D02*
X23903800Y-31816300D01*
X20888300Y-30199200D02*
X20888300Y-31436200D01*
%TO.N,/RGB_DATA*%
X39234100Y-22390500D02*
X40304600Y-21320000D01*
X39234100Y-22948100D02*
X39234100Y-22390500D01*
X44009100Y-26460000D02*
X44525000Y-26460000D01*
X42939200Y-21320000D02*
X43852700Y-22233500D01*
X43147700Y-24761000D02*
X43147700Y-25598600D01*
X43852700Y-22233500D02*
X43852700Y-24056000D01*
X40304600Y-21320000D02*
X42939200Y-21320000D01*
X43147700Y-25598600D02*
X44009100Y-26460000D01*
X43852700Y-24056000D02*
X43147700Y-24761000D01*
%TO.N,/RGB_5V*%
X46499300Y-31802800D02*
X46499300Y-35588200D01*
X44525000Y-27730000D02*
X45931200Y-27730000D01*
X46499300Y-35588200D02*
X46087500Y-36000000D01*
X45931200Y-27730000D02*
X46103600Y-27902400D01*
%TO.N,/ENC_A*%
X54500000Y-17500000D02*
X54500000Y-11412500D01*
X54500000Y-11412500D02*
X55912500Y-10000000D01*
%TO.N,/ENC_SW*%
X69000000Y-22500000D02*
X70434300Y-21065700D01*
X70434300Y-21065700D02*
X70434300Y-11521800D01*
X70434300Y-11521800D02*
X68912500Y-10000000D01*
%TO.N,/OLED_SDA*%
X12052600Y-32140100D02*
X10912500Y-31000000D01*
X17620000Y-30979100D02*
X16459000Y-32140100D01*
X16459000Y-32140100D02*
X12052600Y-32140100D01*
X17620000Y-27000000D02*
X17620000Y-30979100D01*
X35620000Y-26112700D02*
X34783000Y-26949700D01*
X35620000Y-21910000D02*
X35620000Y-26112700D01*
%TO.N,/OLED_SCL*%
X29570100Y-26281500D02*
X29570100Y-26768800D01*
X15080000Y-27000000D02*
X15080000Y-30167500D01*
X32439600Y-23412000D02*
X29570100Y-26281500D01*
X15080000Y-30167500D02*
X15912500Y-31000000D01*
%TO.N,/LED_EN*%
X22920000Y-21910000D02*
X23102700Y-22092700D01*
X23102700Y-29809800D02*
X22000000Y-30912500D01*
X23102700Y-22092700D02*
X23102700Y-29809800D01*
%TO.N,/LED_DIN1*%
X42852800Y-44901700D02*
X41080100Y-46674400D01*
X47912500Y-37701600D02*
X42852800Y-42761300D01*
X30739800Y-42045100D02*
X30739800Y-41359600D01*
X35369100Y-46674400D02*
X30739800Y-42045100D01*
X47912500Y-36000000D02*
X47912500Y-37701600D01*
X41080100Y-46674400D02*
X35369100Y-46674400D01*
X42852800Y-42761300D02*
X42852800Y-44901700D01*
%TO.N,/LED_DIN7*%
X43039700Y-82860900D02*
X43039700Y-79585300D01*
X38601500Y-84758700D02*
X41141900Y-84758700D01*
X41141900Y-84758700D02*
X43039700Y-82860900D01*
X43039700Y-79585300D02*
X49046200Y-73578800D01*
X49046200Y-73578800D02*
X49046200Y-68880000D01*
%TO.N,/LED_DIN4*%
X51882000Y-53669800D02*
X51882000Y-49830000D01*
%TO.N,/LED_DIN5*%
X43915900Y-70868300D02*
X43915900Y-68225100D01*
X43115300Y-71668900D02*
X43915900Y-70868300D01*
%TO.N,/KEY7*%
X16700000Y-26100000D02*
X16700000Y-26200000D01*
X23200000Y-62200000D02*
X23200000Y-62300000D01*
X18900000Y-42700000D02*
X18900000Y-42800000D01*
X19100000Y-20000000D02*
X18600000Y-20500000D01*
X23000000Y-61800000D02*
X23100000Y-61900000D01*
X23100000Y-62100000D02*
X23200000Y-62200000D01*
X23000000Y-61700000D02*
X23000000Y-61800000D01*
X18600000Y-43400000D02*
X18600000Y-57300000D01*
X16700000Y-26200000D02*
X16500000Y-26400000D01*
X16700000Y-38100000D02*
X18800000Y-40200000D01*
X18800000Y-42900000D02*
X18800000Y-43000000D01*
X16500000Y-26500000D02*
X16399999Y-26600000D01*
X19100000Y-40600000D02*
X19100000Y-41000000D01*
X23100000Y-61900000D02*
X23100000Y-62100000D01*
X18600000Y-24200000D02*
X16700000Y-26100000D01*
X19100000Y-41000000D02*
X19200000Y-41100000D01*
X23300000Y-62400000D02*
X23300000Y-75400000D01*
X18800000Y-40300000D02*
X19100000Y-40600000D01*
X20400000Y-16800000D02*
X20400000Y-17100000D01*
X19200000Y-42400000D02*
X18900000Y-42700000D01*
X16700000Y-35100000D02*
X16700000Y-38100000D01*
X16399999Y-27600000D02*
X16600000Y-27800000D01*
X19100000Y-18900000D02*
X19100000Y-20000000D01*
X18800000Y-40200000D02*
X18800000Y-40300000D01*
X18700000Y-43300000D02*
X18600000Y-43400000D01*
X18800000Y-43000000D02*
X18700000Y-43100000D01*
X18600000Y-57300000D02*
X23000000Y-61700000D01*
X20400000Y-17100000D02*
X20100000Y-17400000D01*
X18900000Y-42800000D02*
X18800000Y-42900000D01*
X19200000Y-18800000D02*
X19100000Y-18900000D01*
X18600000Y-20500000D02*
X18600000Y-24200000D01*
X19200000Y-41100000D02*
X19200000Y-42400000D01*
X23200000Y-62300000D02*
X23300000Y-62400000D01*
X16500000Y-26400000D02*
X16500000Y-26500000D01*
X16600000Y-27800000D02*
X16600000Y-29800000D01*
X18700000Y-43100000D02*
X18700000Y-43300000D01*
X19200000Y-18700000D02*
X19200000Y-18800000D01*
X16600000Y-29800000D02*
X16700000Y-29900000D01*
X20100000Y-17800000D02*
X19200000Y-18700000D01*
X16399999Y-26600000D02*
X16399999Y-27600000D01*
X20100000Y-17400000D02*
X20100000Y-17800000D01*
%TO.N,/LED_DIN2*%
X46140300Y-52821200D02*
X46140300Y-47263900D01*
%TO.N,/LED_DIN3*%
X63328800Y-51896400D02*
X63328800Y-48492500D01*
%TO.N,/LED_DIN8*%
X42833300Y-91747300D02*
X42833300Y-85412800D01*
%TO.N,/KEY4*%
X7652800Y-52096300D02*
X12597400Y-57040900D01*
X7652800Y-21937200D02*
X7652800Y-52096300D01*
X20380000Y-9210000D02*
X7652800Y-21937200D01*
%TO.N,/KEY5*%
X28912800Y-40687600D02*
X28912800Y-44342800D01*
X28912800Y-44342800D02*
X42540000Y-57970000D01*
X13828300Y-18301700D02*
X13828300Y-29290700D01*
X20380000Y-11750000D02*
X13828300Y-18301700D01*
%TO.N,/KEY9*%
X60983900Y-77020000D02*
X57819600Y-73855700D01*
X44591700Y-60301400D02*
X44591700Y-57120100D01*
X29621000Y-42419300D02*
X29621000Y-40403400D01*
X57819600Y-73529300D02*
X44591700Y-60301400D01*
X43120000Y-55918300D02*
X29621000Y-42419300D01*
X28642500Y-39985900D02*
X20380000Y-31723400D01*
X29621000Y-40403400D02*
X29203500Y-39985900D01*
X29203500Y-39985900D02*
X28642500Y-39985900D01*
X61590000Y-77020000D02*
X60983900Y-77020000D01*
X43389900Y-55918300D02*
X43120000Y-55918300D01*
X20380000Y-31723400D02*
X20380000Y-21910000D01*
X44591700Y-57120100D02*
X43389900Y-55918300D01*
X57819600Y-73855700D02*
X57819600Y-73529300D01*
%TO.N,/KEY2*%
X31089200Y-28821600D02*
X30573400Y-28821600D01*
X30573400Y-28821600D02*
X28587300Y-26835500D01*
%TO.N,/KEY8*%
X42397600Y-69087100D02*
X42397600Y-76877600D01*
X28211100Y-40385900D02*
X28211100Y-47250100D01*
X20380000Y-19370000D02*
X19059500Y-20690500D01*
X19059500Y-31234300D02*
X28211100Y-40385900D01*
X42397600Y-76877600D02*
X42540000Y-77020000D01*
X19059500Y-20690500D02*
X19059500Y-31234300D01*
X42655600Y-61694600D02*
X42655600Y-68829100D01*
X42655600Y-68829100D02*
X42397600Y-69087100D01*
X28211100Y-47250100D02*
X42655600Y-61694600D01*
%TD*%
M02*
