%TF.GenerationSoftware,KiCad,Pcbnew,10.0.5*%
%TF.CreationDate,2026-09-05T17:26:32-04:00*%
%TF.ProjectId,goober,676f6f62-6572-42e6-9b69-6361645f7063,A.1*%
%TF.SameCoordinates,Original*%
%TF.FileFunction,Legend,Top*%
%TF.FilePolarity,Positive*%
%FSLAX46Y46*%
G04 Gerber Fmt 4.6, Leading zero omitted, Abs format (unit mm)*
G04 Created by KiCad (PCBNEW 10.0.5) date 2026-09-05 17:26:32*
%MOMM*%
%LPD*%
G01*
G04 APERTURE LIST*
G04 Aperture macros list*
%AMRoundRect*
0 Rectangle with rounded corners*
0 $1 Rounding radius*
0 $2 $3 $4 $5 $6 $7 $8 $9 X,Y pos of 4 corners*
0 Add a 4 corners polygon primitive as box body*
4,1,4,$2,$3,$4,$5,$6,$7,$8,$9,$2,$3,0*
0 Add four circle primitives for the rounded corners*
1,1,$1+$1,$2,$3*
1,1,$1+$1,$4,$5*
1,1,$1+$1,$6,$7*
1,1,$1+$1,$8,$9*
0 Add four rect primitives between the rounded corners*
20,1,$1+$1,$2,$3,$4,$5,0*
20,1,$1+$1,$4,$5,$6,$7,0*
20,1,$1+$1,$6,$7,$8,$9,0*
20,1,$1+$1,$8,$9,$2,$3,0*%
G04 Aperture macros list end*
%ADD10C,0.140000*%
%ADD11C,0.120000*%
%ADD12RoundRect,0.250000X-0.262500X-0.450000X0.262500X-0.450000X0.262500X0.450000X-0.262500X0.450000X0*%
%ADD13RoundRect,0.250000X-0.375000X-0.625000X0.375000X-0.625000X0.375000X0.625000X-0.375000X0.625000X0*%
%ADD14RoundRect,0.250000X0.475000X-0.250000X0.475000X0.250000X-0.475000X0.250000X-0.475000X-0.250000X0*%
%ADD15RoundRect,0.250000X-0.250000X-0.475000X0.250000X-0.475000X0.250000X0.475000X-0.250000X0.475000X0*%
%ADD16C,2.700000*%
%ADD17RoundRect,0.150000X-0.587500X-0.150000X0.587500X-0.150000X0.587500X0.150000X-0.587500X0.150000X0*%
%ADD18RoundRect,0.150000X-0.825000X-0.150000X0.825000X-0.150000X0.825000X0.150000X-0.825000X0.150000X0*%
%ADD19R,2.000000X2.000000*%
%ADD20C,2.000000*%
%ADD21R,3.200000X2.000000*%
%ADD22R,1.700000X1.700000*%
%ADD23C,1.700000*%
%ADD24RoundRect,0.250000X0.450000X-0.262500X0.450000X0.262500X-0.450000X0.262500X-0.450000X-0.262500X0*%
%ADD25C,1.750000*%
%ADD26C,3.987800*%
%ADD27C,3.300000*%
%ADD28C,1.800000*%
G04 APERTURE END LIST*
D10*
X10838095Y-23562815D02*
X10990476Y-23562815D01*
X10990476Y-23562815D02*
X11066666Y-23600910D01*
X11066666Y-23600910D02*
X11142857Y-23677100D01*
X11142857Y-23677100D02*
X11180952Y-23829481D01*
X11180952Y-23829481D02*
X11180952Y-24096148D01*
X11180952Y-24096148D02*
X11142857Y-24248529D01*
X11142857Y-24248529D02*
X11066666Y-24324720D01*
X11066666Y-24324720D02*
X10990476Y-24362815D01*
X10990476Y-24362815D02*
X10838095Y-24362815D01*
X10838095Y-24362815D02*
X10761904Y-24324720D01*
X10761904Y-24324720D02*
X10685714Y-24248529D01*
X10685714Y-24248529D02*
X10647618Y-24096148D01*
X10647618Y-24096148D02*
X10647618Y-23829481D01*
X10647618Y-23829481D02*
X10685714Y-23677100D01*
X10685714Y-23677100D02*
X10761904Y-23600910D01*
X10761904Y-23600910D02*
X10838095Y-23562815D01*
X11904761Y-24362815D02*
X11523809Y-24362815D01*
X11523809Y-24362815D02*
X11523809Y-23562815D01*
X12171428Y-23943767D02*
X12438094Y-23943767D01*
X12552380Y-24362815D02*
X12171428Y-24362815D01*
X12171428Y-24362815D02*
X12171428Y-23562815D01*
X12171428Y-23562815D02*
X12552380Y-23562815D01*
X12895238Y-24362815D02*
X12895238Y-23562815D01*
X12895238Y-23562815D02*
X13085714Y-23562815D01*
X13085714Y-23562815D02*
X13200000Y-23600910D01*
X13200000Y-23600910D02*
X13276190Y-23677100D01*
X13276190Y-23677100D02*
X13314285Y-23753291D01*
X13314285Y-23753291D02*
X13352381Y-23905672D01*
X13352381Y-23905672D02*
X13352381Y-24019958D01*
X13352381Y-24019958D02*
X13314285Y-24172339D01*
X13314285Y-24172339D02*
X13276190Y-24248529D01*
X13276190Y-24248529D02*
X13200000Y-24324720D01*
X13200000Y-24324720D02*
X13085714Y-24362815D01*
X13085714Y-24362815D02*
X12895238Y-24362815D01*
X25976190Y-2535947D02*
X25976190Y-3224042D01*
X25976190Y-3224042D02*
X26016667Y-3304994D01*
X26016667Y-3304994D02*
X26057143Y-3345471D01*
X26057143Y-3345471D02*
X26138095Y-3385947D01*
X26138095Y-3385947D02*
X26300000Y-3385947D01*
X26300000Y-3385947D02*
X26380952Y-3345471D01*
X26380952Y-3345471D02*
X26421429Y-3304994D01*
X26421429Y-3304994D02*
X26461905Y-3224042D01*
X26461905Y-3224042D02*
X26461905Y-2535947D01*
X26826190Y-3345471D02*
X26947619Y-3385947D01*
X26947619Y-3385947D02*
X27150000Y-3385947D01*
X27150000Y-3385947D02*
X27230952Y-3345471D01*
X27230952Y-3345471D02*
X27271428Y-3304994D01*
X27271428Y-3304994D02*
X27311905Y-3224042D01*
X27311905Y-3224042D02*
X27311905Y-3143090D01*
X27311905Y-3143090D02*
X27271428Y-3062137D01*
X27271428Y-3062137D02*
X27230952Y-3021661D01*
X27230952Y-3021661D02*
X27150000Y-2981185D01*
X27150000Y-2981185D02*
X26988095Y-2940709D01*
X26988095Y-2940709D02*
X26907143Y-2900232D01*
X26907143Y-2900232D02*
X26866666Y-2859756D01*
X26866666Y-2859756D02*
X26826190Y-2778804D01*
X26826190Y-2778804D02*
X26826190Y-2697851D01*
X26826190Y-2697851D02*
X26866666Y-2616899D01*
X26866666Y-2616899D02*
X26907143Y-2576423D01*
X26907143Y-2576423D02*
X26988095Y-2535947D01*
X26988095Y-2535947D02*
X27190476Y-2535947D01*
X27190476Y-2535947D02*
X27311905Y-2576423D01*
X27959524Y-2940709D02*
X28080952Y-2981185D01*
X28080952Y-2981185D02*
X28121429Y-3021661D01*
X28121429Y-3021661D02*
X28161905Y-3102613D01*
X28161905Y-3102613D02*
X28161905Y-3224042D01*
X28161905Y-3224042D02*
X28121429Y-3304994D01*
X28121429Y-3304994D02*
X28080952Y-3345471D01*
X28080952Y-3345471D02*
X28000000Y-3385947D01*
X28000000Y-3385947D02*
X27676190Y-3385947D01*
X27676190Y-3385947D02*
X27676190Y-2535947D01*
X27676190Y-2535947D02*
X27959524Y-2535947D01*
X27959524Y-2535947D02*
X28040476Y-2576423D01*
X28040476Y-2576423D02*
X28080952Y-2616899D01*
X28080952Y-2616899D02*
X28121429Y-2697851D01*
X28121429Y-2697851D02*
X28121429Y-2778804D01*
X28121429Y-2778804D02*
X28080952Y-2859756D01*
X28080952Y-2859756D02*
X28040476Y-2900232D01*
X28040476Y-2900232D02*
X27959524Y-2940709D01*
X27959524Y-2940709D02*
X27676190Y-2940709D01*
X28526190Y-3062137D02*
X29173810Y-3062137D01*
X30064286Y-3304994D02*
X30023810Y-3345471D01*
X30023810Y-3345471D02*
X29902381Y-3385947D01*
X29902381Y-3385947D02*
X29821429Y-3385947D01*
X29821429Y-3385947D02*
X29700000Y-3345471D01*
X29700000Y-3345471D02*
X29619048Y-3264518D01*
X29619048Y-3264518D02*
X29578571Y-3183566D01*
X29578571Y-3183566D02*
X29538095Y-3021661D01*
X29538095Y-3021661D02*
X29538095Y-2900232D01*
X29538095Y-2900232D02*
X29578571Y-2738328D01*
X29578571Y-2738328D02*
X29619048Y-2657375D01*
X29619048Y-2657375D02*
X29700000Y-2576423D01*
X29700000Y-2576423D02*
X29821429Y-2535947D01*
X29821429Y-2535947D02*
X29902381Y-2535947D01*
X29902381Y-2535947D02*
X30023810Y-2576423D01*
X30023810Y-2576423D02*
X30064286Y-2616899D01*
X32815476Y-90885947D02*
X32532142Y-90481185D01*
X32329761Y-90885947D02*
X32329761Y-90035947D01*
X32329761Y-90035947D02*
X32653571Y-90035947D01*
X32653571Y-90035947D02*
X32734523Y-90076423D01*
X32734523Y-90076423D02*
X32775000Y-90116899D01*
X32775000Y-90116899D02*
X32815476Y-90197851D01*
X32815476Y-90197851D02*
X32815476Y-90319280D01*
X32815476Y-90319280D02*
X32775000Y-90400232D01*
X32775000Y-90400232D02*
X32734523Y-90440709D01*
X32734523Y-90440709D02*
X32653571Y-90481185D01*
X32653571Y-90481185D02*
X32329761Y-90481185D01*
X33179761Y-90440709D02*
X33463095Y-90440709D01*
X33584523Y-90885947D02*
X33179761Y-90885947D01*
X33179761Y-90885947D02*
X33179761Y-90035947D01*
X33179761Y-90035947D02*
X33584523Y-90035947D01*
X33827381Y-90035947D02*
X34110714Y-90885947D01*
X34110714Y-90885947D02*
X34394048Y-90035947D01*
X35284523Y-90643090D02*
X35689285Y-90643090D01*
X35203571Y-90885947D02*
X35486904Y-90035947D01*
X35486904Y-90035947D02*
X35770238Y-90885947D01*
X37308332Y-89995471D02*
X36579761Y-91088328D01*
X38724999Y-90885947D02*
X38441665Y-90481185D01*
X38239284Y-90885947D02*
X38239284Y-90035947D01*
X38239284Y-90035947D02*
X38563094Y-90035947D01*
X38563094Y-90035947D02*
X38644046Y-90076423D01*
X38644046Y-90076423D02*
X38684523Y-90116899D01*
X38684523Y-90116899D02*
X38724999Y-90197851D01*
X38724999Y-90197851D02*
X38724999Y-90319280D01*
X38724999Y-90319280D02*
X38684523Y-90400232D01*
X38684523Y-90400232D02*
X38644046Y-90440709D01*
X38644046Y-90440709D02*
X38563094Y-90481185D01*
X38563094Y-90481185D02*
X38239284Y-90481185D01*
X39089284Y-90885947D02*
X39089284Y-90035947D01*
X39089284Y-90035947D02*
X39413094Y-90035947D01*
X39413094Y-90035947D02*
X39494046Y-90076423D01*
X39494046Y-90076423D02*
X39534523Y-90116899D01*
X39534523Y-90116899D02*
X39574999Y-90197851D01*
X39574999Y-90197851D02*
X39574999Y-90319280D01*
X39574999Y-90319280D02*
X39534523Y-90400232D01*
X39534523Y-90400232D02*
X39494046Y-90440709D01*
X39494046Y-90440709D02*
X39413094Y-90481185D01*
X39413094Y-90481185D02*
X39089284Y-90481185D01*
X39898808Y-90116899D02*
X39939284Y-90076423D01*
X39939284Y-90076423D02*
X40020237Y-90035947D01*
X40020237Y-90035947D02*
X40222618Y-90035947D01*
X40222618Y-90035947D02*
X40303570Y-90076423D01*
X40303570Y-90076423D02*
X40344046Y-90116899D01*
X40344046Y-90116899D02*
X40384523Y-90197851D01*
X40384523Y-90197851D02*
X40384523Y-90278804D01*
X40384523Y-90278804D02*
X40344046Y-90400232D01*
X40344046Y-90400232D02*
X39858332Y-90885947D01*
X39858332Y-90885947D02*
X40384523Y-90885947D01*
X40910713Y-90035947D02*
X40991666Y-90035947D01*
X40991666Y-90035947D02*
X41072618Y-90076423D01*
X41072618Y-90076423D02*
X41113094Y-90116899D01*
X41113094Y-90116899D02*
X41153570Y-90197851D01*
X41153570Y-90197851D02*
X41194047Y-90359756D01*
X41194047Y-90359756D02*
X41194047Y-90562137D01*
X41194047Y-90562137D02*
X41153570Y-90724042D01*
X41153570Y-90724042D02*
X41113094Y-90804994D01*
X41113094Y-90804994D02*
X41072618Y-90845471D01*
X41072618Y-90845471D02*
X40991666Y-90885947D01*
X40991666Y-90885947D02*
X40910713Y-90885947D01*
X40910713Y-90885947D02*
X40829761Y-90845471D01*
X40829761Y-90845471D02*
X40789285Y-90804994D01*
X40789285Y-90804994D02*
X40748808Y-90724042D01*
X40748808Y-90724042D02*
X40708332Y-90562137D01*
X40708332Y-90562137D02*
X40708332Y-90359756D01*
X40708332Y-90359756D02*
X40748808Y-90197851D01*
X40748808Y-90197851D02*
X40789285Y-90116899D01*
X40789285Y-90116899D02*
X40829761Y-90076423D01*
X40829761Y-90076423D02*
X40910713Y-90035947D01*
X41922618Y-90319280D02*
X41922618Y-90885947D01*
X41720237Y-89995471D02*
X41517856Y-90602613D01*
X41517856Y-90602613D02*
X42044047Y-90602613D01*
X42529761Y-90035947D02*
X42610714Y-90035947D01*
X42610714Y-90035947D02*
X42691666Y-90076423D01*
X42691666Y-90076423D02*
X42732142Y-90116899D01*
X42732142Y-90116899D02*
X42772618Y-90197851D01*
X42772618Y-90197851D02*
X42813095Y-90359756D01*
X42813095Y-90359756D02*
X42813095Y-90562137D01*
X42813095Y-90562137D02*
X42772618Y-90724042D01*
X42772618Y-90724042D02*
X42732142Y-90804994D01*
X42732142Y-90804994D02*
X42691666Y-90845471D01*
X42691666Y-90845471D02*
X42610714Y-90885947D01*
X42610714Y-90885947D02*
X42529761Y-90885947D01*
X42529761Y-90885947D02*
X42448809Y-90845471D01*
X42448809Y-90845471D02*
X42408333Y-90804994D01*
X42408333Y-90804994D02*
X42367856Y-90724042D01*
X42367856Y-90724042D02*
X42327380Y-90562137D01*
X42327380Y-90562137D02*
X42327380Y-90359756D01*
X42327380Y-90359756D02*
X42367856Y-90197851D01*
X42367856Y-90197851D02*
X42408333Y-90116899D01*
X42408333Y-90116899D02*
X42448809Y-90076423D01*
X42448809Y-90076423D02*
X42529761Y-90035947D01*
X44432142Y-89995471D02*
X43703571Y-91088328D01*
X45929761Y-90966899D02*
X45848809Y-90926423D01*
X45848809Y-90926423D02*
X45767856Y-90845471D01*
X45767856Y-90845471D02*
X45646428Y-90724042D01*
X45646428Y-90724042D02*
X45565475Y-90683566D01*
X45565475Y-90683566D02*
X45484523Y-90683566D01*
X45524999Y-90885947D02*
X45444047Y-90845471D01*
X45444047Y-90845471D02*
X45363094Y-90764518D01*
X45363094Y-90764518D02*
X45322618Y-90602613D01*
X45322618Y-90602613D02*
X45322618Y-90319280D01*
X45322618Y-90319280D02*
X45363094Y-90157375D01*
X45363094Y-90157375D02*
X45444047Y-90076423D01*
X45444047Y-90076423D02*
X45524999Y-90035947D01*
X45524999Y-90035947D02*
X45686904Y-90035947D01*
X45686904Y-90035947D02*
X45767856Y-90076423D01*
X45767856Y-90076423D02*
X45848809Y-90157375D01*
X45848809Y-90157375D02*
X45889285Y-90319280D01*
X45889285Y-90319280D02*
X45889285Y-90602613D01*
X45889285Y-90602613D02*
X45848809Y-90764518D01*
X45848809Y-90764518D02*
X45767856Y-90845471D01*
X45767856Y-90845471D02*
X45686904Y-90885947D01*
X45686904Y-90885947D02*
X45524999Y-90885947D01*
X46253570Y-90885947D02*
X46253570Y-90035947D01*
X46253570Y-90035947D02*
X46536904Y-90643090D01*
X46536904Y-90643090D02*
X46820237Y-90035947D01*
X46820237Y-90035947D02*
X46820237Y-90885947D01*
X47224999Y-90885947D02*
X47224999Y-90035947D01*
X47710714Y-90885947D02*
X47346428Y-90400232D01*
X47710714Y-90035947D02*
X47224999Y-90521661D01*
X36238095Y-92584624D02*
X36238095Y-94203672D01*
X36238095Y-94203672D02*
X36142857Y-94394148D01*
X36142857Y-94394148D02*
X36047619Y-94489386D01*
X36047619Y-94489386D02*
X35857142Y-94584624D01*
X35857142Y-94584624D02*
X35571428Y-94584624D01*
X35571428Y-94584624D02*
X35380952Y-94489386D01*
X36238095Y-93822720D02*
X36047619Y-93917958D01*
X36047619Y-93917958D02*
X35666666Y-93917958D01*
X35666666Y-93917958D02*
X35476190Y-93822720D01*
X35476190Y-93822720D02*
X35380952Y-93727481D01*
X35380952Y-93727481D02*
X35285714Y-93537005D01*
X35285714Y-93537005D02*
X35285714Y-92965577D01*
X35285714Y-92965577D02*
X35380952Y-92775100D01*
X35380952Y-92775100D02*
X35476190Y-92679862D01*
X35476190Y-92679862D02*
X35666666Y-92584624D01*
X35666666Y-92584624D02*
X36047619Y-92584624D01*
X36047619Y-92584624D02*
X36238095Y-92679862D01*
X37476190Y-93917958D02*
X37285714Y-93822720D01*
X37285714Y-93822720D02*
X37190476Y-93727481D01*
X37190476Y-93727481D02*
X37095238Y-93537005D01*
X37095238Y-93537005D02*
X37095238Y-92965577D01*
X37095238Y-92965577D02*
X37190476Y-92775100D01*
X37190476Y-92775100D02*
X37285714Y-92679862D01*
X37285714Y-92679862D02*
X37476190Y-92584624D01*
X37476190Y-92584624D02*
X37761905Y-92584624D01*
X37761905Y-92584624D02*
X37952381Y-92679862D01*
X37952381Y-92679862D02*
X38047619Y-92775100D01*
X38047619Y-92775100D02*
X38142857Y-92965577D01*
X38142857Y-92965577D02*
X38142857Y-93537005D01*
X38142857Y-93537005D02*
X38047619Y-93727481D01*
X38047619Y-93727481D02*
X37952381Y-93822720D01*
X37952381Y-93822720D02*
X37761905Y-93917958D01*
X37761905Y-93917958D02*
X37476190Y-93917958D01*
X39285714Y-93917958D02*
X39095238Y-93822720D01*
X39095238Y-93822720D02*
X39000000Y-93727481D01*
X39000000Y-93727481D02*
X38904762Y-93537005D01*
X38904762Y-93537005D02*
X38904762Y-92965577D01*
X38904762Y-92965577D02*
X39000000Y-92775100D01*
X39000000Y-92775100D02*
X39095238Y-92679862D01*
X39095238Y-92679862D02*
X39285714Y-92584624D01*
X39285714Y-92584624D02*
X39571429Y-92584624D01*
X39571429Y-92584624D02*
X39761905Y-92679862D01*
X39761905Y-92679862D02*
X39857143Y-92775100D01*
X39857143Y-92775100D02*
X39952381Y-92965577D01*
X39952381Y-92965577D02*
X39952381Y-93537005D01*
X39952381Y-93537005D02*
X39857143Y-93727481D01*
X39857143Y-93727481D02*
X39761905Y-93822720D01*
X39761905Y-93822720D02*
X39571429Y-93917958D01*
X39571429Y-93917958D02*
X39285714Y-93917958D01*
X40809524Y-93917958D02*
X40809524Y-91917958D01*
X40809524Y-92679862D02*
X41000000Y-92584624D01*
X41000000Y-92584624D02*
X41380953Y-92584624D01*
X41380953Y-92584624D02*
X41571429Y-92679862D01*
X41571429Y-92679862D02*
X41666667Y-92775100D01*
X41666667Y-92775100D02*
X41761905Y-92965577D01*
X41761905Y-92965577D02*
X41761905Y-93537005D01*
X41761905Y-93537005D02*
X41666667Y-93727481D01*
X41666667Y-93727481D02*
X41571429Y-93822720D01*
X41571429Y-93822720D02*
X41380953Y-93917958D01*
X41380953Y-93917958D02*
X41000000Y-93917958D01*
X41000000Y-93917958D02*
X40809524Y-93822720D01*
X43380953Y-93822720D02*
X43190477Y-93917958D01*
X43190477Y-93917958D02*
X42809524Y-93917958D01*
X42809524Y-93917958D02*
X42619048Y-93822720D01*
X42619048Y-93822720D02*
X42523810Y-93632243D01*
X42523810Y-93632243D02*
X42523810Y-92870339D01*
X42523810Y-92870339D02*
X42619048Y-92679862D01*
X42619048Y-92679862D02*
X42809524Y-92584624D01*
X42809524Y-92584624D02*
X43190477Y-92584624D01*
X43190477Y-92584624D02*
X43380953Y-92679862D01*
X43380953Y-92679862D02*
X43476191Y-92870339D01*
X43476191Y-92870339D02*
X43476191Y-93060815D01*
X43476191Y-93060815D02*
X42523810Y-93251291D01*
X44333334Y-93917958D02*
X44333334Y-92584624D01*
X44333334Y-92965577D02*
X44428572Y-92775100D01*
X44428572Y-92775100D02*
X44523810Y-92679862D01*
X44523810Y-92679862D02*
X44714286Y-92584624D01*
X44714286Y-92584624D02*
X44904763Y-92584624D01*
D11*
X34866667Y-31713855D02*
X34600000Y-31332902D01*
X34409524Y-31713855D02*
X34409524Y-30913855D01*
X34409524Y-30913855D02*
X34714286Y-30913855D01*
X34714286Y-30913855D02*
X34790476Y-30951950D01*
X34790476Y-30951950D02*
X34828571Y-30990045D01*
X34828571Y-30990045D02*
X34866667Y-31066236D01*
X34866667Y-31066236D02*
X34866667Y-31180521D01*
X34866667Y-31180521D02*
X34828571Y-31256712D01*
X34828571Y-31256712D02*
X34790476Y-31294807D01*
X34790476Y-31294807D02*
X34714286Y-31332902D01*
X34714286Y-31332902D02*
X34409524Y-31332902D01*
X35628571Y-31713855D02*
X35171428Y-31713855D01*
X35400000Y-31713855D02*
X35400000Y-30913855D01*
X35400000Y-30913855D02*
X35323809Y-31028140D01*
X35323809Y-31028140D02*
X35247619Y-31104331D01*
X35247619Y-31104331D02*
X35171428Y-31142426D01*
X41733333Y-5114807D02*
X41466667Y-5114807D01*
X41466667Y-5533855D02*
X41466667Y-4733855D01*
X41466667Y-4733855D02*
X41847619Y-4733855D01*
X42571428Y-5533855D02*
X42114285Y-5533855D01*
X42342857Y-5533855D02*
X42342857Y-4733855D01*
X42342857Y-4733855D02*
X42266666Y-4848140D01*
X42266666Y-4848140D02*
X42190476Y-4924331D01*
X42190476Y-4924331D02*
X42114285Y-4962426D01*
X38607664Y-29514285D02*
X38645760Y-29552381D01*
X38645760Y-29552381D02*
X38683855Y-29666666D01*
X38683855Y-29666666D02*
X38683855Y-29742857D01*
X38683855Y-29742857D02*
X38645760Y-29857143D01*
X38645760Y-29857143D02*
X38569569Y-29933333D01*
X38569569Y-29933333D02*
X38493379Y-29971428D01*
X38493379Y-29971428D02*
X38340998Y-30009524D01*
X38340998Y-30009524D02*
X38226712Y-30009524D01*
X38226712Y-30009524D02*
X38074331Y-29971428D01*
X38074331Y-29971428D02*
X37998140Y-29933333D01*
X37998140Y-29933333D02*
X37921950Y-29857143D01*
X37921950Y-29857143D02*
X37883855Y-29742857D01*
X37883855Y-29742857D02*
X37883855Y-29666666D01*
X37883855Y-29666666D02*
X37921950Y-29552381D01*
X37921950Y-29552381D02*
X37960045Y-29514285D01*
X38683855Y-28752381D02*
X38683855Y-29209524D01*
X38683855Y-28980952D02*
X37883855Y-28980952D01*
X37883855Y-28980952D02*
X37998140Y-29057143D01*
X37998140Y-29057143D02*
X38074331Y-29133333D01*
X38074331Y-29133333D02*
X38112426Y-29209524D01*
X38683855Y-27990476D02*
X38683855Y-28447619D01*
X38683855Y-28219047D02*
X37883855Y-28219047D01*
X37883855Y-28219047D02*
X37998140Y-28295238D01*
X37998140Y-28295238D02*
X38074331Y-28371428D01*
X38074331Y-28371428D02*
X38112426Y-28447619D01*
X41485714Y-21607664D02*
X41447618Y-21645760D01*
X41447618Y-21645760D02*
X41333333Y-21683855D01*
X41333333Y-21683855D02*
X41257142Y-21683855D01*
X41257142Y-21683855D02*
X41142856Y-21645760D01*
X41142856Y-21645760D02*
X41066666Y-21569569D01*
X41066666Y-21569569D02*
X41028571Y-21493379D01*
X41028571Y-21493379D02*
X40990475Y-21340998D01*
X40990475Y-21340998D02*
X40990475Y-21226712D01*
X40990475Y-21226712D02*
X41028571Y-21074331D01*
X41028571Y-21074331D02*
X41066666Y-20998140D01*
X41066666Y-20998140D02*
X41142856Y-20921950D01*
X41142856Y-20921950D02*
X41257142Y-20883855D01*
X41257142Y-20883855D02*
X41333333Y-20883855D01*
X41333333Y-20883855D02*
X41447618Y-20921950D01*
X41447618Y-20921950D02*
X41485714Y-20960045D01*
X42247618Y-21683855D02*
X41790475Y-21683855D01*
X42019047Y-21683855D02*
X42019047Y-20883855D01*
X42019047Y-20883855D02*
X41942856Y-20998140D01*
X41942856Y-20998140D02*
X41866666Y-21074331D01*
X41866666Y-21074331D02*
X41790475Y-21112426D01*
X42742857Y-20883855D02*
X42819047Y-20883855D01*
X42819047Y-20883855D02*
X42895238Y-20921950D01*
X42895238Y-20921950D02*
X42933333Y-20960045D01*
X42933333Y-20960045D02*
X42971428Y-21036236D01*
X42971428Y-21036236D02*
X43009523Y-21188617D01*
X43009523Y-21188617D02*
X43009523Y-21379093D01*
X43009523Y-21379093D02*
X42971428Y-21531474D01*
X42971428Y-21531474D02*
X42933333Y-21607664D01*
X42933333Y-21607664D02*
X42895238Y-21645760D01*
X42895238Y-21645760D02*
X42819047Y-21683855D01*
X42819047Y-21683855D02*
X42742857Y-21683855D01*
X42742857Y-21683855D02*
X42666666Y-21645760D01*
X42666666Y-21645760D02*
X42628571Y-21607664D01*
X42628571Y-21607664D02*
X42590476Y-21531474D01*
X42590476Y-21531474D02*
X42552380Y-21379093D01*
X42552380Y-21379093D02*
X42552380Y-21188617D01*
X42552380Y-21188617D02*
X42590476Y-21036236D01*
X42590476Y-21036236D02*
X42628571Y-20960045D01*
X42628571Y-20960045D02*
X42666666Y-20921950D01*
X42666666Y-20921950D02*
X42742857Y-20883855D01*
X60866667Y-8713855D02*
X60600000Y-8332902D01*
X60409524Y-8713855D02*
X60409524Y-7913855D01*
X60409524Y-7913855D02*
X60714286Y-7913855D01*
X60714286Y-7913855D02*
X60790476Y-7951950D01*
X60790476Y-7951950D02*
X60828571Y-7990045D01*
X60828571Y-7990045D02*
X60866667Y-8066236D01*
X60866667Y-8066236D02*
X60866667Y-8180521D01*
X60866667Y-8180521D02*
X60828571Y-8256712D01*
X60828571Y-8256712D02*
X60790476Y-8294807D01*
X60790476Y-8294807D02*
X60714286Y-8332902D01*
X60714286Y-8332902D02*
X60409524Y-8332902D01*
X61323809Y-8256712D02*
X61247619Y-8218617D01*
X61247619Y-8218617D02*
X61209524Y-8180521D01*
X61209524Y-8180521D02*
X61171428Y-8104331D01*
X61171428Y-8104331D02*
X61171428Y-8066236D01*
X61171428Y-8066236D02*
X61209524Y-7990045D01*
X61209524Y-7990045D02*
X61247619Y-7951950D01*
X61247619Y-7951950D02*
X61323809Y-7913855D01*
X61323809Y-7913855D02*
X61476190Y-7913855D01*
X61476190Y-7913855D02*
X61552381Y-7951950D01*
X61552381Y-7951950D02*
X61590476Y-7990045D01*
X61590476Y-7990045D02*
X61628571Y-8066236D01*
X61628571Y-8066236D02*
X61628571Y-8104331D01*
X61628571Y-8104331D02*
X61590476Y-8180521D01*
X61590476Y-8180521D02*
X61552381Y-8218617D01*
X61552381Y-8218617D02*
X61476190Y-8256712D01*
X61476190Y-8256712D02*
X61323809Y-8256712D01*
X61323809Y-8256712D02*
X61247619Y-8294807D01*
X61247619Y-8294807D02*
X61209524Y-8332902D01*
X61209524Y-8332902D02*
X61171428Y-8409093D01*
X61171428Y-8409093D02*
X61171428Y-8561474D01*
X61171428Y-8561474D02*
X61209524Y-8637664D01*
X61209524Y-8637664D02*
X61247619Y-8675760D01*
X61247619Y-8675760D02*
X61323809Y-8713855D01*
X61323809Y-8713855D02*
X61476190Y-8713855D01*
X61476190Y-8713855D02*
X61552381Y-8675760D01*
X61552381Y-8675760D02*
X61590476Y-8637664D01*
X61590476Y-8637664D02*
X61628571Y-8561474D01*
X61628571Y-8561474D02*
X61628571Y-8409093D01*
X61628571Y-8409093D02*
X61590476Y-8332902D01*
X61590476Y-8332902D02*
X61552381Y-8294807D01*
X61552381Y-8294807D02*
X61476190Y-8256712D01*
X25923809Y-28040045D02*
X25847619Y-28001950D01*
X25847619Y-28001950D02*
X25771428Y-27925760D01*
X25771428Y-27925760D02*
X25657142Y-27811474D01*
X25657142Y-27811474D02*
X25580952Y-27773379D01*
X25580952Y-27773379D02*
X25504761Y-27773379D01*
X25542857Y-27963855D02*
X25466666Y-27925760D01*
X25466666Y-27925760D02*
X25390476Y-27849569D01*
X25390476Y-27849569D02*
X25352380Y-27697188D01*
X25352380Y-27697188D02*
X25352380Y-27430521D01*
X25352380Y-27430521D02*
X25390476Y-27278140D01*
X25390476Y-27278140D02*
X25466666Y-27201950D01*
X25466666Y-27201950D02*
X25542857Y-27163855D01*
X25542857Y-27163855D02*
X25695238Y-27163855D01*
X25695238Y-27163855D02*
X25771428Y-27201950D01*
X25771428Y-27201950D02*
X25847619Y-27278140D01*
X25847619Y-27278140D02*
X25885714Y-27430521D01*
X25885714Y-27430521D02*
X25885714Y-27697188D01*
X25885714Y-27697188D02*
X25847619Y-27849569D01*
X25847619Y-27849569D02*
X25771428Y-27925760D01*
X25771428Y-27925760D02*
X25695238Y-27963855D01*
X25695238Y-27963855D02*
X25542857Y-27963855D01*
X26190475Y-27240045D02*
X26228571Y-27201950D01*
X26228571Y-27201950D02*
X26304761Y-27163855D01*
X26304761Y-27163855D02*
X26495237Y-27163855D01*
X26495237Y-27163855D02*
X26571428Y-27201950D01*
X26571428Y-27201950D02*
X26609523Y-27240045D01*
X26609523Y-27240045D02*
X26647618Y-27316236D01*
X26647618Y-27316236D02*
X26647618Y-27392426D01*
X26647618Y-27392426D02*
X26609523Y-27506712D01*
X26609523Y-27506712D02*
X26152380Y-27963855D01*
X26152380Y-27963855D02*
X26647618Y-27963855D01*
X46390476Y-23283855D02*
X46390476Y-23931474D01*
X46390476Y-23931474D02*
X46428571Y-24007664D01*
X46428571Y-24007664D02*
X46466666Y-24045760D01*
X46466666Y-24045760D02*
X46542857Y-24083855D01*
X46542857Y-24083855D02*
X46695238Y-24083855D01*
X46695238Y-24083855D02*
X46771428Y-24045760D01*
X46771428Y-24045760D02*
X46809523Y-24007664D01*
X46809523Y-24007664D02*
X46847619Y-23931474D01*
X46847619Y-23931474D02*
X46847619Y-23283855D01*
X47190475Y-23360045D02*
X47228571Y-23321950D01*
X47228571Y-23321950D02*
X47304761Y-23283855D01*
X47304761Y-23283855D02*
X47495237Y-23283855D01*
X47495237Y-23283855D02*
X47571428Y-23321950D01*
X47571428Y-23321950D02*
X47609523Y-23360045D01*
X47609523Y-23360045D02*
X47647618Y-23436236D01*
X47647618Y-23436236D02*
X47647618Y-23512426D01*
X47647618Y-23512426D02*
X47609523Y-23626712D01*
X47609523Y-23626712D02*
X47152380Y-24083855D01*
X47152380Y-24083855D02*
X47647618Y-24083855D01*
X55928571Y-12744807D02*
X56195237Y-12744807D01*
X56309523Y-13163855D02*
X55928571Y-13163855D01*
X55928571Y-13163855D02*
X55928571Y-12363855D01*
X55928571Y-12363855D02*
X56309523Y-12363855D01*
X56652381Y-13163855D02*
X56652381Y-12363855D01*
X56652381Y-12363855D02*
X57109524Y-13163855D01*
X57109524Y-13163855D02*
X57109524Y-12363855D01*
X57947619Y-13087664D02*
X57909523Y-13125760D01*
X57909523Y-13125760D02*
X57795238Y-13163855D01*
X57795238Y-13163855D02*
X57719047Y-13163855D01*
X57719047Y-13163855D02*
X57604761Y-13125760D01*
X57604761Y-13125760D02*
X57528571Y-13049569D01*
X57528571Y-13049569D02*
X57490476Y-12973379D01*
X57490476Y-12973379D02*
X57452380Y-12820998D01*
X57452380Y-12820998D02*
X57452380Y-12706712D01*
X57452380Y-12706712D02*
X57490476Y-12554331D01*
X57490476Y-12554331D02*
X57528571Y-12478140D01*
X57528571Y-12478140D02*
X57604761Y-12401950D01*
X57604761Y-12401950D02*
X57719047Y-12363855D01*
X57719047Y-12363855D02*
X57795238Y-12363855D01*
X57795238Y-12363855D02*
X57909523Y-12401950D01*
X57909523Y-12401950D02*
X57947619Y-12440045D01*
X58709523Y-13163855D02*
X58252380Y-13163855D01*
X58480952Y-13163855D02*
X58480952Y-12363855D01*
X58480952Y-12363855D02*
X58404761Y-12478140D01*
X58404761Y-12478140D02*
X58328571Y-12554331D01*
X58328571Y-12554331D02*
X58252380Y-12592426D01*
X9866667Y-29713855D02*
X9600000Y-29332902D01*
X9409524Y-29713855D02*
X9409524Y-28913855D01*
X9409524Y-28913855D02*
X9714286Y-28913855D01*
X9714286Y-28913855D02*
X9790476Y-28951950D01*
X9790476Y-28951950D02*
X9828571Y-28990045D01*
X9828571Y-28990045D02*
X9866667Y-29066236D01*
X9866667Y-29066236D02*
X9866667Y-29180521D01*
X9866667Y-29180521D02*
X9828571Y-29256712D01*
X9828571Y-29256712D02*
X9790476Y-29294807D01*
X9790476Y-29294807D02*
X9714286Y-29332902D01*
X9714286Y-29332902D02*
X9409524Y-29332902D01*
X10590476Y-28913855D02*
X10209524Y-28913855D01*
X10209524Y-28913855D02*
X10171428Y-29294807D01*
X10171428Y-29294807D02*
X10209524Y-29256712D01*
X10209524Y-29256712D02*
X10285714Y-29218617D01*
X10285714Y-29218617D02*
X10476190Y-29218617D01*
X10476190Y-29218617D02*
X10552381Y-29256712D01*
X10552381Y-29256712D02*
X10590476Y-29294807D01*
X10590476Y-29294807D02*
X10628571Y-29370998D01*
X10628571Y-29370998D02*
X10628571Y-29561474D01*
X10628571Y-29561474D02*
X10590476Y-29637664D01*
X10590476Y-29637664D02*
X10552381Y-29675760D01*
X10552381Y-29675760D02*
X10476190Y-29713855D01*
X10476190Y-29713855D02*
X10285714Y-29713855D01*
X10285714Y-29713855D02*
X10209524Y-29675760D01*
X10209524Y-29675760D02*
X10171428Y-29637664D01*
X7183855Y-27266666D02*
X7755283Y-27266666D01*
X7755283Y-27266666D02*
X7869569Y-27304761D01*
X7869569Y-27304761D02*
X7945760Y-27380952D01*
X7945760Y-27380952D02*
X7983855Y-27495237D01*
X7983855Y-27495237D02*
X7983855Y-27571428D01*
X7983855Y-26466666D02*
X7983855Y-26923809D01*
X7983855Y-26695237D02*
X7183855Y-26695237D01*
X7183855Y-26695237D02*
X7298140Y-26771428D01*
X7298140Y-26771428D02*
X7374331Y-26847618D01*
X7374331Y-26847618D02*
X7412426Y-26923809D01*
X67866667Y-8713855D02*
X67600000Y-8332902D01*
X67409524Y-8713855D02*
X67409524Y-7913855D01*
X67409524Y-7913855D02*
X67714286Y-7913855D01*
X67714286Y-7913855D02*
X67790476Y-7951950D01*
X67790476Y-7951950D02*
X67828571Y-7990045D01*
X67828571Y-7990045D02*
X67866667Y-8066236D01*
X67866667Y-8066236D02*
X67866667Y-8180521D01*
X67866667Y-8180521D02*
X67828571Y-8256712D01*
X67828571Y-8256712D02*
X67790476Y-8294807D01*
X67790476Y-8294807D02*
X67714286Y-8332902D01*
X67714286Y-8332902D02*
X67409524Y-8332902D01*
X68247619Y-8713855D02*
X68400000Y-8713855D01*
X68400000Y-8713855D02*
X68476190Y-8675760D01*
X68476190Y-8675760D02*
X68514286Y-8637664D01*
X68514286Y-8637664D02*
X68590476Y-8523379D01*
X68590476Y-8523379D02*
X68628571Y-8370998D01*
X68628571Y-8370998D02*
X68628571Y-8066236D01*
X68628571Y-8066236D02*
X68590476Y-7990045D01*
X68590476Y-7990045D02*
X68552381Y-7951950D01*
X68552381Y-7951950D02*
X68476190Y-7913855D01*
X68476190Y-7913855D02*
X68323809Y-7913855D01*
X68323809Y-7913855D02*
X68247619Y-7951950D01*
X68247619Y-7951950D02*
X68209524Y-7990045D01*
X68209524Y-7990045D02*
X68171428Y-8066236D01*
X68171428Y-8066236D02*
X68171428Y-8256712D01*
X68171428Y-8256712D02*
X68209524Y-8332902D01*
X68209524Y-8332902D02*
X68247619Y-8370998D01*
X68247619Y-8370998D02*
X68323809Y-8409093D01*
X68323809Y-8409093D02*
X68476190Y-8409093D01*
X68476190Y-8409093D02*
X68552381Y-8370998D01*
X68552381Y-8370998D02*
X68590476Y-8332902D01*
X68590476Y-8332902D02*
X68628571Y-8256712D01*
X20713855Y-30133332D02*
X20332902Y-30399999D01*
X20713855Y-30590475D02*
X19913855Y-30590475D01*
X19913855Y-30590475D02*
X19913855Y-30285713D01*
X19913855Y-30285713D02*
X19951950Y-30209523D01*
X19951950Y-30209523D02*
X19990045Y-30171428D01*
X19990045Y-30171428D02*
X20066236Y-30133332D01*
X20066236Y-30133332D02*
X20180521Y-30133332D01*
X20180521Y-30133332D02*
X20256712Y-30171428D01*
X20256712Y-30171428D02*
X20294807Y-30209523D01*
X20294807Y-30209523D02*
X20332902Y-30285713D01*
X20332902Y-30285713D02*
X20332902Y-30590475D01*
X19990045Y-29828571D02*
X19951950Y-29790475D01*
X19951950Y-29790475D02*
X19913855Y-29714285D01*
X19913855Y-29714285D02*
X19913855Y-29523809D01*
X19913855Y-29523809D02*
X19951950Y-29447618D01*
X19951950Y-29447618D02*
X19990045Y-29409523D01*
X19990045Y-29409523D02*
X20066236Y-29371428D01*
X20066236Y-29371428D02*
X20142426Y-29371428D01*
X20142426Y-29371428D02*
X20256712Y-29409523D01*
X20256712Y-29409523D02*
X20713855Y-29866666D01*
X20713855Y-29866666D02*
X20713855Y-29371428D01*
X14866667Y-29713855D02*
X14600000Y-29332902D01*
X14409524Y-29713855D02*
X14409524Y-28913855D01*
X14409524Y-28913855D02*
X14714286Y-28913855D01*
X14714286Y-28913855D02*
X14790476Y-28951950D01*
X14790476Y-28951950D02*
X14828571Y-28990045D01*
X14828571Y-28990045D02*
X14866667Y-29066236D01*
X14866667Y-29066236D02*
X14866667Y-29180521D01*
X14866667Y-29180521D02*
X14828571Y-29256712D01*
X14828571Y-29256712D02*
X14790476Y-29294807D01*
X14790476Y-29294807D02*
X14714286Y-29332902D01*
X14714286Y-29332902D02*
X14409524Y-29332902D01*
X15552381Y-28913855D02*
X15400000Y-28913855D01*
X15400000Y-28913855D02*
X15323809Y-28951950D01*
X15323809Y-28951950D02*
X15285714Y-28990045D01*
X15285714Y-28990045D02*
X15209524Y-29104331D01*
X15209524Y-29104331D02*
X15171428Y-29256712D01*
X15171428Y-29256712D02*
X15171428Y-29561474D01*
X15171428Y-29561474D02*
X15209524Y-29637664D01*
X15209524Y-29637664D02*
X15247619Y-29675760D01*
X15247619Y-29675760D02*
X15323809Y-29713855D01*
X15323809Y-29713855D02*
X15476190Y-29713855D01*
X15476190Y-29713855D02*
X15552381Y-29675760D01*
X15552381Y-29675760D02*
X15590476Y-29637664D01*
X15590476Y-29637664D02*
X15628571Y-29561474D01*
X15628571Y-29561474D02*
X15628571Y-29370998D01*
X15628571Y-29370998D02*
X15590476Y-29294807D01*
X15590476Y-29294807D02*
X15552381Y-29256712D01*
X15552381Y-29256712D02*
X15476190Y-29218617D01*
X15476190Y-29218617D02*
X15323809Y-29218617D01*
X15323809Y-29218617D02*
X15247619Y-29256712D01*
X15247619Y-29256712D02*
X15209524Y-29294807D01*
X15209524Y-29294807D02*
X15171428Y-29370998D01*
X54866667Y-8713855D02*
X54600000Y-8332902D01*
X54409524Y-8713855D02*
X54409524Y-7913855D01*
X54409524Y-7913855D02*
X54714286Y-7913855D01*
X54714286Y-7913855D02*
X54790476Y-7951950D01*
X54790476Y-7951950D02*
X54828571Y-7990045D01*
X54828571Y-7990045D02*
X54866667Y-8066236D01*
X54866667Y-8066236D02*
X54866667Y-8180521D01*
X54866667Y-8180521D02*
X54828571Y-8256712D01*
X54828571Y-8256712D02*
X54790476Y-8294807D01*
X54790476Y-8294807D02*
X54714286Y-8332902D01*
X54714286Y-8332902D02*
X54409524Y-8332902D01*
X55133333Y-7913855D02*
X55666667Y-7913855D01*
X55666667Y-7913855D02*
X55323809Y-8713855D01*
X26866667Y-32713855D02*
X26600000Y-32332902D01*
X26409524Y-32713855D02*
X26409524Y-31913855D01*
X26409524Y-31913855D02*
X26714286Y-31913855D01*
X26714286Y-31913855D02*
X26790476Y-31951950D01*
X26790476Y-31951950D02*
X26828571Y-31990045D01*
X26828571Y-31990045D02*
X26866667Y-32066236D01*
X26866667Y-32066236D02*
X26866667Y-32180521D01*
X26866667Y-32180521D02*
X26828571Y-32256712D01*
X26828571Y-32256712D02*
X26790476Y-32294807D01*
X26790476Y-32294807D02*
X26714286Y-32332902D01*
X26714286Y-32332902D02*
X26409524Y-32332902D01*
X27133333Y-31913855D02*
X27628571Y-31913855D01*
X27628571Y-31913855D02*
X27361905Y-32218617D01*
X27361905Y-32218617D02*
X27476190Y-32218617D01*
X27476190Y-32218617D02*
X27552381Y-32256712D01*
X27552381Y-32256712D02*
X27590476Y-32294807D01*
X27590476Y-32294807D02*
X27628571Y-32370998D01*
X27628571Y-32370998D02*
X27628571Y-32561474D01*
X27628571Y-32561474D02*
X27590476Y-32637664D01*
X27590476Y-32637664D02*
X27552381Y-32675760D01*
X27552381Y-32675760D02*
X27476190Y-32713855D01*
X27476190Y-32713855D02*
X27247619Y-32713855D01*
X27247619Y-32713855D02*
X27171428Y-32675760D01*
X27171428Y-32675760D02*
X27133333Y-32637664D01*
X34923809Y-27040045D02*
X34847619Y-27001950D01*
X34847619Y-27001950D02*
X34771428Y-26925760D01*
X34771428Y-26925760D02*
X34657142Y-26811474D01*
X34657142Y-26811474D02*
X34580952Y-26773379D01*
X34580952Y-26773379D02*
X34504761Y-26773379D01*
X34542857Y-26963855D02*
X34466666Y-26925760D01*
X34466666Y-26925760D02*
X34390476Y-26849569D01*
X34390476Y-26849569D02*
X34352380Y-26697188D01*
X34352380Y-26697188D02*
X34352380Y-26430521D01*
X34352380Y-26430521D02*
X34390476Y-26278140D01*
X34390476Y-26278140D02*
X34466666Y-26201950D01*
X34466666Y-26201950D02*
X34542857Y-26163855D01*
X34542857Y-26163855D02*
X34695238Y-26163855D01*
X34695238Y-26163855D02*
X34771428Y-26201950D01*
X34771428Y-26201950D02*
X34847619Y-26278140D01*
X34847619Y-26278140D02*
X34885714Y-26430521D01*
X34885714Y-26430521D02*
X34885714Y-26697188D01*
X34885714Y-26697188D02*
X34847619Y-26849569D01*
X34847619Y-26849569D02*
X34771428Y-26925760D01*
X34771428Y-26925760D02*
X34695238Y-26963855D01*
X34695238Y-26963855D02*
X34542857Y-26963855D01*
X35647618Y-26963855D02*
X35190475Y-26963855D01*
X35419047Y-26963855D02*
X35419047Y-26163855D01*
X35419047Y-26163855D02*
X35342856Y-26278140D01*
X35342856Y-26278140D02*
X35266666Y-26354331D01*
X35266666Y-26354331D02*
X35190475Y-26392426D01*
X46866667Y-34713855D02*
X46600000Y-34332902D01*
X46409524Y-34713855D02*
X46409524Y-33913855D01*
X46409524Y-33913855D02*
X46714286Y-33913855D01*
X46714286Y-33913855D02*
X46790476Y-33951950D01*
X46790476Y-33951950D02*
X46828571Y-33990045D01*
X46828571Y-33990045D02*
X46866667Y-34066236D01*
X46866667Y-34066236D02*
X46866667Y-34180521D01*
X46866667Y-34180521D02*
X46828571Y-34256712D01*
X46828571Y-34256712D02*
X46790476Y-34294807D01*
X46790476Y-34294807D02*
X46714286Y-34332902D01*
X46714286Y-34332902D02*
X46409524Y-34332902D01*
X47552381Y-34180521D02*
X47552381Y-34713855D01*
X47361905Y-33875760D02*
X47171428Y-34447188D01*
X47171428Y-34447188D02*
X47666667Y-34447188D01*
%TO.C,R1*%
X34772936Y-32265000D02*
X35227064Y-32265000D01*
X34772936Y-33735000D02*
X35227064Y-33735000D01*
%TO.C,F1*%
X41397936Y-6090000D02*
X42602064Y-6090000D01*
X41397936Y-7910000D02*
X42602064Y-7910000D01*
%TO.C,C11*%
X39265000Y-29261252D02*
X39265000Y-28738748D01*
X40735000Y-29261252D02*
X40735000Y-28738748D01*
%TO.C,C10*%
X41738748Y-22265000D02*
X42261252Y-22265000D01*
X41738748Y-23735000D02*
X42261252Y-23735000D01*
%TO.C,R8*%
X60772936Y-9265000D02*
X61227064Y-9265000D01*
X60772936Y-10735000D02*
X61227064Y-10735000D01*
%TO.C,Q2*%
X25240000Y-28440000D02*
X26760000Y-28440000D01*
X25240000Y-28490000D02*
X25240000Y-28440000D01*
X25240000Y-30390000D02*
X25240000Y-29610000D01*
X25240000Y-31560000D02*
X25240000Y-31510000D01*
X26760000Y-28440000D02*
X26760000Y-29440000D01*
X26760000Y-30560000D02*
X26760000Y-31560000D01*
X26760000Y-31560000D02*
X25240000Y-31560000D01*
X24700000Y-29620000D02*
X24940000Y-29950000D01*
X24460000Y-29950000D01*
X24700000Y-29620000D01*
G36*
X24940000Y-29950000D02*
G01*
X24460000Y-29950000D01*
X24700000Y-29620000D01*
X24940000Y-29950000D01*
G37*
%TO.C,U2*%
X44940000Y-24565000D02*
X49060000Y-24565000D01*
X44940000Y-24630000D02*
X44940000Y-24565000D01*
X44940000Y-33435000D02*
X44940000Y-33370000D01*
X49060000Y-24565000D02*
X49060000Y-24630000D01*
X49060000Y-33370000D02*
X49060000Y-33435000D01*
X49060000Y-33435000D02*
X44940000Y-33435000D01*
X44400000Y-24630000D02*
X44160000Y-24300000D01*
X44640000Y-24300000D01*
X44400000Y-24630000D01*
G36*
X44400000Y-24630000D02*
G01*
X44160000Y-24300000D01*
X44640000Y-24300000D01*
X44400000Y-24630000D01*
G37*
%TO.C,ENC1*%
X54200000Y-15900000D02*
X54800000Y-15900000D01*
X54500000Y-16200000D02*
X54200000Y-15900000D01*
X54800000Y-15900000D02*
X54500000Y-16200000D01*
X55900000Y-14100000D02*
X55900000Y-25900000D01*
X60000000Y-14100000D02*
X55900000Y-14100000D01*
X60000000Y-25900000D02*
X55900000Y-25900000D01*
X61500000Y-20000000D02*
X62500000Y-20000000D01*
X62000000Y-19500000D02*
X62000000Y-20500000D01*
X64000000Y-14100000D02*
X68100000Y-14100000D01*
X68100000Y-14100000D02*
X68100000Y-16500000D01*
X68100000Y-18700000D02*
X68100000Y-21300000D01*
X68100000Y-23500000D02*
X68100000Y-25900000D01*
X68100000Y-25900000D02*
X64000000Y-25900000D01*
X65000000Y-20000000D02*
G75*
G02*
X59000000Y-20000000I-3000000J0D01*
G01*
X59000000Y-20000000D02*
G75*
G02*
X65000000Y-20000000I3000000J0D01*
G01*
%TO.C,R5*%
X9772936Y-30265000D02*
X10227064Y-30265000D01*
X9772936Y-31735000D02*
X10227064Y-31735000D01*
%TO.C,J1*%
X8620000Y-28380000D02*
X8620000Y-27000000D01*
X10000000Y-28380000D02*
X8620000Y-28380000D01*
X11270000Y-25620000D02*
X19000000Y-25620000D01*
X11270000Y-28380000D02*
X11270000Y-25620000D01*
X11270000Y-28380000D02*
X19000000Y-28380000D01*
X19000000Y-28380000D02*
X19000000Y-25620000D01*
%TO.C,R9*%
X67772936Y-9265000D02*
X68227064Y-9265000D01*
X67772936Y-10735000D02*
X68227064Y-10735000D01*
%TO.C,R2*%
X21265000Y-30227064D02*
X21265000Y-29772936D01*
X22735000Y-30227064D02*
X22735000Y-29772936D01*
%TO.C,R6*%
X14772936Y-30265000D02*
X15227064Y-30265000D01*
X14772936Y-31735000D02*
X15227064Y-31735000D01*
%TO.C,R7*%
X54772936Y-9265000D02*
X55227064Y-9265000D01*
X54772936Y-10735000D02*
X55227064Y-10735000D01*
%TO.C,R3*%
X26772936Y-33265000D02*
X27227064Y-33265000D01*
X26772936Y-34735000D02*
X27227064Y-34735000D01*
%TO.C,Q1*%
X34240000Y-27440000D02*
X35760000Y-27440000D01*
X34240000Y-27490000D02*
X34240000Y-27440000D01*
X34240000Y-29390000D02*
X34240000Y-28610000D01*
X34240000Y-30560000D02*
X34240000Y-30510000D01*
X35760000Y-27440000D02*
X35760000Y-28440000D01*
X35760000Y-29560000D02*
X35760000Y-30560000D01*
X35760000Y-30560000D02*
X34240000Y-30560000D01*
X33700000Y-28620000D02*
X33940000Y-28950000D01*
X33460000Y-28950000D01*
X33700000Y-28620000D01*
G36*
X33940000Y-28950000D02*
G01*
X33460000Y-28950000D01*
X33700000Y-28620000D01*
X33940000Y-28950000D01*
G37*
%TO.C,R4*%
X46772936Y-35265000D02*
X47227064Y-35265000D01*
X46772936Y-36735000D02*
X47227064Y-36735000D01*
%TD*%
%LPC*%
D12*
%TO.C,R1*%
X34087500Y-33000000D03*
X35912500Y-33000000D03*
%TD*%
D13*
%TO.C,F1*%
X40600000Y-7000000D03*
X43400000Y-7000000D03*
%TD*%
D14*
%TO.C,C11*%
X40000000Y-29950000D03*
X40000000Y-28050000D03*
%TD*%
D15*
%TO.C,C10*%
X41050000Y-23000000D03*
X42950000Y-23000000D03*
%TD*%
D16*
%TO.C,H1*%
X4000000Y-4000000D03*
%TD*%
D12*
%TO.C,R8*%
X60087500Y-10000000D03*
X61912500Y-10000000D03*
%TD*%
D17*
%TO.C,Q2*%
X25062500Y-29050000D03*
X25062500Y-30950000D03*
X26937500Y-30000000D03*
%TD*%
D18*
%TO.C,U2*%
X44525000Y-25190000D03*
X44525000Y-26460000D03*
X44525000Y-27730000D03*
X44525000Y-29000000D03*
X44525000Y-30270000D03*
X44525000Y-31540000D03*
X44525000Y-32810000D03*
X49475000Y-32810000D03*
X49475000Y-31540000D03*
X49475000Y-30270000D03*
X49475000Y-29000000D03*
X49475000Y-27730000D03*
X49475000Y-26460000D03*
X49475000Y-25190000D03*
%TD*%
D19*
%TO.C,ENC1*%
X54500000Y-17500000D03*
D20*
X54500000Y-22500000D03*
X54500000Y-20000000D03*
D21*
X62000000Y-14400000D03*
X62000000Y-25600000D03*
D20*
X69000000Y-22500000D03*
X69000000Y-17500000D03*
%TD*%
D12*
%TO.C,R5*%
X9087500Y-31000000D03*
X10912500Y-31000000D03*
%TD*%
D22*
%TO.C,J1*%
X10000000Y-27000000D03*
D23*
X12540000Y-27000000D03*
X15080000Y-27000000D03*
X17620000Y-27000000D03*
%TD*%
D12*
%TO.C,R9*%
X67087500Y-10000000D03*
X68912500Y-10000000D03*
%TD*%
D16*
%TO.C,H4*%
X76000000Y-92000000D03*
%TD*%
D24*
%TO.C,R2*%
X22000000Y-30912500D03*
X22000000Y-29087500D03*
%TD*%
D12*
%TO.C,R6*%
X14087500Y-31000000D03*
X15912500Y-31000000D03*
%TD*%
D16*
%TO.C,H2*%
X76000000Y-4000000D03*
%TD*%
D12*
%TO.C,R7*%
X54087500Y-10000000D03*
X55912500Y-10000000D03*
%TD*%
D16*
%TO.C,H3*%
X4000000Y-92000000D03*
%TD*%
D12*
%TO.C,R3*%
X26087500Y-34000000D03*
X27912500Y-34000000D03*
%TD*%
D17*
%TO.C,Q1*%
X34062500Y-28050000D03*
X34062500Y-29950000D03*
X35937500Y-29000000D03*
%TD*%
D12*
%TO.C,R4*%
X46087500Y-36000000D03*
X47912500Y-36000000D03*
%TD*%
D25*
%TO.C,SW6*%
X64130000Y-63050000D03*
D26*
X59050000Y-63050000D03*
D25*
X53970000Y-63050000D03*
D27*
X55240000Y-60510000D03*
X61590000Y-57970000D03*
%TD*%
D25*
%TO.C,SW7*%
X26030000Y-82100000D03*
D26*
X20950000Y-82100000D03*
D25*
X15870000Y-82100000D03*
D27*
X17140000Y-79560000D03*
X23490000Y-77020000D03*
%TD*%
D25*
%TO.C,SW4*%
X26030000Y-63050000D03*
D26*
X20950000Y-63050000D03*
D25*
X15870000Y-63050000D03*
D27*
X17140000Y-60510000D03*
X23490000Y-57970000D03*
%TD*%
D25*
%TO.C,SW5*%
X45080000Y-63050000D03*
D26*
X40000000Y-63050000D03*
D25*
X34920000Y-63050000D03*
D27*
X36190000Y-60510000D03*
X42540000Y-57970000D03*
%TD*%
D25*
%TO.C,SW9*%
X64130000Y-82100000D03*
D26*
X59050000Y-82100000D03*
D25*
X53970000Y-82100000D03*
D27*
X55240000Y-79560000D03*
X61590000Y-77020000D03*
%TD*%
D25*
%TO.C,SW1*%
X26030000Y-44000000D03*
D26*
X20950000Y-44000000D03*
D25*
X15870000Y-44000000D03*
D27*
X17140000Y-41460000D03*
X23490000Y-38920000D03*
%TD*%
D25*
%TO.C,SW2*%
X45080000Y-44000000D03*
D26*
X40000000Y-44000000D03*
D25*
X34920000Y-44000000D03*
D27*
X36190000Y-41460000D03*
X42540000Y-38920000D03*
%TD*%
D25*
%TO.C,SW3*%
X64130000Y-44000000D03*
D26*
X59050000Y-44000000D03*
D25*
X53970000Y-44000000D03*
D27*
X55240000Y-41460000D03*
X61590000Y-38920000D03*
%TD*%
D25*
%TO.C,SW8*%
X45080000Y-82100000D03*
D26*
X40000000Y-82100000D03*
D25*
X34920000Y-82100000D03*
D27*
X36190000Y-79560000D03*
X42540000Y-77020000D03*
%TD*%
D28*
%TO.C,U1*%
X20380000Y-1590000D03*
X20380000Y-4130000D03*
X20380000Y-6670000D03*
X20380000Y-9210000D03*
X20380000Y-11750000D03*
X20380000Y-14289999D03*
X20380000Y-16830000D03*
X20380000Y-19370000D03*
X20380000Y-21910000D03*
X22920000Y-21910000D03*
X25460000Y-21910000D03*
X28000000Y-21910000D03*
X30540000Y-21910000D03*
X33080000Y-21910000D03*
X35620000Y-21910000D03*
X35620000Y-19370000D03*
X35620000Y-16830000D03*
X35620000Y-14290000D03*
X35620000Y-11750000D03*
X35620000Y-9210001D03*
X35620000Y-6670000D03*
X35620000Y-4130000D03*
X35620000Y-1590000D03*
%TD*%
%LPD*%
M02*
