M48
; DRILL file KiCad 10.0.5 date 2026-09-05T17:26:33
; FORMAT={-:-/ absolute / metric / decimal}
; #@! TF.CreationDate,2026-09-05T17:26:33-04:00
; #@! TF.GenerationSoftware,Kicad,Pcbnew,10.0.5
; #@! TF.FileFunction,NonPlated,1,2,NPTH
FMAT,2
METRIC
; #@! TA.AperFunction,NonPlated,NPTH,ComponentDrill
T1C1.750
; #@! TA.AperFunction,NonPlated,NPTH,ComponentDrill
T2C2.700
; #@! TA.AperFunction,NonPlated,NPTH,ComponentDrill
T3C3.988
%
G90
G05
T1
X15.87Y-44.0
X15.87Y-63.05
X15.87Y-82.1
X26.03Y-44.0
X26.03Y-63.05
X26.03Y-82.1
X34.92Y-44.0
X34.92Y-63.05
X34.92Y-82.1
X45.08Y-44.0
X45.08Y-63.05
X45.08Y-82.1
X53.97Y-44.0
X53.97Y-63.05
X53.97Y-82.1
X64.13Y-44.0
X64.13Y-63.05
X64.13Y-82.1
T2
X4.0Y-4.0
X4.0Y-92.0
X76.0Y-4.0
X76.0Y-92.0
T3
X20.95Y-44.0
X20.95Y-63.05
X20.95Y-82.1
X40.0Y-44.0
X40.0Y-63.05
X40.0Y-82.1
X59.05Y-44.0
X59.05Y-63.05
X59.05Y-82.1
M30
